<?xml version="1.0" encoding="UTF-8"?>
<!DOCTYPE svg PUBLIC "-//W3C//DTD SVG 1.1//EN" "http://www.w3.org/Graphics/SVG/1.1/DTD/svg11.dtd">
<!-- Creator: CorelDRAW -->
<svg xmlns="http://www.w3.org/2000/svg" xml:space="preserve" width="1000px" height="1000px" version="1.1" shape-rendering="geometricPrecision" text-rendering="geometricPrecision" image-rendering="optimizeQuality" fill-rule="evenodd" clip-rule="evenodd"
viewBox="0 0 49.35 49.35"
 xmlns:xlink="http://www.w3.org/1999/xlink"
 xmlns:xodm="http://www.corel.com/coreldraw/odm/2003">
 <g id="Layer_x0020_1">
  <metadata id="CorelCorpID_0Corel-Layer"/>
  <rect fill="none" width="49.35" height="49.35"/>
  <path fill="#373435" fill-rule="nonzero" d="M26.71 4.79l0 17.84 17.85 0c0.6,0 1.09,0.49 1.09,1.09l0 1.91c0,0.6 -0.49,1.08 -1.09,1.08l-17.85 0 0 17.85c0,0.6 -0.48,1.09 -1.08,1.09l-1.91 0c-0.6,0 -1.09,-0.49 -1.09,-1.09l0 -17.85 -17.84 0c-0.6,0 -1.09,-0.48 -1.09,-1.08l0 -1.91c0,-0.6 0.49,-1.09 1.09,-1.09l17.84 0 0 -17.84c0,-0.6 0.49,-1.09 1.09,-1.09l1.91 0c0.6,0 1.08,0.49 1.08,1.09z"/>
 </g>
</svg>
