<?xml version="1.0" encoding="UTF-8"?>
<!DOCTYPE svg PUBLIC "-//W3C//DTD SVG 1.1//EN" "http://www.w3.org/Graphics/SVG/1.1/DTD/svg11.dtd">
<!-- Creator: CorelDRAW -->
<svg xmlns="http://www.w3.org/2000/svg" xml:space="preserve" width="1000px" height="1000px" version="1.1" shape-rendering="geometricPrecision" text-rendering="geometricPrecision" image-rendering="optimizeQuality" fill-rule="evenodd" clip-rule="evenodd"
viewBox="0 0 53.72 53.72"
 xmlns:xlink="http://www.w3.org/1999/xlink"
 xmlns:xodm="http://www.corel.com/coreldraw/odm/2003">
 <g id="Layer_x0020_1">
  <metadata id="CorelCorpID_0Corel-Layer"/>
  <rect fill="none" width="53.72" height="53.72"/>
  <path fill="black" fill-rule="nonzero" d="M22.28 9.57l-11.15 0c-1.32,0 -2.53,0.54 -3.4,1.41 -0.88,0.88 -1.42,2.08 -1.42,3.4l0 23.33 8.57 -8.57c1.56,-1.55 3.31,-2.26 4.98,-2.34 1.94,-0.09 3.76,0.69 5.03,1.96 0.32,0.32 0.6,0.47 0.83,0.47 0.25,0 0.54,-0.18 0.83,-0.47l5.05 -5.05c1.75,-1.75 3.69,-2.49 5.64,-2.42 2.05,0.09 4.04,1.09 5.76,2.81 1.47,1.47 3.13,3.05 4.41,4.24l0 -13.96c0,-1.32 -0.55,-2.52 -1.42,-3.4 -0.87,-0.87 -2.08,-1.41 -3.4,-1.41l-9.98 0 0.19 0.4c0.18,0.4 0.13,0.85 -0.09,1.2l-2.04 3.5 1.14 2.49c0.18,0.42 0.13,0.88 -0.11,1.24l-5.03 8.38c-0.36,0.6 -1.13,0.8 -1.73,0.44 -0.45,-0.27 -0.67,-0.76 -0.61,-1.24l0.6 -6.31 -2.94 -4.32c-0.27,-0.4 -0.28,-0.89 -0.08,-1.28l-0.01 -0.01 1.46 -2.84 -1.08 -1.65zm-15.67 31.43c0.25,0.66 0.63,1.25 1.12,1.74 0.87,0.87 2.08,1.41 3.4,1.41l31.46 0c1.32,0 2.53,-0.54 3.4,-1.41 0.87,-0.88 1.42,-2.08 1.42,-3.4l0 -7.54c-1.06,-0.97 -3.91,-3.61 -6.21,-5.91 -1.27,-1.27 -2.67,-2.01 -4.06,-2.07 -1.25,-0.05 -2.53,0.47 -3.75,1.69l-5.04 5.04c-0.77,0.77 -1.65,1.21 -2.63,1.21 -0.89,0 -1.78,-0.37 -2.63,-1.21 -0.79,-0.79 -1.92,-1.27 -3.12,-1.22 -1.07,0.05 -2.22,0.53 -3.3,1.61l-10.06 10.06zm8.55 -26.08c-0.87,0 -1.66,0.35 -2.23,0.92 -0.57,0.57 -0.92,1.36 -0.92,2.23 0,0.87 0.35,1.66 0.92,2.23 0.57,0.57 1.36,0.92 2.23,0.92 0.87,0 1.66,-0.35 2.23,-0.92 0.57,-0.57 0.92,-1.36 0.92,-2.23 0,-0.87 -0.35,-1.66 -0.92,-2.23 -0.57,-0.57 -1.36,-0.92 -2.23,-0.92zm-4.02 -0.87c1.03,-1.03 2.45,-1.67 4.02,-1.67 1.57,0 2.99,0.64 4.02,1.67 1.03,1.03 1.67,2.45 1.67,4.02 0,1.57 -0.64,2.99 -1.67,4.02 -1.03,1.03 -2.45,1.67 -4.02,1.67 -1.57,0 -2.99,-0.64 -4.02,-1.67 -1.03,-1.03 -1.67,-2.45 -1.67,-4.02 0,-1.57 0.64,-2.99 1.67,-4.02zm-0.01 -7.02l11.84 0 0 0c0.41,0 0.81,0.21 1.06,0.58l1.8 2.76c0.28,0.38 0.35,0.9 0.12,1.35l-1.45 2.83 2.74 4.03c0.18,0.24 0.28,0.55 0.25,0.88l-0.12 1.24 1.85 -3.1 -1.13 -2.48 0.01 0c-0.17,-0.36 -0.16,-0.79 0.05,-1.16l2.07 -3.54 -0.7 -1.53c-0.09,-0.18 -0.15,-0.38 -0.15,-0.59 0,-0.7 0.57,-1.27 1.27,-1.27l11.95 0c2.02,0 3.86,0.83 5.2,2.16 1.33,1.33 2.16,3.17 2.16,5.19l0 24.96c0,2.02 -0.83,3.86 -2.16,5.19 -1.34,1.33 -3.18,2.16 -5.2,2.16l-31.46 0c-2.02,0 -3.86,-0.83 -5.2,-2.16 -1.33,-1.33 -2.16,-3.17 -2.16,-5.19l0 -24.96c0,-2.02 0.83,-3.86 2.16,-5.19 1.34,-1.34 3.18,-2.16 5.2,-2.16z"/>
 </g>
</svg>
