<?xml version="1.0" encoding="UTF-8"?>
<!DOCTYPE svg PUBLIC "-//W3C//DTD SVG 1.0//EN" "http://www.w3.org/TR/2001/REC-SVG-20010904/DTD/svg10.dtd">
<!-- Creator: CorelDRAW -->
<svg xmlns="http://www.w3.org/2000/svg" xml:space="preserve" width="200px" height="200px" version="1.0" shape-rendering="geometricPrecision" text-rendering="geometricPrecision" image-rendering="optimizeQuality" fill-rule="evenodd" clip-rule="evenodd"
viewBox="0 0 2.86 2.86"
 xmlns:xlink="http://www.w3.org/1999/xlink"
 xmlns:xodm="http://www.corel.com/coreldraw/odm/2003">
 <defs>
     <linearGradient id="id0" gradientUnits="userSpaceOnUse" x1="1.42" y1="2.37" x2="1.42" y2="2.53">
      <stop offset="0" stop-opacity="1" stop-color="#AAB7C0"/>
      <stop offset="0.2" stop-opacity="1" stop-color="#D5DCE1"/>
      <stop offset="0.8" stop-opacity="1" stop-color="#D5DCE1"/>
      <stop offset="1" stop-opacity="1" stop-color="#C4CDD4"/>
     </linearGradient>
 </defs>
 <g id="Layer_x0020_1">
  <metadata id="CorelCorpID_0Corel-Layer"/>
  <g id="_2303909359936">
   <rect fill="none" width="2.86" height="2.86"/>
   <g>
    <path fill="#DFE3E7" d="M1.8 2.23l-0.76 0 0 0.09c0,0.03 0.02,0.05 0.05,0.05l0.66 0c0.02,0 0.05,-0.02 0.05,-0.05l0 -0.09z"/>
    <path id="_1" fill="#CCCCCC" d="M1.78 2.25l-0.73 0 0 0.07c0,0.01 0.01,0.02 0.02,0.02 0,0.01 0.01,0.01 0.02,0.01l0.66 0c0.01,0 0.02,0 0.02,-0.01 0.01,0 0.01,-0.01 0.01,-0.02l0 -0.07zm0.02 -0.02l-0.76 0 0 0.09c0,0.03 0.02,0.05 0.05,0.05l0.66 0c0.02,0 0.05,-0.02 0.05,-0.05l0 -0.09z"/>
   </g>
   <g>
    <path fill="#DFE3E7" d="M1.71 2.53l-0.58 0c-0.03,0 -0.05,0.02 -0.05,0.05l0 0.03c0,0.05 0.04,0.09 0.09,0.09l0.5 0c0.05,0 0.09,-0.04 0.09,-0.09l0 -0.03c0,-0.03 -0.02,-0.05 -0.05,-0.05z"/>
    <path id="_1_2" fill="#CCCCCC" d="M1.71 2.55l-0.58 0c-0.01,0 -0.02,0 -0.03,0.01 0,0 -0.01,0.01 -0.01,0.02l0 0.03c0,0.02 0.01,0.04 0.03,0.06 0.01,0.01 0.03,0.02 0.05,0.02l0.5 0c0.02,0 0.04,-0.01 0.05,-0.02 0.01,-0.02 0.02,-0.04 0.02,-0.06l0 -0.03c0,-0.01 0,-0.02 -0.01,-0.02 0,-0.01 -0.01,-0.01 -0.02,-0.01zm0 -0.02l-0.58 0c-0.03,0 -0.05,0.02 -0.05,0.05l0 0.03c0,0.05 0.04,0.09 0.09,0.09l0.5 0c0.05,0 0.09,-0.04 0.09,-0.09l0 -0.03c0,-0.03 -0.02,-0.05 -0.05,-0.05z"/>
   </g>
   <g>
    <path fill="url(#id0)" d="M1.73 2.53l-0.62 0c-0.04,0 -0.07,-0.03 -0.07,-0.07l0 -0.02c0,-0.04 0.03,-0.07 0.07,-0.07l0.62 0c0.04,0 0.07,0.03 0.07,0.07l0 0.02c0,0.04 -0.03,0.07 -0.07,0.07z"/>
    <path id="_1_3" fill="#CCCCCC" d="M1.73 2.53l-0.62 0c-0.04,0 -0.07,-0.03 -0.07,-0.07l0 -0.02c0,-0.04 0.03,-0.07 0.07,-0.07l0.62 0c0.04,0 0.07,0.03 0.07,0.07l0 0.02c0,0.04 -0.03,0.07 -0.07,0.07zm-0.62 0.02l0.62 0c0.02,0 0.04,-0.01 0.06,-0.03 0.01,-0.02 0.02,-0.04 0.02,-0.06l0 -0.02c0,-0.02 -0.01,-0.04 -0.02,-0.06l0 0 0 0 0 0 0 0 0 0c-0.02,-0.02 -0.04,-0.03 -0.06,-0.03l-0.62 0c-0.02,0 -0.04,0.01 -0.06,0.03l0 0 0 0 0 0 0 0 0 0c-0.02,0.02 -0.03,0.04 -0.03,0.06l0 0.02c0,0.02 0.01,0.04 0.03,0.06 0.02,0.02 0.04,0.03 0.06,0.03z"/>
   </g>
   <path fill="#4D4D4D" d="M1.62 2.7c-0.04,0.08 -0.11,0.13 -0.19,0.13 -0.08,0 -0.15,-0.05 -0.19,-0.13l0.38 0z"/>
   <path fill="#FEC94E" d="M1.43 0.61c0.42,0 0.76,0.34 0.76,0.76 0,0.19 -0.08,0.37 -0.2,0.5 -0.04,0.05 -0.06,0.1 -0.07,0.15l0 0.09c-0.01,0.07 -0.07,0.12 -0.14,0.12l-0.7 0c-0.07,0 -0.13,-0.05 -0.13,-0.12l-0.01 -0.09c-0.01,-0.05 -0.03,-0.1 -0.07,-0.15 -0.12,-0.13 -0.19,-0.31 -0.19,-0.5 0,-0.42 0.33,-0.76 0.75,-0.76z"/>
   <g>
    <path fill="white" fill-rule="nonzero" fill-opacity="0.509804" d="M1.32 0.86c0.03,-0.01 0.05,0.01 0.05,0.03 0.01,0.02 -0.01,0.05 -0.03,0.05l-0.02 -0.08zm-0.3 0.36l-0.08 -0.02 0 -0.02 0.01 -0.02 0.01 -0.01 0 -0.02 0.01 -0.01 0.01 -0.02 0.01 -0.01 0.01 -0.01 0.01 -0.02 0.01 -0.01 0.01 -0.01 0.01 -0.02 0.01 -0.01 0.01 -0.01 0.01 -0.01 0.01 -0.01 0.02 -0.01 0.01 -0.02 0.01 -0.01 0.02 0 0.01 -0.01 0.02 -0.01 0.01 -0.01 0.01 -0.01 0.02 -0.01 0.02 0 0.01 -0.01 0.02 -0.01 0.01 0 0.02 -0.01 0.02 0 0.01 0 0.02 0.08 -0.01 0 -0.02 0.01 -0.01 0 -0.01 0.01 -0.02 0 -0.01 0.01 -0.01 0 -0.02 0.01 -0.01 0 -0.01 0.01 -0.01 0.01 -0.01 0.01 -0.02 0 -0.01 0.01 -0.01 0.01 -0.01 0.01 -0.01 0.01 -0.01 0.01 -0.01 0.01 -0.01 0.01 -0.01 0.01 0 0.01 -0.01 0.01 -0.01 0.01 -0.01 0.02 -0.01 0.01 0 0.01 -0.01 0.01 -0.01 0.01 0 0.02 -0.01 0.01 0 0.01zm0 0c-0.01,0.03 -0.03,0.04 -0.06,0.03 -0.02,-0.01 -0.03,-0.03 -0.02,-0.05l0.08 0.02z"/>
   </g>
   <path fill="black" fill-opacity="0.090196" d="M1.43 0.61c0.42,0 0.76,0.34 0.76,0.76 0,0.19 -0.08,0.37 -0.2,0.5 -0.04,0.05 -0.06,0.1 -0.07,0.15l0 0.09c-0.01,0.07 -0.07,0.12 -0.14,0.12l-0.7 0c-0.06,0 -0.11,-0.03 -0.13,-0.09 0.02,0.01 0.03,0.01 0.04,0.01l0.7 0c0.07,0 0.13,-0.05 0.14,-0.12l0.01 -0.08c0,-0.06 0.02,-0.1 0.06,-0.14 0.13,-0.13 0.2,-0.3 0.2,-0.48 0,-0.38 -0.32,-0.7 -0.71,-0.72 0.01,0 0.03,0 0.04,0z"/>
   <g>
    <path fill="#FEC33A" fill-rule="nonzero" d="M2.24 1.87c-0.01,-0.01 -0.02,-0.03 -0.01,-0.04 0.01,-0.02 0.03,-0.02 0.04,-0.01l-0.03 0.05zm0.33 0.19l-0.33 -0.19 0.03 -0.05 0.33 0.18 -0.03 0.06zm0.03 -0.06c0.01,0.01 0.02,0.03 0.01,0.05 -0.01,0.01 -0.03,0.02 -0.04,0.01l0.03 -0.06z"/>
   </g>
   <g>
    <path fill="#FEC33A" fill-rule="nonzero" d="M2.38 1.4c-0.01,0 -0.03,-0.02 -0.03,-0.03 0,-0.02 0.02,-0.04 0.03,-0.04l0 0.07zm0.38 0l-0.38 0 0 -0.07 0.38 0 0 0.07zm0 -0.07c0.02,0 0.03,0.02 0.03,0.04 0,0.01 -0.01,0.03 -0.03,0.03l0 -0.07z"/>
   </g>
   <g>
    <path fill="#FEC33A" fill-rule="nonzero" d="M2.27 0.92c-0.01,0.01 -0.03,0 -0.04,-0.01 -0.01,-0.02 0,-0.04 0.01,-0.05l0.03 0.06zm0.33 -0.19l-0.33 0.19 -0.03 -0.06 0.33 -0.19 0.03 0.06zm-0.03 -0.06c0.01,-0.01 0.03,0 0.04,0.01 0.01,0.02 0,0.04 -0.01,0.05l-0.03 -0.06z"/>
   </g>
   <g>
    <path fill="#FEC33A" fill-rule="nonzero" d="M1.94 0.56c-0.01,0.01 -0.03,0.02 -0.05,0.01 -0.01,-0.01 -0.02,-0.03 -0.01,-0.05l0.06 0.04zm0.18 -0.33l-0.18 0.33 -0.06 -0.04 0.19 -0.32 0.05 0.03zm-0.05 -0.03c0.01,-0.02 0.03,-0.02 0.04,-0.01 0.02,0 0.02,0.02 0.01,0.04l-0.05 -0.03z"/>
   </g>
   <g>
    <path fill="#FEC33A" fill-rule="nonzero" d="M1.46 0.41c0,0.02 -0.01,0.03 -0.03,0.03 -0.02,0 -0.03,-0.01 -0.03,-0.03l0.06 0zm0 -0.37l0 0.37 -0.06 0 0 -0.37 0.06 0zm-0.06 0c0,-0.02 0.01,-0.04 0.03,-0.04 0.02,0 0.03,0.02 0.03,0.04l-0.06 0z"/>
   </g>
   <g>
    <path fill="#FEC33A" fill-rule="nonzero" d="M0.98 0.52c0.01,0.02 0.01,0.04 -0.01,0.05 -0.02,0.01 -0.04,0 -0.04,-0.01l0.05 -0.04zm-0.19 -0.32l0.19 0.32 -0.05 0.04 -0.19 -0.33 0.05 -0.03zm-0.05 0.03c-0.01,-0.02 -0.01,-0.03 0.01,-0.04 0.01,-0.01 0.03,-0.01 0.04,0.01l-0.05 0.03z"/>
   </g>
   <g>
    <path fill="#FEC33A" fill-rule="nonzero" d="M0.62 0.86c0.02,0.01 0.02,0.03 0.01,0.05 -0.01,0.01 -0.03,0.02 -0.04,0.01l0.03 -0.06zm-0.33 -0.19l0.33 0.19 -0.03 0.06 -0.33 -0.19 0.03 -0.06zm-0.03 0.06c-0.01,-0.01 -0.02,-0.03 -0.01,-0.05 0.01,-0.01 0.03,-0.02 0.04,-0.01l-0.03 0.06z"/>
   </g>
   <g>
    <path fill="#FEC33A" fill-rule="nonzero" d="M0.48 1.33c0.01,0 0.03,0.02 0.03,0.04 0,0.01 -0.02,0.03 -0.03,0.03l0 -0.07zm-0.38 0l0.38 0 0 0.07 -0.38 0 0 -0.07zm0 0.07c-0.02,0 -0.03,-0.02 -0.03,-0.03 0,-0.02 0.01,-0.04 0.03,-0.04l0 0.07z"/>
   </g>
   <g>
    <path fill="#FEC33A" fill-rule="nonzero" d="M0.59 1.82c0.01,-0.01 0.03,-0.01 0.04,0.01 0.01,0.01 0.01,0.03 -0.01,0.04l-0.03 -0.05zm-0.33 0.18l0.33 -0.18 0.03 0.05 -0.33 0.19 -0.03 -0.06zm0.03 0.06c-0.01,0.01 -0.03,0 -0.04,-0.01 -0.01,-0.02 0,-0.04 0.01,-0.05l0.03 0.06z"/>
   </g>
  </g>
 </g>
</svg>
