<?xml version="1.0" encoding="UTF-8"?>
<!DOCTYPE svg PUBLIC "-//W3C//DTD SVG 1.1//EN" "http://www.w3.org/Graphics/SVG/1.1/DTD/svg11.dtd">
<!-- Creator: CorelDRAW -->
<svg xmlns="http://www.w3.org/2000/svg" xml:space="preserve" width="200px" height="200px" version="1.1" shape-rendering="geometricPrecision" text-rendering="geometricPrecision" image-rendering="optimizeQuality" fill-rule="evenodd" clip-rule="evenodd"
viewBox="0 0 3 3"
 xmlns:xlink="http://www.w3.org/1999/xlink"
 xmlns:xodm="http://www.corel.com/coreldraw/odm/2003">
 <g id="Layer_x0020_1">
  <metadata id="CorelCorpID_0Corel-Layer"/>
  <g id="_2302171855280">
   <circle fill="#E19705" cx="1.5" cy="0.32" r="0.21"/>
   <path fill="#FBC948" d="M0.19 2.4c0,-0.17 0.1,-0.22 0.23,-0.35 0.13,-0.13 0.19,-0.15 0.22,-0.76 0.03,-0.62 0.33,-0.92 0.86,-0.92 0.52,0 0.82,0.3 0.86,0.92 0.03,0.61 0.08,0.63 0.22,0.76 0.13,0.13 0.22,0.18 0.22,0.35l-2.61 0z"/>
   <path fill="none" fill-opacity="0.501961" stroke="white" stroke-width="0.09" stroke-linecap="round" stroke-linejoin="round" stroke-miterlimit="2.61313" stroke-opacity="0.501961" d="M0.78 1.9c-0.04,0.15 -0.17,0.26 -0.17,0.26"/>
   <path fill="none" fill-opacity="0.501961" stroke="white" stroke-width="0.09" stroke-linecap="round" stroke-linejoin="round" stroke-miterlimit="2.61313" stroke-opacity="0.501961" d="M0.89 1.25c0.02,-0.24 0.08,-0.5 0.35,-0.58"/>
   <path fill="black" fill-opacity="0.101961" d="M1.41 0.38c0.03,0 0.06,-0.01 0.09,-0.01 0.52,0 0.82,0.3 0.86,0.92 0.03,0.61 0.08,0.63 0.22,0.76 0.13,0.13 0.22,0.18 0.22,0.35l-0.38 0c0,-0.17 -0.08,-0.22 -0.19,-0.35 -0.11,-0.13 -0.16,-0.16 -0.18,-0.76 -0.03,-0.6 -0.25,-0.88 -0.64,-0.91z"/>
   <ellipse fill="#CE7304" cx="1.5" cy="2.4" rx="1.31" ry="0.13"/>
   <circle fill="#FBC948" cx="1.5" cy="2.59" r="0.29"/>
   <path fill="black" fill-opacity="0.101961" d="M1.22 2.52c-0.01,0.01 -0.01,0.02 -0.01,0.03 0.04,-0.1 0.15,-0.16 0.26,-0.13 0.12,0.03 0.2,0.16 0.16,0.28 -0.03,0.11 -0.13,0.18 -0.24,0.16 0.01,0.01 0.02,0.01 0.03,0.01 0.16,0.05 0.32,-0.05 0.36,-0.2 0.04,-0.16 -0.05,-0.32 -0.21,-0.36 -0.15,-0.04 -0.31,0.05 -0.35,0.21z"/>
  </g>
  <rect fill="none" width="3" height="3"/>
 </g>
</svg>
