<?xml version="1.0" encoding="UTF-8"?>
<!DOCTYPE svg PUBLIC "-//W3C//DTD SVG 1.0//EN" "http://www.w3.org/TR/2001/REC-SVG-20010904/DTD/svg10.dtd">
<!-- Creator: CorelDRAW -->
<svg xmlns="http://www.w3.org/2000/svg" xml:space="preserve" width="199px" height="199px" version="1.0" shape-rendering="geometricPrecision" text-rendering="geometricPrecision" image-rendering="optimizeQuality" fill-rule="evenodd" clip-rule="evenodd"
viewBox="0 0 2.83 2.83"
 xmlns:xlink="http://www.w3.org/1999/xlink"
 xmlns:xodm="http://www.corel.com/coreldraw/odm/2003">
 <g id="Layer_x0020_1">
  <metadata id="CorelCorpID_0Corel-Layer"/>
  <g id="_2218844008848">
   <rect fill="none" width="2.83" height="2.83"/>
   <g>
    <g>
     <rect fill="#CF6637" x="0.66" y="0.11" width="1.5" height="2.52"/>
     <rect fill="#A83C20" x="0.76" y="0.21" width="1.31" height="2.32"/>
     <g>
      <path fill="#7D200F" d="M1.78 1.76l-0.2 0 0 0.57 0.2 0 0 -0.57zm-0.2 -0.07l0.2 0 0.08 0 0 0.07 0 0.57 0 0.07 -0.08 0 -0.2 0 -0.08 0 0 -0.07 0 -0.57 0 -0.07 0.08 0z"/>
     </g>
     <g>
      <path fill="#7D200F" d="M1.78 0.5l-0.2 0 0 0.86 0.2 0 0 -0.86zm-0.2 -0.07l0.2 0 0.08 0 0 0.07 0 0.86 0 0.08 -0.08 0 -0.2 0 -0.08 0 0 -0.08 0 -0.86 0 -0.07 0.08 0z"/>
     </g>
     <g>
      <path fill="#7D200F" d="M1.26 1.76l-0.21 0 0 0.57 0.21 0 0 -0.57zm-0.21 -0.07l0.21 0 0.07 0 0 0.07 0 0.57 0 0.07 -0.07 0 -0.21 0 -0.07 0 0 -0.07 0 -0.57 0 -0.07 0.07 0z"/>
     </g>
     <g>
      <path fill="#7D200F" d="M1.26 0.5l-0.21 0 0 0.86 0.21 0 0 -0.86zm-0.21 -0.07l0.21 0 0.07 0 0 0.07 0 0.86 0 0.08 -0.07 0 -0.21 0 -0.07 0 0 -0.08 0 -0.86 0 -0.07 0.07 0z"/>
     </g>
     <rect fill="#9A9088" x="0.46" y="2.54" width="1.91" height="0.18"/>
    </g>
    <polygon fill="black" fill-opacity="0.109804" points="2.17,1.05 2.07,1.12 2.07,1.32 0.76,2.19 0.76,1.99 0.66,2.05 0.66,2.53 2.17,2.53 "/>
   </g>
  </g>
 </g>
</svg>
