<?xml version="1.0" encoding="UTF-8"?>
<!DOCTYPE svg PUBLIC "-//W3C//DTD SVG 1.1//EN" "http://www.w3.org/Graphics/SVG/1.1/DTD/svg11.dtd">
<svg xmlns="http://www.w3.org/2000/svg" xml:space="preserve" width="199px" height="199px" version="1.1" shape-rendering="geometricPrecision" text-rendering="geometricPrecision" image-rendering="optimizeQuality" fill-rule="evenodd" clip-rule="evenodd"
viewBox="0 0 3.15 3.15">
 <defs>
   <linearGradient id="id0" gradientUnits="userSpaceOnUse" x1="0.97" y1="1.09" x2="2.19" y2="2.76">
    <stop offset="0" stop-opacity="1" stop-color="#E7EFE7"/>
    <stop offset="1" stop-opacity="1" stop-color="#D3DBCB"/>
   </linearGradient>
 </defs>
 <g id="Layer_x0020_1">
  <metadata id="CorelCorpID_0Corel-Layer"/>
  <rect fill="none" width="3.15" height="3.15"/>
  <path fill="#333333" d="M0.64 0l1.88 0c0.15,0 0.28,0.13 0.28,0.29l0 0.77 -0.1 0 0 0.22 0.1 0 0 0.08 -0.1 0 0 0.22 0.1 0 0 0.08 -0.1 0 0 0.22 0.1 0 0 0.08 -0.1 0 0 0.22 0.1 0 0 0.08 -0.1 0 0 0.22 0.1 0 0 0.08 -0.1 0 0 0.22 0.1 0 0 0.09c0,0.15 -0.13,0.28 -0.28,0.28l-0.07 0 0 -0.1 -0.23 0 0 0.1 -0.07 0 0 -0.1 -0.23 0 0 0.1 -0.07 0 0 -0.1 -0.23 0 0 0.1 -0.07 0 0 -0.1 -0.23 0 0 0.1 -0.07 0 0 -0.1 -0.23 0 0 0.1 -0.07 0 0 -0.1 -0.23 0 0 0.1 -0.08 0c-0.16,0 -0.29,-0.13 -0.29,-0.28l0 -0.07 0.1 0 0 -0.22 -0.1 0 0 -0.08 0.1 0 0 -0.22 -0.1 0 0 -0.08 0.1 0 0 -0.22 -0.1 0 0 -0.08 0.1 0 0 -0.22 -0.1 0 0 -0.08 0.1 0 0 -0.22 -0.1 0 0 -0.08 0.1 0 0 -0.22 -0.1 0 0 -0.79c0,-0.16 0.13,-0.29 0.29,-0.29z"/>
  <path fill="url(#id0)" d="M0.62 0.89l1.91 0c0.05,0 0.08,0.04 0.08,0.08l0 1.91c0,0.05 -0.03,0.08 -0.08,0.08l-1.91 0c-0.04,0 -0.08,-0.03 -0.08,-0.08l0 -1.91c0,-0.04 0.04,-0.08 0.08,-0.08z"/>
  <path fill="#FBFFF7" fill-rule="nonzero" d="M0.86 1.18l0.35 0 0 0.14 -0.19 0 0 0.1 0.19 0 0 0.15 -0.19 0 0 0.11 0.19 0 0 0.14 -0.35 0 0 -0.64zm0.71 0.19c0,-0.01 -0.01,-0.01 -0.01,-0.02 0,-0.01 0,-0.02 -0.01,-0.02 0,-0.01 0,-0.01 -0.01,-0.02 -0.01,0 -0.02,-0.01 -0.03,-0.01 -0.02,0 -0.03,0.01 -0.04,0.02 -0.01,0.01 -0.02,0.02 -0.02,0.03 0,0.01 0,0.02 0.01,0.03 0,0.01 0.01,0.01 0.01,0.02 0.01,0 0.03,0.01 0.05,0.02 0.01,0.01 0.04,0.02 0.06,0.03 0.03,0.02 0.06,0.03 0.08,0.04 0.02,0.02 0.03,0.03 0.04,0.05 0.02,0.01 0.02,0.03 0.03,0.04 0,0.02 0,0.04 0,0.06 0,0.02 0,0.04 -0.01,0.07 0,0.02 -0.02,0.04 -0.03,0.06 -0.02,0.02 -0.04,0.03 -0.07,0.04 -0.03,0.02 -0.07,0.02 -0.11,0.02 -0.05,0 -0.08,0 -0.11,-0.02 -0.03,-0.01 -0.06,-0.03 -0.07,-0.05 -0.02,-0.02 -0.03,-0.04 -0.04,-0.06 -0.01,-0.03 -0.01,-0.05 -0.01,-0.07l0 -0.02 0.16 0c0,0.02 0,0.03 0.01,0.04 0,0.01 0.01,0.02 0.02,0.03 0.01,0.01 0.01,0.01 0.02,0.01 0.01,0 0.01,0.01 0.02,0.01 0.02,0 0.03,-0.01 0.04,-0.02 0.02,-0.02 0.02,-0.03 0.02,-0.05 0,-0.01 0,-0.02 0,-0.02 -0.01,-0.01 -0.01,-0.02 -0.02,-0.02 -0.01,-0.01 -0.03,-0.02 -0.04,-0.02 -0.02,-0.01 -0.04,-0.02 -0.06,-0.03 -0.02,0 -0.03,-0.01 -0.05,-0.02 -0.02,-0.01 -0.03,-0.02 -0.05,-0.03 -0.02,-0.02 -0.03,-0.04 -0.04,-0.06 -0.01,-0.02 -0.02,-0.04 -0.02,-0.07 0,-0.03 0.01,-0.06 0.02,-0.08 0.01,-0.03 0.03,-0.05 0.05,-0.06 0.02,-0.02 0.05,-0.03 0.07,-0.04 0.03,-0.01 0.06,-0.01 0.08,-0.01 0.04,0 0.07,0 0.1,0.02 0.03,0.01 0.06,0.03 0.08,0.05 0.01,0.01 0.01,0.02 0.02,0.03 0,0.02 0.01,0.03 0.01,0.04 0,0.01 0.01,0.02 0.01,0.03 0,0.01 0,0.02 0,0.03l-0.16 0zm0.4 0.11l0.07 0c0,0 0.01,0 0.02,-0.01 0.02,0 0.03,0 0.04,0 0.01,-0.01 0.02,-0.02 0.03,-0.03 0,-0.01 0.01,-0.02 0.01,-0.04 0,-0.02 -0.01,-0.03 -0.01,-0.04 -0.01,-0.02 -0.02,-0.02 -0.03,-0.03 -0.02,0 -0.03,0 -0.04,-0.01 -0.01,0 -0.02,0 -0.03,0l-0.06 0 0 0.16zm-0.16 -0.3l0.21 0c0.03,0 0.06,0 0.08,0 0.02,0.01 0.04,0.01 0.05,0.01 0.02,0.01 0.03,0.01 0.04,0.02 0.01,0 0.02,0.01 0.03,0.02 0.02,0.02 0.04,0.04 0.06,0.07 0.01,0.03 0.01,0.06 0.01,0.1 0,0.01 0,0.03 0,0.05 0,0.01 -0.01,0.03 -0.01,0.04 -0.01,0.02 -0.02,0.03 -0.03,0.04 0,0.01 -0.01,0.03 -0.02,0.03 -0.01,0.01 -0.03,0.02 -0.04,0.03 -0.01,0.01 -0.02,0.01 -0.04,0.02 -0.01,0 -0.03,0 -0.05,0.01 -0.01,0 -0.04,0 -0.06,0l-0.07 0 0 0.2 -0.16 0 0 -0.64z"/>
  <path fill="#FBFFF7" fill-rule="nonzero" d="M1.24 2.49c0,0 0,0.01 0,0.02 0.01,0 0.01,0.01 0.02,0.02 0,0 0.01,0.01 0.02,0.01 0.01,0.01 0.02,0.01 0.03,0.01 0.03,0 0.05,-0.01 0.06,-0.02 0.01,-0.01 0.01,-0.03 0.01,-0.05 0,-0.02 0,-0.03 -0.01,-0.04 0,-0.01 -0.01,-0.01 -0.02,-0.02 -0.01,0 -0.02,0 -0.03,0 -0.01,-0.01 -0.02,-0.01 -0.02,-0.01l-0.06 0 0 -0.12 0.03 0c0,0 0.01,0 0.02,0 0.01,0 0.02,0 0.02,0 0.01,-0.01 0.02,-0.01 0.03,-0.02 0.01,-0.01 0.01,-0.02 0.01,-0.04 0,-0.01 0,-0.03 -0.01,-0.04 -0.01,-0.01 -0.02,-0.02 -0.04,-0.02 -0.01,0 -0.02,0.01 -0.02,0.01 -0.01,0 -0.02,0.01 -0.02,0.01 0,0.01 0,0.02 -0.01,0.02 0,0.01 0,0.01 0,0.02l-0.16 0c0,-0.04 0.01,-0.07 0.03,-0.1 0.01,-0.02 0.03,-0.04 0.05,-0.06 0.02,-0.01 0.05,-0.02 0.07,-0.03 0.03,-0.01 0.05,-0.01 0.07,-0.01 0.03,0 0.06,0 0.09,0.01 0.02,0.01 0.04,0.03 0.06,0.04 0.02,0.02 0.03,0.04 0.04,0.06 0.01,0.02 0.01,0.04 0.01,0.06 0,0.03 0,0.04 -0.01,0.06 0,0.02 -0.01,0.03 -0.02,0.04 -0.01,0.01 -0.02,0.02 -0.03,0.02 -0.01,0.01 -0.02,0.01 -0.02,0.02 0.03,0.01 0.05,0.02 0.07,0.04 0.01,0.01 0.03,0.03 0.03,0.04 0.01,0.02 0.02,0.03 0.02,0.05 0,0.01 0,0.02 0,0.02 0,0.03 -0.01,0.06 -0.02,0.08 -0.01,0.03 -0.03,0.05 -0.05,0.07 -0.02,0.01 -0.05,0.03 -0.08,0.04 -0.03,0.01 -0.06,0.01 -0.09,0.01 -0.02,0 -0.04,0 -0.06,0 -0.02,-0.01 -0.03,-0.01 -0.05,-0.02 -0.02,-0.01 -0.04,-0.01 -0.05,-0.03 -0.02,-0.01 -0.03,-0.02 -0.04,-0.04 -0.01,-0.01 -0.01,-0.02 -0.02,-0.03 0,-0.01 0,-0.02 -0.01,-0.03 0,-0.01 0,-0.02 0,-0.03 0,-0.01 0,-0.01 0,-0.02l0.16 0zm0.84 0.05l0 0.14 -0.45 0 0 -0.13c0.02,-0.01 0.03,-0.02 0.05,-0.03 0.02,-0.01 0.04,-0.03 0.05,-0.04 0.02,-0.01 0.03,-0.02 0.05,-0.04 0.01,-0.01 0.03,-0.02 0.04,-0.04 0.01,-0.01 0.01,-0.02 0.02,-0.03 0.01,-0.01 0.02,-0.02 0.03,-0.04 0.01,-0.01 0.02,-0.03 0.03,-0.05 0.01,-0.01 0.01,-0.03 0.01,-0.04 0,-0.01 0,-0.02 0,-0.03 -0.01,0 -0.01,-0.01 -0.01,-0.02 -0.01,0 -0.01,-0.01 -0.02,-0.01 -0.01,-0.01 -0.02,-0.01 -0.03,-0.01 -0.02,0 -0.03,0.01 -0.04,0.01 -0.01,0.01 -0.02,0.02 -0.02,0.03 -0.01,0.01 -0.01,0.02 -0.01,0.03 0,0.01 0,0.02 0,0.03l-0.16 0c0,-0.02 0,-0.04 0.01,-0.07 0,-0.02 0.01,-0.05 0.03,-0.07 0.01,-0.02 0.03,-0.04 0.05,-0.05 0.01,-0.02 0.03,-0.03 0.05,-0.03 0.02,-0.01 0.04,-0.02 0.05,-0.02 0.02,0 0.03,0 0.05,0 0.03,0 0.06,0 0.09,0.02 0.03,0.01 0.05,0.02 0.07,0.04 0.02,0.02 0.03,0.04 0.04,0.06 0.01,0.02 0.01,0.04 0.01,0.07 0,0.03 0,0.06 -0.02,0.09 -0.01,0.03 -0.02,0.06 -0.05,0.09 -0.02,0.02 -0.04,0.05 -0.06,0.07 -0.03,0.03 -0.05,0.05 -0.08,0.07l0.22 0z"/>
  <path fill="#DDBC69" fill-rule="nonzero" d="M2.38 0.89l0 -0.66 -0.19 0 0 0.66 -0.11 0 0 -0.66 -0.22 0 0 0.43 -0.39 0 0 -0.43 -0.16 0 0 0.43 -0.38 0 0 -0.43 -0.15 0 0 0.53 -0.11 0 0 -0.65 0.37 0 0 0.44 0.16 0 0 -0.44 0.38 0 0 0.44 0.16 0 0 -0.44 0.75 0 0 0.78 -0.11 0zm0.42 0.17l-0.1 0 0 0.22 0.1 0 0 -0.05c-0.03,0 -0.06,-0.03 -0.06,-0.06 0,-0.03 0.03,-0.06 0.06,-0.06l0 -0.05zm0 1.5l-0.1 0 0 0.22 0.1 0 0 -0.05c-0.03,0 -0.06,-0.03 -0.06,-0.06 0,-0.03 0.03,-0.06 0.06,-0.06l0 -0.05zm0 -0.3l-0.1 0 0 0.22 0.1 0 0 -0.05c-0.03,0 -0.06,-0.03 -0.06,-0.06 0,-0.03 0.03,-0.06 0.06,-0.06l0 -0.05zm0 -0.3l-0.1 0 0 0.22 0.1 0 0 -0.05c-0.03,0 -0.06,-0.03 -0.06,-0.06 0,-0.03 0.03,-0.06 0.06,-0.06l0 -0.05zm0 -0.3l-0.1 0 0 0.22 0.1 0 0 -0.05c-0.03,0 -0.06,-0.03 -0.06,-0.06 0,-0.03 0.03,-0.06 0.06,-0.06l0 -0.05zm0 -0.3l-0.1 0 0 0.22 0.1 0 0 -0.05c-0.03,0 -0.06,-0.03 -0.06,-0.06 0,-0.03 0.03,-0.06 0.06,-0.06l0 -0.05zm-0.35 1.79l0 -0.1 -0.23 0 0 0.1 0.06 0c0,-0.03 0.02,-0.05 0.06,-0.05 0.03,0 0.05,0.02 0.05,0.05l0.06 0zm-1.5 0l0 -0.1 -0.23 0 0 0.1 0.06 0c0,-0.03 0.02,-0.05 0.05,-0.05 0.04,0 0.06,0.02 0.06,0.05l0.06 0zm0.3 0l0 -0.1 -0.23 0 0 0.1 0.06 0c0,-0.03 0.02,-0.05 0.05,-0.05 0.04,0 0.06,0.02 0.06,0.05l0.06 0zm0.3 0l0 -0.1 -0.23 0 0 0.1 0.06 0c0,-0.03 0.02,-0.05 0.06,-0.05 0.03,0 0.05,0.02 0.05,0.05l0.06 0zm0.3 0l0 -0.1 -0.23 0 0 0.1 0.06 0c0,-0.03 0.02,-0.05 0.06,-0.05 0.03,0 0.05,0.02 0.05,0.05l0.06 0zm0.3 0l0 -0.1 -0.23 0 0 0.1 0.06 0c0,-0.03 0.02,-0.05 0.06,-0.05 0.03,0 0.05,0.02 0.05,0.05l0.06 0zm-1.8 -0.35l0.1 0 0 -0.22 -0.1 0 0 0.05c0.03,0 0.06,0.03 0.06,0.06 0,0.03 -0.03,0.05 -0.06,0.05l0 0.06zm0 -1.5l0.1 0 0 -0.22 -0.1 0 0 0.05c0.03,0 0.06,0.03 0.06,0.06 0,0.03 -0.03,0.05 -0.06,0.05l0 0.06zm0 0.3l0.1 0 0 -0.22 -0.1 0 0 0.05c0.03,0 0.06,0.03 0.06,0.06 0,0.03 -0.03,0.05 -0.06,0.05l0 0.06zm0 0.3l0.1 0 0 -0.22 -0.1 0 0 0.05c0.03,0 0.06,0.03 0.06,0.06 0,0.03 -0.03,0.05 -0.06,0.05l0 0.06zm0 0.3l0.1 0 0 -0.22 -0.1 0 0 0.05c0.03,0 0.06,0.03 0.06,0.06 0,0.03 -0.03,0.05 -0.06,0.05l0 0.06zm0 0.3l0.1 0 0 -0.22 -0.1 0 0 0.05c0.03,0 0.06,0.03 0.06,0.06 0,0.03 -0.03,0.05 -0.06,0.05l0 0.06z"/>
 </g>
</svg>
