<?xml version="1.0" encoding="UTF-8"?>
<!DOCTYPE svg PUBLIC "-//W3C//DTD SVG 1.1//EN" "http://www.w3.org/Graphics/SVG/1.1/DTD/svg11.dtd">
<!-- Creator: CorelDRAW -->
<svg xmlns="http://www.w3.org/2000/svg" xml:space="preserve" width="1000px" height="1000px" version="1.1" shape-rendering="geometricPrecision" text-rendering="geometricPrecision" image-rendering="optimizeQuality" fill-rule="evenodd" clip-rule="evenodd"
viewBox="0 0 60.86 60.86"
 xmlns:xlink="http://www.w3.org/1999/xlink"
 xmlns:xodm="http://www.corel.com/coreldraw/odm/2003">
 <g id="Layer_x0020_1">
  <metadata id="CorelCorpID_0Corel-Layer"/>
  <rect fill="none" width="60.86" height="60.86"/>
  <path fill="black" d="M13.49 7.99c-0.23,0 -0.44,0.1 -0.59,0.25 -0.15,0.15 -0.24,0.36 -0.24,0.59 0,0.23 0.09,0.44 0.24,0.59 0.15,0.15 0.36,0.24 0.59,0.24 0.23,0 0.44,-0.09 0.59,-0.24 0.15,-0.15 0.25,-0.36 0.25,-0.59 0,-0.23 -0.1,-0.44 -0.25,-0.59 -0.15,-0.15 -0.36,-0.25 -0.59,-0.25zm32.69 33.83c-0.24,0.75 -0.65,1.42 -1.2,1.96 -0.82,0.82 -1.93,1.36 -3.16,1.43l0 3.08 2.6 2.6c0.34,-0.16 0.73,-0.25 1.13,-0.25 0.74,0 1.41,0.3 1.9,0.79 0.49,0.49 0.79,1.16 0.79,1.9 0,0.75 -0.3,1.42 -0.79,1.91 -0.49,0.49 -1.16,0.79 -1.9,0.79 -0.74,0 -1.42,-0.3 -1.9,-0.79 -0.49,-0.49 -0.79,-1.16 -0.79,-1.91 0,-0.4 0.09,-0.78 0.24,-1.13l-3.14 -3.14 0 -3.84 -3.4 0 0 5.53c0.37,0.13 0.7,0.35 0.97,0.62 0.49,0.49 0.8,1.16 0.8,1.91 0,0.74 -0.31,1.41 -0.8,1.9 -0.48,0.49 -1.16,0.79 -1.9,0.79 -0.74,0 -1.41,-0.3 -1.9,-0.79 -0.49,-0.49 -0.79,-1.16 -0.79,-1.9 0,-0.75 0.3,-1.42 0.79,-1.91 0.27,-0.27 0.61,-0.49 0.97,-0.62l0 -5.53 -3.39 0 0 3.1c0.4,0.29 0.66,0.76 0.66,1.29 0,0.88 -0.71,1.59 -1.59,1.59 -0.88,0 -1.6,-0.71 -1.6,-1.59 0,-0.53 0.27,-1 0.67,-1.29l0 -3.1 -3.4 0 0 5.53c0.37,0.13 0.7,0.35 0.97,0.62 0.49,0.49 0.79,1.16 0.79,1.91 0,0.74 -0.3,1.41 -0.79,1.9 -0.49,0.49 -1.16,0.79 -1.9,0.79 -0.74,0 -1.42,-0.3 -1.9,-0.79 -0.49,-0.49 -0.79,-1.16 -0.79,-1.9 0,-0.75 0.3,-1.42 0.79,-1.91 0.27,-0.27 0.6,-0.49 0.97,-0.62l0 -5.53 -3.4 0 0 3.84 -3.89 3.9c0.01,0.08 0.02,0.17 0.02,0.25 0,0.88 -0.72,1.6 -1.6,1.6 -0.87,0 -1.59,-0.72 -1.59,-1.6 0,-0.88 0.72,-1.59 1.59,-1.59 0.09,0 0.18,0.01 0.26,0.02l3.36 -3.35 0 -3.1c-1.14,-0.13 -2.16,-0.64 -2.92,-1.41 -0.55,-0.54 -0.96,-1.21 -1.2,-1.96l-3.5 0 -3 3 0 2.84c0.37,0.14 0.7,0.35 0.97,0.62 0.49,0.49 0.79,1.16 0.79,1.91 0,0.74 -0.3,1.41 -0.79,1.9 -0.49,0.49 -1.16,0.79 -1.9,0.79 -0.74,0 -1.42,-0.3 -1.9,-0.79 -0.49,-0.49 -0.79,-1.16 -0.79,-1.9 0,-0.75 0.3,-1.42 0.79,-1.91 0.27,-0.27 0.6,-0.48 0.97,-0.62l0 -3.61 4.09 -4.08 4.03 0 0 -3.49 -6.88 0c-0.13,0.37 -0.35,0.7 -0.62,0.97 -0.49,0.49 -1.16,0.79 -1.9,0.79 -0.75,0 -1.42,-0.3 -1.91,-0.79 -0.49,-0.48 -0.79,-1.16 -0.79,-1.9 0,-0.74 0.31,-1.42 0.79,-1.91 0.49,-0.48 1.17,-0.78 1.91,-0.78 0.74,0 1.41,0.3 1.9,0.78 0.27,0.28 0.49,0.61 0.62,0.98l6.88 0 0 -3.49 -5.51 0 -4.89 -4.89 0 -3c-0.37,-0.14 -0.71,-0.35 -0.98,-0.63 -0.49,-0.48 -0.79,-1.16 -0.79,-1.9 0,-0.74 0.3,-1.42 0.79,-1.9 0.49,-0.49 1.16,-0.79 1.9,-0.79 0.75,0 1.42,0.3 1.91,0.79 0.49,0.48 0.79,1.16 0.79,1.9 0,0.74 -0.3,1.41 -0.79,1.9 -0.28,0.28 -0.61,0.49 -0.98,0.63l0 2.23 3.81 3.8 4.74 0 0 -1.55 -2.23 0c-0.62,0 -1.2,-0.19 -1.69,-0.54 -0.48,-0.34 -0.86,-0.82 -1.07,-1.42 -0.21,-0.59 -0.22,-1.2 -0.06,-1.77 0.15,-0.57 0.49,-1.08 0.98,-1.48l5.53 -4.5 -3.48 -3.48 0 -3.17c-0.37,-0.14 -0.7,-0.35 -0.97,-0.63 -0.49,-0.48 -0.79,-1.16 -0.79,-1.9 0,-0.74 0.3,-1.42 0.79,-1.91 0.49,-0.48 1.16,-0.78 1.9,-0.78 0.74,0 1.42,0.3 1.9,0.78 0.49,0.49 0.79,1.17 0.79,1.91 0,0.74 -0.3,1.41 -0.79,1.9 -0.27,0.28 -0.6,0.49 -0.97,0.63l0 2.4 3.04 3.04 -0.26 0.27 11.74 -9.55c0.46,-0.37 1.01,-0.56 1.56,-0.56 0.55,0 1.1,0.19 1.56,0.56l9.98 8.12 3.27 -3.18 0 -2.4c-0.37,-0.14 -0.7,-0.35 -0.98,-0.63 -0.49,-0.49 -0.79,-1.16 -0.79,-1.9 0,-0.75 0.3,-1.42 0.79,-1.91 0.49,-0.48 1.17,-0.78 1.91,-0.78 0.74,0 1.41,0.3 1.9,0.78 0.49,0.49 0.79,1.16 0.79,1.91 0,0.74 -0.3,1.41 -0.79,1.9 -0.28,0.27 -0.61,0.49 -0.97,0.63l0 3.17 -3.68 3.59 2.95 2.39 2.33 -2.33c-0.01,-0.08 -0.02,-0.17 -0.02,-0.26 0,-0.88 0.71,-1.59 1.59,-1.59 0.88,0 1.59,0.71 1.59,1.59 0,0.88 -0.71,1.59 -1.59,1.59 -0.09,0 -0.17,0 -0.26,-0.02l-2.19 2.2 2.6 2.12c0.49,0.4 0.82,0.91 0.98,1.48 0.16,0.57 0.15,1.18 -0.06,1.77 -0.21,0.6 -0.59,1.08 -1.07,1.42 -0.49,0.35 -1.07,0.54 -1.7,0.54l-2.22 0 0 1.55 4.61 0 3.8 -3.8 0 -2.23c-0.37,-0.14 -0.7,-0.35 -0.98,-0.63 -0.48,-0.48 -0.78,-1.16 -0.78,-1.9 0,-0.74 0.3,-1.42 0.79,-1.9 0.49,-0.49 1.16,-0.79 1.9,-0.79 0.74,0 1.41,0.3 1.9,0.79 0.49,0.48 0.79,1.16 0.79,1.9 0,0.74 -0.3,1.41 -0.79,1.9 -0.27,0.28 -0.6,0.49 -0.97,0.63l0 3 -4.62 4.62 -0.66 0.27 -4.99 0 0 3.49 6.74 0c0.13,-0.37 0.35,-0.7 0.62,-0.98 0.49,-0.48 1.17,-0.78 1.91,-0.78 0.74,0 1.41,0.3 1.9,0.78 0.49,0.49 0.79,1.17 0.79,1.91 0,0.74 -0.3,1.41 -0.79,1.9 -0.49,0.49 -1.16,0.79 -1.9,0.79 -0.75,0 -1.42,-0.3 -1.91,-0.79 -0.27,-0.27 -0.49,-0.6 -0.62,-0.97l-6.74 0 0 3.49 3.89 0 4.09 4.08 0 3.61c0.37,0.14 0.7,0.35 0.97,0.62 0.49,0.49 0.79,1.16 0.79,1.91 0,0.74 -0.3,1.41 -0.79,1.9 -0.49,0.49 -1.16,0.79 -1.9,0.79 -0.74,0 -1.42,-0.3 -1.9,-0.79 -0.49,-0.49 -0.79,-1.16 -0.79,-1.9 0,-0.75 0.3,-1.42 0.79,-1.91 0.27,-0.27 0.6,-0.48 0.97,-0.62l0 -2.84 -3 -3 -3.36 0zm-0.63 10.68c-0.23,0 -0.44,0.09 -0.59,0.24 -0.15,0.16 -0.25,0.36 -0.25,0.59 0,0.24 0.1,0.44 0.25,0.6 0.15,0.15 0.36,0.24 0.59,0.24 0.23,0 0.44,-0.09 0.59,-0.24 0.15,-0.15 0.24,-0.36 0.24,-0.6 0,-0.23 -0.09,-0.43 -0.24,-0.59 -0.15,-0.15 -0.36,-0.24 -0.59,-0.24zm10.14 -17.79c-0.24,0 -0.44,0.1 -0.59,0.25 -0.15,0.15 -0.25,0.36 -0.25,0.59 0,0.23 0.1,0.44 0.25,0.59 0.15,0.15 0.36,0.24 0.59,0.24 0.23,0 0.44,-0.09 0.59,-0.24 0.15,-0.15 0.24,-0.36 0.24,-0.59 0,-0.23 -0.09,-0.44 -0.24,-0.59 -0.15,-0.15 -0.36,-0.25 -0.59,-0.25zm-50.51 0c-0.24,0 -0.44,0.1 -0.59,0.25 -0.15,0.15 -0.25,0.36 -0.25,0.59 0,0.23 0.1,0.44 0.25,0.59 0.15,0.15 0.36,0.24 0.59,0.24 0.23,0 0.44,-0.09 0.59,-0.24 0.15,-0.15 0.24,-0.36 0.24,-0.59 0,-0.23 -0.09,-0.44 -0.24,-0.59 -0.15,-0.15 -0.36,-0.25 -0.59,-0.25zm2.21 14.64c-0.23,0 -0.44,0.1 -0.59,0.25 -0.15,0.15 -0.24,0.36 -0.24,0.59 0,0.23 0.09,0.44 0.24,0.59 0.15,0.15 0.36,0.24 0.59,0.24 0.23,0 0.44,-0.09 0.59,-0.24 0.15,-0.15 0.25,-0.36 0.25,-0.59 0,-0.23 -0.1,-0.44 -0.25,-0.59 -0.15,-0.15 -0.36,-0.25 -0.59,-0.25zm17.73 3.09c-0.23,0 -0.44,0.09 -0.59,0.24 -0.15,0.16 -0.24,0.37 -0.24,0.6 0,0.23 0.09,0.44 0.24,0.59 0.15,0.15 0.36,0.24 0.59,0.24 0.23,0 0.44,-0.09 0.59,-0.24 0.15,-0.15 0.24,-0.36 0.24,-0.59 0,-0.23 -0.09,-0.44 -0.24,-0.6 -0.15,-0.15 -0.36,-0.24 -0.59,-0.24zm10.51 0c-0.23,0 -0.44,0.09 -0.59,0.24 -0.15,0.16 -0.24,0.37 -0.24,0.6 0,0.23 0.09,0.44 0.24,0.59 0.15,0.15 0.36,0.24 0.59,0.24 0.23,0 0.44,-0.09 0.59,-0.24 0.15,-0.15 0.25,-0.36 0.25,-0.59 0,-0.23 -0.1,-0.44 -0.25,-0.6 -0.15,-0.15 -0.36,-0.24 -0.59,-0.24zm17.84 -3.09c-0.23,0 -0.44,0.1 -0.59,0.25 -0.15,0.15 -0.24,0.36 -0.24,0.59 0,0.23 0.09,0.44 0.24,0.59 0.15,0.15 0.36,0.24 0.59,0.24 0.23,0 0.44,-0.09 0.59,-0.24 0.15,-0.15 0.25,-0.36 0.25,-0.59 0,-0.23 -0.1,-0.44 -0.25,-0.59 -0.15,-0.15 -0.36,-0.25 -0.59,-0.25zm2.29 -29.47c-0.23,0 -0.44,0.09 -0.59,0.24 -0.15,0.15 -0.25,0.36 -0.25,0.59 0,0.23 0.1,0.44 0.25,0.59 0.15,0.15 0.36,0.24 0.59,0.24 0.23,0 0.44,-0.09 0.59,-0.24 0.15,-0.15 0.24,-0.36 0.24,-0.59 0,-0.23 -0.09,-0.44 -0.24,-0.59 -0.15,-0.15 -0.36,-0.24 -0.59,-0.24zm-50.66 0c-0.23,0 -0.44,0.09 -0.59,0.24 -0.15,0.15 -0.24,0.36 -0.24,0.59 0,0.23 0.09,0.44 0.24,0.59 0.16,0.15 0.36,0.24 0.59,0.24 0.24,0 0.45,-0.09 0.6,-0.24 0.15,-0.15 0.24,-0.36 0.24,-0.59 0,-0.23 -0.09,-0.44 -0.24,-0.59 -0.15,-0.15 -0.36,-0.24 -0.6,-0.24zm41.14 -13.19c-0.24,0 -0.45,0.1 -0.59,0.25 -0.15,0.15 -0.25,0.36 -0.25,0.59 0,0.23 0.1,0.44 0.25,0.59 0.15,0.15 0.36,0.24 0.59,0.24 0.23,0 0.44,-0.09 0.59,-0.24 0.15,-0.15 0.24,-0.36 0.24,-0.59 0,-0.23 -0.09,-0.44 -0.24,-0.59 -0.15,-0.15 -0.36,-0.25 -0.59,-0.25zm-8.17 33.15l-5.93 0c-1.25,0 -2.26,-1.02 -2.26,-2.27l0 -1.64c0,-1.24 1.01,-2.27 2.26,-2.27l5.93 0c1.25,0 2.26,1.03 2.26,2.27l0 1.64c0,1.25 -1.01,2.27 -2.26,2.27zm-15.19 0c-1.25,0 -2.27,-1.02 -2.27,-2.27l0 -5.89c0,-1.24 1.02,-2.27 2.27,-2.27l2.41 0c1.25,0 2.27,1.03 2.27,2.27l0 5.89c0,1.25 -1.02,2.27 -2.27,2.27l-2.41 0zm0 -19.71l2.41 0c1.25,0 2.27,1.02 2.27,2.27l0 2.5c0,1.24 -1.02,2.27 -2.27,2.27l-2.41 0c-1.25,0 -2.27,-1.03 -2.27,-2.27l0 -2.5c0,-1.25 1.02,-2.27 2.27,-2.27zm9.64 0l5.16 0c1.46,0 2.65,1.19 2.65,2.65l0 5.93c0,1.46 -1.19,2.65 -2.65,2.65l-5.16 0c-1.45,0 -2.64,-1.19 -2.64,-2.65l0 -5.93c0,-1.46 1.19,-2.65 2.64,-2.65z"/>
 </g>
</svg>
