<?xml version="1.0" encoding="UTF-8"?>
<!DOCTYPE svg PUBLIC "-//W3C//DTD SVG 1.0//EN" "http://www.w3.org/TR/2001/REC-SVG-20010904/DTD/svg10.dtd">
<!-- Creator: CorelDRAW -->
<svg xmlns="http://www.w3.org/2000/svg" xml:space="preserve" width="200px" height="200px" version="1.0" shape-rendering="geometricPrecision" text-rendering="geometricPrecision" image-rendering="optimizeQuality" fill-rule="evenodd" clip-rule="evenodd"
viewBox="0 0 2.86 2.86"
 xmlns:xlink="http://www.w3.org/1999/xlink"
 xmlns:xodm="http://www.corel.com/coreldraw/odm/2003">
 <g id="Layer_x0020_1">
  <metadata id="CorelCorpID_0Corel-Layer"/>
  <g id="_2302226640688">
   <path fill="#E64D24" d="M1.38 2.7c-0.01,-0.01 -0.01,-0.01 -0.03,-0.02 -0.12,-0.07 -0.25,-0.19 -0.32,-0.32 -0.19,-0.33 -0.06,-0.73 0.12,-1.04 0.04,-0.07 0.08,-0.14 0.13,-0.21 0.03,-0.04 0.12,-0.17 0.15,-0.19 0.03,0.02 0.13,0.16 0.15,0.19 0.24,0.35 0.49,0.86 0.25,1.27 -0.09,0.14 -0.18,0.2 -0.3,0.29l-0.02 0.01c-0.02,0.01 -0.01,0.01 -0.03,0.01 -0.01,0.01 -0.03,0.02 -0.03,0.02 0.05,0 0.22,-0.07 0.26,-0.1 0.24,-0.11 0.43,-0.28 0.55,-0.54 0.13,-0.26 0.14,-0.63 0.01,-0.9 -0.03,-0.07 -0.11,-0.18 -0.15,-0.21 0.02,0.07 0.03,0.16 0.02,0.25 -0.01,0.06 -0.04,0.18 -0.08,0.21 0,-0.09 0.01,-0.16 0,-0.25 -0.05,-0.34 -0.25,-0.62 -0.49,-0.84 -0.05,-0.04 -0.25,-0.19 -0.33,-0.19 -0.01,0.18 -0.09,0.3 -0.17,0.41 -0.02,0.03 -0.04,0.06 -0.06,0.08 -0.06,0.07 -0.14,0.17 -0.19,0.24 -0.14,0.19 -0.21,0.42 -0.14,0.67 0.04,0.15 0.08,0.15 0.1,0.2 -0.06,-0.02 -0.12,-0.09 -0.15,-0.15 -0.02,-0.03 -0.03,-0.07 -0.04,-0.11 -0.01,-0.03 -0.02,-0.11 -0.02,-0.13 -0.03,0.03 -0.06,0.17 -0.06,0.22 -0.03,0.23 0.04,0.51 0.17,0.68 0.09,0.11 0.18,0.19 0.3,0.27 0.08,0.06 0.28,0.16 0.4,0.18z"/>
   <path fill="#FB7D27" d="M1.38 2.7l0.04 0.01c-0.02,-0.01 -0.04,-0.02 -0.05,-0.04 -0.22,-0.18 -0.17,-0.48 -0.06,-0.72 0.02,-0.04 0.09,-0.19 0.12,-0.22 0.03,0.03 0.1,0.16 0.12,0.22 0.04,0.08 0.07,0.16 0.08,0.25 0.07,0.34 -0.12,0.44 -0.15,0.49 0.02,0 0.01,0 0.03,-0.01l0.02 -0.01c0.12,-0.09 0.21,-0.15 0.3,-0.29 0.24,-0.41 -0.01,-0.92 -0.25,-1.27 -0.02,-0.03 -0.12,-0.17 -0.15,-0.19 -0.03,0.02 -0.12,0.15 -0.15,0.19 -0.05,0.07 -0.09,0.14 -0.13,0.21 -0.18,0.31 -0.31,0.71 -0.12,1.04 0.07,0.13 0.2,0.25 0.32,0.32 0.02,0.01 0.02,0.01 0.03,0.02z"/>
   <path fill="#F0CA5D" d="M1.42 2.71c0.01,0.01 -0.01,0.01 0.01,0.01 0.03,-0.01 0.01,0 0.02,-0.01 0,0 0.02,-0.01 0.03,-0.02 0.03,-0.05 0.22,-0.15 0.15,-0.49 -0.01,-0.09 -0.04,-0.17 -0.08,-0.25 -0.02,-0.06 -0.09,-0.19 -0.12,-0.22 -0.03,0.03 -0.1,0.18 -0.12,0.22 -0.11,0.24 -0.16,0.54 0.06,0.72 0.01,0.02 0.03,0.03 0.05,0.04z"/>
   <rect fill="none" width="2.86" height="2.86"/>
  </g>
 </g>
</svg>
