<?xml version="1.0" encoding="UTF-8"?>
<!DOCTYPE svg PUBLIC "-//W3C//DTD SVG 1.0//EN" "http://www.w3.org/TR/2001/REC-SVG-20010904/DTD/svg10.dtd">
<!-- Creator: CorelDRAW -->
<svg xmlns="http://www.w3.org/2000/svg" xml:space="preserve" width="1000px" height="1000px" version="1.0" shape-rendering="geometricPrecision" text-rendering="geometricPrecision" image-rendering="optimizeQuality" fill-rule="evenodd" clip-rule="evenodd"
viewBox="0 0 89.16 89.16"
 xmlns:xlink="http://www.w3.org/1999/xlink"
 xmlns:xodm="http://www.corel.com/coreldraw/odm/2003">
 <defs>
   <radialGradient id="id0" gradientUnits="userSpaceOnUse" gradientTransform="matrix(1 -0 -0 0.999123 0 0)" cx="64.63" cy="62.56" r="18.48" fx="64.63" fy="62.56">
    <stop offset="0" stop-opacity="1" stop-color="#CBE6EB"/>
    <stop offset="1" stop-opacity="1" stop-color="#798DA5"/>
   </radialGradient>
 </defs>
 <g id="Layer_x0020_1">
  <metadata id="CorelCorpID_0Corel-Layer"/>
  <rect fill="none" width="89.16" height="89.16"/>
  <g>
   <path fill="#1FAB26" fill-rule="nonzero" d="M55.45 35.59c0.02,0.61 -0.47,1.13 -1.09,1.14 -0.62,0.01 -1.13,-0.48 -1.15,-1.1l2.24 -0.04zm-4.27 -9.72l1.94 -1.14 0 0 0.17 0.31 0.17 0.32 0.16 0.32 0.15 0.32 0.14 0.33 0.13 0.33 0.13 0.33 0.11 0.33 0.11 0.34 0.1 0.34 0.1 0.34 0.09 0.34 0.08 0.35 0.08 0.34 0.07 0.35 0.06 0.35 0.06 0.35 0.06 0.35 0.05 0.34 0.05 0.35 0.04 0.35 0.03 0.35 0.04 0.35 0.03 0.35 0.02 0.34 0.02 0.35 0.02 0.34 0.02 0.35 0.01 0.34 0.02 0.34 0.01 0.33 0 0.34 -2.24 0.04 0 -0.32 -0.01 -0.32 -0.01 -0.33 -0.02 -0.32 -0.01 -0.33 -0.02 -0.32 -0.02 -0.33 -0.03 -0.33 -0.02 -0.32 -0.04 -0.32 -0.03 -0.33 -0.04 -0.32 -0.04 -0.32 -0.05 -0.32 -0.05 -0.32 -0.05 -0.31 -0.06 -0.32 -0.06 -0.31 -0.07 -0.31 -0.07 -0.3 -0.08 -0.3 -0.09 -0.3 -0.09 -0.3 -0.09 -0.29 -0.1 -0.29 -0.11 -0.28 -0.11 -0.28 -0.12 -0.27 -0.12 -0.27 -0.13 -0.27 -0.14 -0.26 -0.15 -0.25 0 0zm0 0c-0.31,-0.54 -0.13,-1.22 0.4,-1.54 0.54,-0.31 1.22,-0.13 1.54,0.4l-1.94 1.14zm-17.33 -6.28l-0.74 -2.11 0 0 0.73 -0.24 0.74 -0.21 0.73 -0.17 0.74 -0.14 0.73 -0.11 0.73 -0.08 0.73 -0.05 0.72 -0.01 0.72 0.01 0.71 0.05 0.71 0.08 0.7 0.11 0.69 0.13 0.69 0.17 0.67 0.2 0.67 0.22 0.65 0.26 0.64 0.28 0.63 0.31 0.61 0.34 0.61 0.37 0.58 0.39 0.57 0.42 0.56 0.45 0.53 0.47 0.52 0.5 0.5 0.52 0.48 0.55 0.46 0.57 0.44 0.6 0.42 0.62 0.4 0.64 -1.94 1.14 -0.34 -0.57 -0.37 -0.54 -0.38 -0.52 -0.4 -0.5 -0.42 -0.48 -0.43 -0.45 -0.45 -0.43 -0.47 -0.41 -0.48 -0.39 -0.49 -0.36 -0.5 -0.34 -0.52 -0.31 -0.53 -0.29 -0.54 -0.27 -0.55 -0.24 -0.56 -0.22 -0.57 -0.2 -0.58 -0.17 -0.59 -0.14 -0.6 -0.12 -0.6 -0.09 -0.61 -0.07 -0.62 -0.04 -0.62 -0.01 -0.63 0.01 -0.63 0.04 -0.63 0.07 -0.64 0.1 -0.65 0.12 -0.64 0.15 -0.65 0.18 -0.64 0.21 0 0zm0 0c-0.59,0.21 -1.23,-0.1 -1.43,-0.69 -0.2,-0.58 0.11,-1.22 0.69,-1.42l0.74 2.11zm-7.66 7.16l-1.99 -1.03 0 0 0.13 -0.26 0.14 -0.26 0.15 -0.27 0.16 -0.27 0.16 -0.28 0.17 -0.28 0.18 -0.29 0.18 -0.28 0.2 -0.29 0.2 -0.29 0.21 -0.29 0.22 -0.28 0.23 -0.29 0.25 -0.29 0.25 -0.29 0.26 -0.28 0.27 -0.28 0.28 -0.28 0.3 -0.27 0.3 -0.27 0.32 -0.26 0.33 -0.26 0.35 -0.25 0.35 -0.24 0.37 -0.24 0.38 -0.23 0.4 -0.22 0.4 -0.21 0.42 -0.2 0.44 -0.19 0.45 -0.18 0.46 -0.17 0.74 2.11 -0.4 0.15 -0.38 0.15 -0.37 0.16 -0.36 0.17 -0.34 0.18 -0.34 0.19 -0.32 0.19 -0.31 0.2 -0.3 0.21 -0.29 0.21 -0.27 0.22 -0.27 0.22 -0.26 0.23 -0.25 0.23 -0.24 0.23 -0.24 0.24 -0.22 0.24 -0.22 0.25 -0.2 0.25 -0.2 0.25 -0.2 0.25 -0.18 0.25 -0.18 0.25 -0.17 0.26 -0.16 0.25 -0.16 0.25 -0.15 0.25 -0.15 0.25 -0.14 0.25 -0.14 0.25 -0.13 0.24 -0.12 0.24 0 0zm0 0c-0.29,0.55 -0.96,0.77 -1.51,0.48 -0.55,-0.28 -0.77,-0.96 -0.48,-1.51l1.99 1.03zm-1.46 2.89l-1.91 -1.16 0 0 0.02 -0.05 0.03 -0.05 0.03 -0.05 0.04 -0.06 0.03 -0.06 0.03 -0.06 0.04 -0.07 0.03 -0.07 0.04 -0.07 0.04 -0.07 0.03 -0.08 0.04 -0.08 0.04 -0.08 0.04 -0.08 0.04 -0.09 0.05 -0.09 0.08 -0.18 0.1 -0.19 0.04 -0.1 0.05 -0.1 0.05 -0.1 0.05 -0.1 0.05 -0.1 0.05 -0.11 0.05 -0.11 0.06 -0.11 0.05 -0.11 0.06 -0.11 0.06 -0.11 0.06 -0.12 1.99 1.03 -0.06 0.11 -0.05 0.1 -0.05 0.11 -0.06 0.1 -0.05 0.11 -0.05 0.1 -0.05 0.1 -0.05 0.1 -0.04 0.1 -0.05 0.1 -0.05 0.09 -0.05 0.1 -0.09 0.19 -0.08 0.18 -0.05 0.09 -0.04 0.09 -0.04 0.09 -0.05 0.09 -0.04 0.08 -0.04 0.09 -0.04 0.08 -0.04 0.08 -0.05 0.08 -0.04 0.08 -0.04 0.08 -0.04 0.08 -0.04 0.07 -0.04 0.08 -0.05 0.07 -0.04 0.08 0 -0.01zm0 0.01c-0.32,0.52 -1.01,0.69 -1.54,0.37 -0.53,-0.32 -0.7,-1.01 -0.37,-1.54l1.91 1.17zm-1.01 1.03l-1.16 -1.92 0 0 0.01 0 0.01 -0.01 0 0 0.01 -0.01 0.01 0 0 -0.01 0.01 0 0 -0.01 0.01 0 0.01 -0.01 0.01 0 0 -0.01 0.01 -0.01 0.01 -0.01 0.01 0 0 -0.01 0.01 -0.01 0.01 -0.01 0.01 -0.01 0.01 -0.01 0 -0.01 0.01 -0.01 0.01 -0.01 0.01 -0.01 0.01 -0.01 0.01 -0.01 0.01 -0.02 0.01 -0.01 0.01 -0.01 0.01 -0.02 0.01 -0.01 0.01 -0.02 1.91 1.16 -0.02 0.04 -0.03 0.04 -0.02 0.04 -0.03 0.04 -0.03 0.04 -0.03 0.04 -0.02 0.04 -0.03 0.03 -0.03 0.04 -0.03 0.03 -0.03 0.04 -0.03 0.03 -0.03 0.04 -0.03 0.03 -0.03 0.04 -0.03 0.03 -0.03 0.03 -0.03 0.03 -0.03 0.03 -0.04 0.03 -0.03 0.04 -0.04 0.03 -0.03 0.02 -0.03 0.03 -0.04 0.03 -0.04 0.03 -0.03 0.02 -0.04 0.03 -0.04 0.02 -0.03 0.03 -0.04 0.02 -0.04 0.03 0 0zm0 0c-0.53,0.32 -1.21,0.15 -1.53,-0.38 -0.32,-0.53 -0.15,-1.22 0.37,-1.54l1.16 1.92zm-4.31 -1.67l1.98 -1.05 0.04 0.07 0.04 0.07 0.04 0.07 0.05 0.07 0.05 0.06 0.05 0.05 0.05 0.06 0.04 0.05 0.05 0.05 0.05 0.04 0.05 0.04 0.05 0.04 0.05 0.03 0.05 0.03 0.04 0.02 0.05 0.03 0.04 0.01 0.04 0.02 0.04 0.01 0.03 0.01 0.03 0.01 0.03 0 0.03 0 0.02 0 0.03 0 0.02 0 0.02 0 0.02 -0.01 0.01 0 0.02 -0.01 0.02 -0.01 0.02 -0.01 1.16 1.92 -0.15 0.08 -0.16 0.07 -0.16 0.07 -0.16 0.05 -0.16 0.04 -0.17 0.03 -0.16 0.02 -0.17 0 -0.16 0 -0.17 -0.01 -0.16 -0.02 -0.15 -0.04 -0.16 -0.04 -0.15 -0.04 -0.14 -0.06 -0.15 -0.06 -0.14 -0.07 -0.13 -0.08 -0.14 -0.08 -0.13 -0.09 -0.12 -0.09 -0.12 -0.1 -0.12 -0.1 -0.11 -0.11 -0.11 -0.11 -0.11 -0.12 -0.1 -0.13 -0.1 -0.12 -0.09 -0.14 -0.09 -0.13 -0.09 -0.14 -0.08 -0.15zm0 0c-0.29,-0.54 -0.09,-1.22 0.46,-1.51 0.55,-0.29 1.22,-0.09 1.52,0.46l-1.98 1.05zm40.05 5.95c0,0.62 -0.49,1.12 -1.11,1.13 -0.62,0 -1.13,-0.5 -1.13,-1.12l2.24 -0.01zm-3.17 -7.62l2.12 -0.73 0 0 0.08 0.23 0.07 0.24 0.07 0.24 0.07 0.24 0.06 0.25 0.06 0.24 0.06 0.25 0.05 0.25 0.05 0.26 0.05 0.25 0.04 0.26 0.04 0.26 0.04 0.26 0.03 0.26 0.04 0.26 0.03 0.26 0.02 0.27 0.03 0.27 0.02 0.26 0.02 0.27 0.02 0.27 0.02 0.27 0.01 0.27 0.02 0.28 0.01 0.27 0.01 0.27 0.01 0.27 0 0.28 0.01 0.27 0 0.27 0.01 0.27 0 0.28 -2.24 0.01 0 -0.26 -0.01 -0.27 0 -0.26 -0.01 -0.26 0 -0.26 -0.01 -0.26 -0.01 -0.26 -0.01 -0.26 -0.02 -0.26 -0.01 -0.26 -0.01 -0.25 -0.02 -0.25 -0.02 -0.25 -0.02 -0.25 -0.03 -0.25 -0.02 -0.25 -0.03 -0.24 -0.03 -0.24 -0.03 -0.24 -0.03 -0.23 -0.04 -0.23 -0.04 -0.23 -0.04 -0.23 -0.04 -0.22 -0.05 -0.22 -0.05 -0.22 -0.05 -0.21 -0.05 -0.21 -0.06 -0.2 -0.06 -0.21 -0.06 -0.19 -0.07 -0.2 0 0zm0 0c-0.2,-0.58 0.11,-1.22 0.69,-1.42 0.59,-0.2 1.22,0.1 1.43,0.69l-2.12 0.73zm-9.99 -11.12l0.86 -2.07 0 0 0.51 0.22 0.51 0.24 0.49 0.25 0.49 0.26 0.47 0.28 0.47 0.29 0.45 0.31 0.45 0.31 0.43 0.33 0.43 0.34 0.41 0.35 0.4 0.36 0.39 0.37 0.38 0.39 0.37 0.39 0.36 0.4 0.35 0.41 0.33 0.41 0.33 0.43 0.32 0.43 0.3 0.44 0.29 0.45 0.28 0.46 0.28 0.46 0.25 0.46 0.25 0.48 0.24 0.48 0.23 0.48 0.21 0.49 0.2 0.49 0.2 0.5 0.18 0.5 -2.12 0.73 -0.16 -0.45 -0.18 -0.45 -0.18 -0.44 -0.19 -0.45 -0.21 -0.43 -0.21 -0.43 -0.23 -0.43 -0.23 -0.42 -0.24 -0.42 -0.26 -0.41 -0.26 -0.4 -0.27 -0.39 -0.28 -0.39 -0.3 -0.38 -0.3 -0.37 -0.31 -0.37 -0.32 -0.36 -0.33 -0.34 -0.33 -0.34 -0.35 -0.33 -0.36 -0.32 -0.36 -0.31 -0.37 -0.3 -0.39 -0.29 -0.39 -0.28 -0.4 -0.27 -0.41 -0.25 -0.41 -0.25 -0.43 -0.23 -0.44 -0.22 -0.44 -0.21 -0.45 -0.19 0 0zm0 0c-0.57,-0.24 -0.84,-0.9 -0.61,-1.47 0.24,-0.57 0.89,-0.84 1.47,-0.6l-0.86 2.07zm-12.72 -0.8l-0.54 -2.17 0 0 0.49 -0.12 0.48 -0.11 0.47 -0.1 0.47 -0.09 0.46 -0.09 0.46 -0.07 0.45 -0.07 0.44 -0.06 0.44 -0.04 0.44 -0.04 0.43 -0.03 0.44 -0.02 0.43 -0.01 0.42 0 0.43 0.01 0.42 0.01 0.43 0.03 0.42 0.04 0.42 0.05 0.43 0.07 0.42 0.07 0.43 0.08 0.42 0.09 0.43 0.1 0.43 0.11 0.43 0.13 0.44 0.13 0.44 0.14 0.44 0.16 0.45 0.16 0.46 0.18 0.46 0.19 -0.86 2.07 -0.43 -0.18 -0.42 -0.16 -0.41 -0.15 -0.41 -0.14 -0.4 -0.13 -0.39 -0.12 -0.39 -0.12 -0.38 -0.1 -0.38 -0.09 -0.38 -0.08 -0.38 -0.07 -0.37 -0.06 -0.37 -0.05 -0.37 -0.05 -0.37 -0.03 -0.37 -0.03 -0.37 -0.02 -0.37 0 -0.38 0 -0.37 0.01 -0.39 0.01 -0.38 0.03 -0.4 0.03 -0.39 0.05 -0.41 0.05 -0.41 0.06 -0.41 0.07 -0.43 0.08 -0.43 0.08 -0.45 0.1 -0.45 0.1 -0.46 0.11 0 0zm0 0c-0.6,0.15 -1.21,-0.21 -1.36,-0.81 -0.14,-0.6 0.22,-1.21 0.82,-1.36l0.54 2.17zm-11.14 9.63l-2.08 -0.84 0.21 -0.48 0.22 -0.47 0.24 -0.47 0.26 -0.47 0.28 -0.46 0.29 -0.45 0.31 -0.45 0.33 -0.44 0.33 -0.43 0.35 -0.42 0.37 -0.42 0.37 -0.4 0.39 -0.4 0.4 -0.39 0.41 -0.38 0.42 -0.37 0.43 -0.35 0.43 -0.35 0.44 -0.33 0.45 -0.32 0.46 -0.31 0.46 -0.3 0.47 -0.28 0.47 -0.27 0.48 -0.25 0.48 -0.24 0.49 -0.22 0.48 -0.2 0.49 -0.19 0.49 -0.17 0.49 -0.15 0.49 -0.13 0.54 2.17 -0.41 0.11 -0.41 0.13 -0.42 0.15 -0.42 0.16 -0.42 0.18 -0.43 0.19 -0.42 0.21 -0.42 0.22 -0.42 0.24 -0.42 0.25 -0.41 0.26 -0.41 0.28 -0.4 0.28 -0.4 0.3 -0.39 0.31 -0.38 0.32 -0.38 0.34 -0.37 0.33 -0.35 0.35 -0.35 0.36 -0.34 0.36 -0.32 0.37 -0.31 0.38 -0.3 0.38 -0.29 0.39 -0.27 0.39 -0.25 0.39 -0.24 0.4 -0.22 0.39 -0.21 0.4 -0.19 0.41 -0.17 0.4zm0 0c-0.23,0.57 -0.88,0.85 -1.45,0.62 -0.58,-0.23 -0.86,-0.88 -0.63,-1.46l2.08 0.84zm15.28 40.9c0.62,-0.01 1.13,0.48 1.14,1.1 0.01,0.62 -0.48,1.13 -1.1,1.14l-0.04 -2.24zm-6 3.66l-0.84 -2.08 0.28 -0.11 0.26 -0.11 0.25 -0.1 0.24 -0.09 0.22 -0.09 0.22 -0.09 0.22 -0.08 0.2 -0.08 0.2 -0.07 0.2 -0.07 0.19 -0.07 0.19 -0.06 0.19 -0.06 0.18 -0.05 0.18 -0.06 0.19 -0.04 0.18 -0.05 0.19 -0.04 0.19 -0.04 0.19 -0.03 0.19 -0.03 0.2 -0.03 0.2 -0.02 0.2 -0.02 0.21 -0.02 0.21 -0.02 0.23 -0.01 0.23 -0.01 0.24 -0.01 0.24 -0.01 0.26 -0.01 0.27 0 0.04 2.24 -0.26 0 -0.24 0.01 -0.23 0 -0.22 0.01 -0.21 0.01 -0.19 0.02 -0.19 0.01 -0.18 0.01 -0.16 0.02 -0.16 0.02 -0.16 0.02 -0.15 0.03 -0.15 0.02 -0.14 0.03 -0.14 0.03 -0.15 0.04 -0.14 0.04 -0.15 0.04 -0.15 0.04 -0.15 0.05 -0.16 0.05 -0.17 0.06 -0.17 0.06 -0.18 0.07 -0.2 0.07 -0.2 0.08 -0.21 0.08 -0.22 0.09 -0.23 0.09 -0.25 0.1 -0.26 0.11 -0.27 0.11zm0 0c-0.58,0.23 -1.23,-0.05 -1.46,-0.63 -0.23,-0.57 0.05,-1.22 0.62,-1.45l0.84 2.08zm10.99 -7.3c0.54,0.3 0.74,0.98 0.44,1.52 -0.3,0.54 -0.99,0.73 -1.53,0.43l1.09 -1.95zm-1.91 1.51l1.01 -2 0.01 0 0.05 0.03 0.05 0.03 0.05 0.03 0.06 0.02 0.05 0.03 0.06 0.03 0.05 0.03 0.06 0.03 0.05 0.03 0.06 0.03 0.06 0.03 0.06 0.03 0.05 0.04 0.06 0.03 0.06 0.03 0.06 0.04 -1.09 1.95 -0.05 -0.03 -0.06 -0.03 -0.05 -0.03 -0.06 -0.03 -0.05 -0.03 -0.06 -0.03 -0.05 -0.03 -0.05 -0.02 -0.05 -0.03 -0.05 -0.03 -0.05 -0.03 -0.05 -0.02 -0.05 -0.03 -0.05 -0.02 -0.05 -0.03 -0.05 -0.02 0.01 0zm-0.01 0c-0.55,-0.28 -0.76,-0.96 -0.48,-1.51 0.28,-0.55 0.96,-0.77 1.51,-0.49l-1.03 2zm-3.56 -0.19l-0.96 -2.03 0 0 0.15 -0.07 0.15 -0.06 0.14 -0.07 0.15 -0.06 0.14 -0.07 0.15 -0.06 0.14 -0.05 0.15 -0.05 0.15 -0.05 0.16 -0.05 0.15 -0.04 0.16 -0.03 0.17 -0.03 0.17 -0.02 0.17 -0.01 0.17 -0.01 0.18 0.01 0.17 0.01 0.18 0.02 0.18 0.02 0.18 0.04 0.18 0.04 0.18 0.05 0.19 0.06 0.19 0.06 0.19 0.07 0.19 0.08 0.2 0.08 0.21 0.09 0.21 0.1 0.22 0.11 0.22 0.11 -1.01 2 -0.21 -0.1 -0.18 -0.09 -0.18 -0.09 -0.17 -0.07 -0.16 -0.07 -0.15 -0.06 -0.13 -0.05 -0.13 -0.04 -0.12 -0.04 -0.11 -0.03 -0.1 -0.02 -0.09 -0.02 -0.09 -0.01 -0.08 -0.01 -0.07 -0.01 -0.08 0 -0.06 0 -0.07 0.01 -0.07 0.01 -0.07 0.01 -0.07 0.01 -0.08 0.02 -0.08 0.03 -0.09 0.03 -0.09 0.03 -0.1 0.04 -0.11 0.04 -0.11 0.05 -0.12 0.05 -0.13 0.06 -0.13 0.06 -0.14 0.07 0 0zm0 0c-0.56,0.26 -1.23,0.02 -1.49,-0.53 -0.27,-0.56 -0.03,-1.23 0.53,-1.5l0.96 2.03zm-4.62 1.77l-0.61 -2.16 0 0 0.2 -0.06 0.19 -0.05 0.19 -0.06 0.18 -0.05 0.17 -0.06 0.17 -0.05 0.17 -0.06 0.16 -0.05 0.16 -0.06 0.15 -0.05 0.15 -0.06 0.14 -0.05 0.14 -0.06 0.14 -0.05 0.13 -0.05 0.13 -0.05 0.13 -0.06 0.12 -0.05 0.12 -0.05 0.12 -0.05 0.11 -0.05 0.11 -0.05 0.11 -0.04 0.11 -0.05 0.1 -0.05 0.1 -0.05 0.1 -0.04 0.1 -0.05 0.19 -0.09 0.18 -0.09 0.96 2.03 -0.19 0.09 -0.19 0.09 -0.1 0.04 -0.1 0.05 -0.11 0.05 -0.11 0.05 -0.12 0.06 -0.11 0.05 -0.12 0.05 -0.13 0.06 -0.13 0.05 -0.13 0.06 -0.13 0.05 -0.14 0.06 -0.15 0.06 -0.14 0.06 -0.15 0.06 -0.16 0.05 -0.16 0.06 -0.16 0.06 -0.17 0.06 -0.17 0.06 -0.18 0.06 -0.18 0.06 -0.19 0.06 -0.19 0.06 -0.19 0.06 -0.21 0.07 -0.2 0.06 -0.21 0.06 0 0zm0 0c-0.6,0.16 -1.22,-0.19 -1.38,-0.78 -0.17,-0.6 0.18,-1.21 0.77,-1.38l0.61 2.16zm-6.09 1.43l-0.17 -2.23 0.13 -0.01 0.13 -0.02 0.15 -0.02 0.15 -0.02 0.16 -0.02 0.16 -0.03 0.17 -0.03 0.18 -0.04 0.18 -0.04 0.18 -0.04 0.19 -0.04 0.18 -0.04 0.19 -0.05 0.2 -0.05 0.19 -0.05 0.2 -0.05 0.19 -0.05 0.2 -0.05 0.19 -0.05 0.2 -0.06 0.19 -0.05 0.19 -0.05 0.19 -0.06 0.19 -0.05 0.19 -0.05 0.18 -0.05 0.18 -0.06 0.17 -0.05 0.17 -0.04 0.17 -0.05 0.16 -0.05 0.15 -0.04 0.61 2.16 -0.15 0.04 -0.16 0.04 -0.16 0.05 -0.17 0.05 -0.18 0.05 -0.17 0.05 -0.19 0.05 -0.18 0.05 -0.2 0.06 -0.19 0.05 -0.2 0.06 -0.2 0.05 -0.2 0.06 -0.2 0.05 -0.2 0.06 -0.21 0.05 -0.2 0.05 -0.21 0.06 -0.2 0.05 -0.21 0.05 -0.2 0.04 -0.21 0.05 -0.2 0.04 -0.2 0.05 -0.19 0.03 -0.2 0.04 -0.19 0.03 -0.19 0.04 -0.19 0.02 -0.18 0.03 -0.18 0.02 -0.18 0.01zm0 0c-0.62,0.05 -1.15,-0.41 -1.2,-1.03 -0.05,-0.62 0.41,-1.15 1.03,-1.2l0.17 2.23zm10.18 -10.12c0.53,-0.32 1.22,-0.14 1.54,0.39 0.31,0.53 0.14,1.21 -0.39,1.53l-1.15 -1.92zm-0.54 2.92l-1 -2.01 0 0 0.05 -0.02 0.04 -0.02 0.04 -0.02 0.05 -0.03 0.04 -0.02 0.05 -0.03 0.04 -0.02 0.05 -0.03 0.04 -0.02 0.05 -0.03 0.04 -0.03 0.05 -0.02 0.05 -0.03 0.04 -0.03 0.05 -0.03 0.05 -0.03 0.05 -0.03 0.05 -0.03 0.04 -0.03 0.05 -0.03 0.1 -0.06 0.1 -0.06 0.05 -0.03 0.05 -0.03 0.06 -0.04 0.05 -0.03 0.05 -0.03 0.05 -0.03 0.05 -0.03 0.06 -0.04 1.15 1.92 -0.04 0.03 -0.05 0.03 -0.05 0.03 -0.05 0.03 -0.05 0.03 -0.04 0.03 -0.05 0.03 -0.05 0.03 -0.1 0.06 -0.1 0.06 -0.06 0.04 -0.05 0.03 -0.05 0.03 -0.05 0.03 -0.05 0.04 -0.06 0.03 -0.05 0.03 -0.05 0.03 -0.06 0.03 -0.05 0.04 -0.06 0.03 -0.06 0.03 -0.05 0.03 -0.06 0.03 -0.06 0.04 -0.05 0.03 -0.06 0.03 -0.06 0.03 -0.06 0.03 -0.06 0.03 0 0zm0 0c-0.56,0.28 -1.23,0.05 -1.5,-0.51 -0.28,-0.55 -0.05,-1.22 0.5,-1.5l1 2.01zm-4.17 1.61l-0.71 -2.12 0 0 0.12 -0.04 0.12 -0.04 0.13 -0.04 0.12 -0.05 0.12 -0.04 0.13 -0.04 0.13 -0.04 0.12 -0.05 0.13 -0.04 0.12 -0.04 0.13 -0.05 0.13 -0.04 0.12 -0.05 0.13 -0.04 0.12 -0.05 0.13 -0.05 0.12 -0.04 0.13 -0.05 0.12 -0.05 0.12 -0.05 0.13 -0.05 0.12 -0.05 0.12 -0.05 0.12 -0.05 0.12 -0.05 0.11 -0.05 0.12 -0.05 0.11 -0.05 0.11 -0.05 0.11 -0.05 0.11 -0.05 0.11 -0.06 1 2.01 -0.13 0.06 -0.12 0.06 -0.13 0.06 -0.13 0.06 -0.13 0.06 -0.13 0.06 -0.13 0.05 -0.13 0.06 -0.13 0.05 -0.14 0.06 -0.13 0.05 -0.13 0.06 -0.14 0.05 -0.13 0.05 -0.13 0.05 -0.14 0.05 -0.13 0.05 -0.13 0.05 -0.14 0.05 -0.13 0.05 -0.13 0.04 -0.14 0.05 -0.13 0.05 -0.13 0.04 -0.13 0.05 -0.13 0.04 -0.13 0.04 -0.12 0.05 -0.13 0.04 -0.13 0.04 -0.12 0.04 -0.12 0.04 0 0zm0 0c-0.59,0.2 -1.22,-0.12 -1.42,-0.71 -0.19,-0.58 0.12,-1.22 0.71,-1.41l0.71 2.12zm-8.32 1.9l-0.17 -2.23 0.21 -0.02 0.22 -0.02 0.22 -0.03 0.23 -0.03 0.24 -0.03 0.24 -0.04 0.24 -0.04 0.25 -0.04 0.25 -0.04 0.26 -0.05 0.25 -0.05 0.26 -0.06 0.26 -0.05 0.26 -0.06 0.27 -0.06 0.26 -0.07 0.26 -0.06 0.26 -0.07 0.26 -0.06 0.26 -0.07 0.25 -0.07 0.26 -0.07 0.25 -0.07 0.24 -0.07 0.25 -0.07 0.24 -0.07 0.23 -0.07 0.23 -0.07 0.23 -0.07 0.22 -0.07 0.21 -0.07 0.21 -0.07 0.71 2.12 -0.22 0.08 -0.22 0.07 -0.24 0.07 -0.23 0.08 -0.24 0.07 -0.25 0.07 -0.25 0.08 -0.25 0.07 -0.26 0.08 -0.27 0.07 -0.26 0.07 -0.27 0.08 -0.27 0.07 -0.27 0.07 -0.27 0.06 -0.28 0.07 -0.27 0.07 -0.28 0.06 -0.28 0.06 -0.27 0.06 -0.28 0.06 -0.27 0.05 -0.27 0.06 -0.28 0.05 -0.26 0.04 -0.27 0.05 -0.27 0.04 -0.26 0.03 -0.26 0.04 -0.25 0.03 -0.25 0.02 -0.25 0.02zm0 0c-0.62,0.05 -1.15,-0.41 -1.2,-1.03 -0.05,-0.61 0.41,-1.15 1.03,-1.2l0.17 2.23zm-2.09 -4.07c-0.59,0.19 -1.22,-0.13 -1.41,-0.72 -0.19,-0.59 0.13,-1.22 0.72,-1.41l0.69 2.13zm-0.01 -2.32l0.5 2.19 0 0 -0.04 0.01 -0.03 0 -0.04 0.01 -0.03 0.01 -0.04 0.01 -0.03 0.01 -0.03 0.01 -0.04 0 -0.01 0.01 -0.02 0 -0.01 0.01 -0.01 0 -0.02 0 -0.01 0.01 -0.02 0 -0.01 0.01 -0.01 0 -0.01 0 -0.02 0.01 -0.01 0 -0.01 0.01 -0.02 0 -0.01 0 -0.01 0.01 -0.69 -2.13 0.02 -0.01 0.02 -0.01 0.02 0 0.02 -0.01 0.02 -0.01 0.02 0 0.02 -0.01 0.03 0 0.02 -0.01 0.01 -0.01 0.03 0 0.02 -0.01 0.02 0 0.02 -0.01 0.02 -0.01 0.02 0 0.04 -0.01 0.05 -0.01 0.04 -0.01 0.04 -0.01 0.05 -0.02 0.04 -0.01 0.05 -0.01 0.04 -0.01 0 0zm0 0c0.6,-0.13 1.2,0.24 1.34,0.85 0.14,0.6 -0.24,1.2 -0.84,1.34l-0.5 -2.19zm4.14 -0.7l0.44 2.19 0.01 0 -0.12 0.02 -0.11 0.03 -0.12 0.02 -0.12 0.02 -0.12 0.02 -0.13 0.02 -0.13 0.02 -0.13 0.02 -0.13 0.03 -0.13 0.02 -0.14 0.02 -0.13 0.02 -0.28 0.04 -0.28 0.04 -0.14 0.02 -0.13 0.03 -0.14 0.02 -0.14 0.02 -0.14 0.02 -0.13 0.02 -0.13 0.02 -0.13 0.03 -0.13 0.02 -0.13 0.02 -0.12 0.02 -0.12 0.03 -0.12 0.02 -0.11 0.02 -0.11 0.03 -0.1 0.02 -0.5 -2.19 0.13 -0.02 0.12 -0.03 0.13 -0.03 0.13 -0.02 0.14 -0.03 0.13 -0.02 0.14 -0.03 0.14 -0.02 0.14 -0.02 0.14 -0.03 0.14 -0.02 0.14 -0.02 0.14 -0.03 0.14 -0.02 0.14 -0.02 0.14 -0.02 0.28 -0.04 0.28 -0.05 0.13 -0.02 0.13 -0.02 0.13 -0.02 0.13 -0.02 0.12 -0.02 0.13 -0.02 0.11 -0.02 0.12 -0.02 0.1 -0.02 0.11 -0.01 0.1 -0.02 0.09 -0.02 0 0zm0 0c0.61,-0.13 1.2,0.27 1.32,0.87 0.12,0.61 -0.27,1.2 -0.87,1.32l-0.45 -2.19zm4.52 -1.33l0.8 2.09 0 0 -0.13 0.05 -0.13 0.05 -0.14 0.05 -0.14 0.05 -0.14 0.05 -0.15 0.05 -0.15 0.05 -0.15 0.05 -0.16 0.05 -0.16 0.05 -0.16 0.05 -0.16 0.05 -0.16 0.05 -0.16 0.05 -0.16 0.05 -0.17 0.05 -0.16 0.05 -0.17 0.05 -0.16 0.04 -0.16 0.05 -0.16 0.04 -0.16 0.05 -0.16 0.04 -0.16 0.04 -0.16 0.04 -0.15 0.04 -0.15 0.04 -0.15 0.03 -0.14 0.03 -0.14 0.04 -0.14 0.03 -0.14 0.02 -0.44 -2.19 0.12 -0.03 0.12 -0.02 0.12 -0.03 0.13 -0.03 0.14 -0.03 0.13 -0.04 0.15 -0.03 0.14 -0.04 0.15 -0.04 0.15 -0.04 0.15 -0.04 0.15 -0.04 0.15 -0.04 0.16 -0.05 0.15 -0.04 0.16 -0.05 0.15 -0.04 0.16 -0.05 0.15 -0.05 0.16 -0.04 0.15 -0.05 0.15 -0.05 0.15 -0.05 0.14 -0.04 0.14 -0.05 0.14 -0.05 0.14 -0.05 0.13 -0.04 0.13 -0.05 0.12 -0.04 0.12 -0.05 0.12 -0.04 0 0zm0 0c0.57,-0.22 1.22,0.06 1.44,0.64 0.23,0.58 -0.06,1.23 -0.64,1.45l-0.8 -2.09zm6.78 -3.17l1.21 1.89 -0.22 0.13 -0.22 0.14 -0.22 0.13 -0.22 0.13 -0.22 0.13 -0.23 0.13 -0.23 0.12 -0.22 0.12 -0.23 0.12 -0.23 0.11 -0.23 0.12 -0.23 0.11 -0.22 0.11 -0.23 0.1 -0.23 0.11 -0.23 0.1 -0.23 0.1 -0.23 0.1 -0.23 0.1 -0.23 0.1 -0.22 0.09 -0.23 0.1 -0.23 0.09 -0.22 0.09 -0.23 0.09 -0.22 0.09 -0.22 0.09 -0.22 0.08 -0.22 0.09 -0.22 0.08 -0.22 0.09 -0.21 0.08 -0.8 -2.09 0.21 -0.08 0.21 -0.09 0.22 -0.08 0.21 -0.08 0.22 -0.09 0.22 -0.08 0.21 -0.09 0.22 -0.09 0.22 -0.08 0.22 -0.09 0.22 -0.09 0.21 -0.09 0.22 -0.1 0.22 -0.09 0.22 -0.1 0.21 -0.09 0.22 -0.1 0.21 -0.1 0.22 -0.1 0.21 -0.1 0.22 -0.1 0.21 -0.11 0.21 -0.11 0.21 -0.1 0.21 -0.11 0.2 -0.12 0.21 -0.11 0.2 -0.12 0.2 -0.11 0.2 -0.12 0.2 -0.13 0.19 -0.12zm0 0c0.52,-0.33 1.22,-0.18 1.55,0.34 0.33,0.52 0.18,1.21 -0.34,1.55l-1.21 -1.89zm-16.86 2.87c-0.61,0.05 -1.15,-0.41 -1.2,-1.02 -0.05,-0.62 0.41,-1.16 1.02,-1.21l0.18 2.23zm0.24 -0.02l-0.24 0.02 -0.18 -2.23 0.24 -0.02 0.19 2.23 -0.01 0zm-0.18 -2.23c0.62,-0.05 1.16,0.41 1.21,1.03 0.05,0.61 -0.41,1.15 -1.03,1.2l-0.18 -2.23zm18.49 -8.11l1.97 1.05 -0.34 0.58 -0.38 0.56 -0.43 0.53 -0.46 0.51 -0.5 0.49 -0.53 0.46 -0.55 0.44 -0.59 0.43 -0.61 0.4 -0.63 0.39 -0.65 0.36 -0.67 0.35 -0.68 0.34 -0.7 0.31 -0.71 0.3 -0.72 0.29 -0.73 0.27 -0.73 0.25 -0.74 0.24 -0.73 0.22 -0.74 0.21 -0.73 0.19 -0.73 0.18 -0.72 0.17 -0.72 0.15 -0.7 0.14 -0.68 0.12 -0.68 0.11 -0.65 0.09 -0.64 0.09 -0.61 0.07 -0.59 0.05 -0.19 -2.23 0.55 -0.05 0.57 -0.07 0.6 -0.07 0.62 -0.1 0.64 -0.1 0.65 -0.12 0.67 -0.13 0.67 -0.14 0.69 -0.16 0.69 -0.17 0.7 -0.18 0.7 -0.2 0.7 -0.21 0.69 -0.22 0.69 -0.24 0.68 -0.25 0.67 -0.27 0.66 -0.28 0.65 -0.29 0.62 -0.3 0.61 -0.32 0.59 -0.33 0.56 -0.35 0.53 -0.35 0.51 -0.37 0.48 -0.38 0.44 -0.39 0.41 -0.39 0.37 -0.41 0.33 -0.42 0.29 -0.42 0.26 -0.43zm0 0c0.29,-0.55 0.97,-0.75 1.51,-0.46 0.55,0.29 0.75,0.97 0.46,1.51l-1.97 -1.05zm10.53 2.35c0.29,0.55 0.07,1.23 -0.47,1.51 -0.55,0.29 -1.23,0.08 -1.52,-0.47l1.99 -1.04zm-0.04 -0.06l0.04 0.06 -1.99 1.04 -0.03 -0.06 1.98 -1.04 0 0zm-1.98 1.04c-0.29,-0.55 -0.08,-1.23 0.47,-1.51 0.55,-0.29 1.23,-0.08 1.51,0.47l-1.98 1.04zm-0.69 -1.53l2.1 -0.8 0 0 0.01 0.04 0.02 0.04 0.01 0.05 0.02 0.04 0.02 0.04 0.01 0.04 0.02 0.04 0.02 0.04 0.01 0.04 0.02 0.04 0.02 0.04 0.02 0.04 0.01 0.05 0.02 0.04 0.02 0.04 0.02 0.04 0.02 0.04 0.01 0.04 0.02 0.04 0.02 0.04 0.02 0.04 0.02 0.04 0.02 0.03 0.02 0.04 0.01 0.04 0.02 0.04 0.02 0.04 0.02 0.04 0.02 0.04 0.02 0.04 0.02 0.04 0.02 0.04 -1.98 1.04 -0.02 -0.05 -0.03 -0.04 -0.02 -0.05 -0.03 -0.05 -0.02 -0.05 -0.02 -0.04 -0.03 -0.05 -0.02 -0.05 -0.02 -0.04 -0.02 -0.05 -0.03 -0.05 -0.02 -0.05 -0.02 -0.04 -0.02 -0.05 -0.03 -0.05 -0.02 -0.05 -0.02 -0.04 -0.02 -0.05 -0.02 -0.05 -0.02 -0.05 -0.02 -0.05 -0.02 -0.05 -0.02 -0.04 -0.02 -0.05 -0.02 -0.05 -0.02 -0.05 -0.02 -0.05 -0.02 -0.05 -0.02 -0.05 -0.02 -0.04 -0.02 -0.05 -0.02 -0.05 0 0zm0 0c-0.22,-0.58 0.07,-1.23 0.65,-1.45 0.58,-0.22 1.23,0.07 1.45,0.65l-2.1 0.8zm-1.22 -5.59l2.22 -0.24 0 0 0.02 0.17 0.02 0.16 0.02 0.17 0.02 0.16 0.02 0.17 0.02 0.16 0.03 0.16 0.02 0.17 0.02 0.16 0.03 0.16 0.03 0.16 0.03 0.16 0.02 0.16 0.03 0.16 0.04 0.16 0.03 0.16 0.03 0.16 0.04 0.16 0.03 0.15 0.04 0.16 0.04 0.15 0.04 0.16 0.04 0.15 0.04 0.16 0.05 0.15 0.04 0.15 0.05 0.15 0.05 0.15 0.05 0.14 0.05 0.15 0.05 0.15 0.06 0.14 -2.1 0.8 -0.06 -0.17 -0.06 -0.17 -0.06 -0.17 -0.06 -0.17 -0.05 -0.17 -0.06 -0.18 -0.05 -0.17 -0.05 -0.17 -0.05 -0.17 -0.05 -0.18 -0.04 -0.17 -0.04 -0.18 -0.05 -0.17 -0.04 -0.18 -0.04 -0.17 -0.03 -0.18 -0.04 -0.18 -0.03 -0.17 -0.04 -0.18 -0.03 -0.17 -0.03 -0.18 -0.03 -0.18 -0.03 -0.17 -0.03 -0.18 -0.02 -0.18 -0.03 -0.17 -0.02 -0.18 -0.02 -0.18 -0.02 -0.17 -0.03 -0.18 -0.02 -0.17 -0.01 -0.18 0 0zm0 0c-0.07,-0.61 0.38,-1.17 0.99,-1.23 0.62,-0.07 1.17,0.38 1.23,0.99l-2.22 0.24zm-0.32 -5.1l2.24 -0.09 0 0 0.01 0.15 0 0.14 0.01 0.15 0.01 0.16 0.01 0.3 0.01 0.3 0.01 0.16 0.01 0.15 0 0.15 0.01 0.16 0.01 0.15 0 0.16 0.01 0.15 0.01 0.16 0.01 0.16 0.01 0.15 0.01 0.16 0.01 0.16 0.01 0.15 0.01 0.16 0.01 0.16 0.01 0.16 0.01 0.15 0.01 0.16 0.02 0.16 0.01 0.16 0.02 0.15 0.01 0.16 0.02 0.16 0.01 0.15 -2.22 0.24 -0.02 -0.17 -0.02 -0.16 -0.01 -0.17 -0.02 -0.17 -0.01 -0.16 -0.02 -0.17 -0.01 -0.16 -0.01 -0.17 -0.02 -0.16 -0.01 -0.17 -0.01 -0.16 -0.01 -0.16 -0.01 -0.17 -0.01 -0.16 -0.01 -0.16 -0.01 -0.16 0 -0.16 -0.01 -0.16 -0.01 -0.16 -0.01 -0.16 -0.01 -0.15 0 -0.16 -0.01 -0.15 -0.01 -0.16 -0.01 -0.31 -0.01 -0.3 -0.01 -0.15 0 -0.15 -0.01 -0.15 -0.01 -0.15 0 0zm0 0c-0.02,-0.61 0.46,-1.14 1.07,-1.16 0.62,-0.03 1.14,0.45 1.17,1.07l-2.24 0.09zm-0.75 -5.15l1.98 -1.05 0 0 0.08 0.15 0.07 0.16 0.07 0.16 0.06 0.16 0.06 0.16 0.05 0.17 0.05 0.17 0.05 0.17 0.04 0.17 0.04 0.18 0.04 0.18 0.04 0.18 0.03 0.18 0.03 0.19 0.03 0.19 0.02 0.19 0.03 0.19 0.02 0.2 0.02 0.2 0.02 0.2 0.02 0.2 0.02 0.2 0.01 0.21 0.02 0.21 0.01 0.21 0.02 0.21 0.01 0.22 0.01 0.21 0.01 0.22 0.01 0.22 0.01 0.22 0.01 0.23 -2.24 0.09 -0.01 -0.22 -0.01 -0.21 -0.01 -0.22 -0.01 -0.21 -0.01 -0.21 -0.01 -0.21 -0.01 -0.2 -0.02 -0.2 -0.01 -0.19 -0.01 -0.2 -0.02 -0.19 -0.02 -0.18 -0.02 -0.18 -0.01 -0.18 -0.02 -0.18 -0.03 -0.17 -0.02 -0.16 -0.02 -0.16 -0.03 -0.16 -0.03 -0.15 -0.02 -0.14 -0.03 -0.15 -0.04 -0.13 -0.03 -0.13 -0.03 -0.13 -0.04 -0.11 -0.03 -0.12 -0.04 -0.1 -0.04 -0.1 -0.04 -0.1 -0.04 -0.08 -0.04 -0.08 0 0zm0 0c-0.29,-0.55 -0.08,-1.23 0.47,-1.52 0.54,-0.29 1.22,-0.08 1.51,0.47l-1.98 1.05zm-4.6 -3.11l0.11 -2.23 0 0 0.25 0.02 0.25 0.02 0.25 0.04 0.24 0.05 0.25 0.06 0.24 0.06 0.24 0.07 0.24 0.09 0.24 0.09 0.23 0.09 0.23 0.11 0.22 0.11 0.23 0.12 0.22 0.13 0.21 0.13 0.22 0.14 0.21 0.14 0.2 0.16 0.2 0.15 0.2 0.17 0.19 0.16 0.18 0.18 0.18 0.18 0.18 0.18 0.17 0.19 0.16 0.19 0.16 0.2 0.15 0.2 0.14 0.21 0.14 0.21 0.13 0.22 0.12 0.22 -1.98 1.05 -0.08 -0.15 -0.09 -0.15 -0.1 -0.15 -0.1 -0.15 -0.11 -0.15 -0.11 -0.14 -0.12 -0.14 -0.13 -0.14 -0.13 -0.14 -0.13 -0.13 -0.14 -0.13 -0.14 -0.12 -0.15 -0.12 -0.15 -0.12 -0.15 -0.12 -0.16 -0.1 -0.15 -0.11 -0.16 -0.1 -0.17 -0.09 -0.16 -0.09 -0.17 -0.08 -0.16 -0.07 -0.17 -0.07 -0.17 -0.07 -0.16 -0.06 -0.17 -0.05 -0.17 -0.04 -0.16 -0.04 -0.16 -0.03 -0.16 -0.03 -0.16 -0.01 -0.16 -0.02 0 0zm0 0c-0.62,-0.03 -1.1,-0.55 -1.07,-1.17 0.03,-0.62 0.56,-1.09 1.18,-1.06l-0.11 2.23zm-5.9 2.98l-2.05 -0.91 0 0 0.11 -0.23 0.11 -0.23 0.12 -0.22 0.12 -0.22 0.13 -0.22 0.14 -0.22 0.14 -0.22 0.16 -0.21 0.16 -0.2 0.18 -0.2 0.18 -0.2 0.2 -0.18 0.21 -0.19 0.21 -0.17 0.23 -0.17 0.24 -0.15 0.26 -0.15 0.26 -0.14 0.27 -0.12 0.29 -0.12 0.29 -0.11 0.31 -0.09 0.32 -0.08 0.33 -0.08 0.34 -0.06 0.35 -0.05 0.37 -0.04 0.38 -0.03 0.39 -0.02 0.41 0 0.41 0 0.44 0.02 -0.11 2.23 -0.38 -0.01 -0.36 0 -0.34 0 -0.33 0.02 -0.3 0.02 -0.29 0.03 -0.28 0.04 -0.26 0.05 -0.24 0.05 -0.23 0.06 -0.22 0.07 -0.2 0.07 -0.19 0.08 -0.18 0.08 -0.17 0.09 -0.16 0.09 -0.15 0.1 -0.14 0.1 -0.14 0.11 -0.13 0.12 -0.12 0.11 -0.12 0.13 -0.11 0.13 -0.11 0.13 -0.1 0.14 -0.1 0.15 -0.1 0.16 -0.1 0.16 -0.09 0.16 -0.09 0.18 -0.09 0.17 -0.08 0.19 0 0zm0 0c-0.25,0.56 -0.92,0.82 -1.48,0.56 -0.56,-0.25 -0.82,-0.91 -0.57,-1.47l2.05 0.91zm-1.45 3.89l-2.07 -0.86 0 0 0.05 -0.12 0.05 -0.12 0.04 -0.11 0.05 -0.12 0.04 -0.12 0.05 -0.13 0.04 -0.12 0.05 -0.12 0.04 -0.12 0.05 -0.12 0.04 -0.13 0.04 -0.12 0.05 -0.12 0.04 -0.13 0.04 -0.12 0.04 -0.13 0.05 -0.12 0.04 -0.13 0.05 -0.12 0.04 -0.13 0.04 -0.12 0.05 -0.13 0.04 -0.12 0.05 -0.13 0.05 -0.12 0.05 -0.13 0.04 -0.12 0.05 -0.13 0.05 -0.12 0.06 -0.13 0.05 -0.12 0.05 -0.12 2.05 0.91 -0.05 0.1 -0.04 0.11 -0.05 0.1 -0.04 0.11 -0.04 0.11 -0.05 0.11 -0.04 0.11 -0.04 0.11 -0.04 0.12 -0.05 0.11 -0.04 0.12 -0.04 0.12 -0.04 0.12 -0.04 0.12 -0.05 0.12 -0.04 0.12 -0.04 0.13 -0.04 0.12 -0.05 0.13 -0.04 0.13 -0.05 0.12 -0.04 0.13 -0.05 0.13 -0.04 0.13 -0.05 0.13 -0.05 0.13 -0.05 0.13 -0.05 0.14 -0.05 0.13 -0.05 0.13 -0.06 0.14 -0.05 0.13 0 0zm0 0c-0.24,0.57 -0.89,0.84 -1.47,0.61 -0.57,-0.24 -0.84,-0.9 -0.6,-1.47l2.07 0.86zm-3.42 4.55l-1.31 -1.81 0 0 0.12 -0.09 0.13 -0.1 0.11 -0.09 0.12 -0.1 0.11 -0.1 0.11 -0.1 0.1 -0.1 0.1 -0.1 0.1 -0.11 0.1 -0.1 0.09 -0.11 0.09 -0.1 0.09 -0.11 0.08 -0.11 0.09 -0.11 0.08 -0.12 0.08 -0.11 0.07 -0.11 0.08 -0.12 0.07 -0.12 0.07 -0.11 0.07 -0.12 0.06 -0.13 0.07 -0.12 0.06 -0.12 0.07 -0.12 0.06 -0.13 0.05 -0.12 0.06 -0.13 0.06 -0.13 0.06 -0.13 0.05 -0.13 2.07 0.86 -0.06 0.15 -0.07 0.15 -0.06 0.15 -0.07 0.15 -0.07 0.15 -0.08 0.15 -0.07 0.15 -0.08 0.15 -0.08 0.15 -0.08 0.15 -0.09 0.14 -0.09 0.15 -0.09 0.15 -0.09 0.15 -0.1 0.15 -0.1 0.14 -0.11 0.15 -0.1 0.14 -0.12 0.15 -0.11 0.14 -0.12 0.14 -0.12 0.14 -0.13 0.14 -0.13 0.14 -0.14 0.13 -0.13 0.14 -0.15 0.13 -0.15 0.13 -0.15 0.13 -0.15 0.13 -0.16 0.12 -0.17 0.12 0 0zm0 0c-0.5,0.37 -1.2,0.25 -1.56,-0.25 -0.37,-0.5 -0.25,-1.2 0.25,-1.56l1.31 1.81zm-1.98 1.12l-0.89 -2.05 0 0 0.06 -0.03 0.05 -0.02 0.06 -0.03 0.05 -0.02 0.06 -0.03 0.05 -0.02 0.05 -0.03 0.06 -0.03 0.05 -0.02 0.05 -0.03 0.05 -0.02 0.05 -0.03 0.05 -0.03 0.05 -0.02 0.05 -0.03 0.05 -0.03 0.05 -0.03 0.05 -0.03 0.04 -0.02 0.05 -0.03 0.05 -0.03 0.04 -0.03 0.05 -0.03 0.04 -0.03 0.05 -0.02 0.04 -0.03 0.05 -0.03 0.04 -0.03 0.04 -0.03 0.04 -0.03 0.05 -0.03 0.04 -0.03 1.31 1.81 -0.05 0.04 -0.06 0.04 -0.05 0.04 -0.06 0.04 -0.05 0.04 -0.06 0.03 -0.06 0.04 -0.06 0.04 -0.05 0.04 -0.06 0.03 -0.06 0.04 -0.06 0.04 -0.06 0.03 -0.06 0.04 -0.06 0.03 -0.06 0.04 -0.07 0.03 -0.06 0.04 -0.06 0.03 -0.07 0.04 -0.06 0.03 -0.06 0.03 -0.07 0.04 -0.07 0.03 -0.06 0.03 -0.07 0.03 -0.06 0.04 -0.07 0.03 -0.07 0.03 -0.07 0.03 -0.07 0.03 -0.07 0.03 0 0zm0 0c-0.57,0.25 -1.23,-0.01 -1.47,-0.58 -0.25,-0.57 0.01,-1.23 0.58,-1.47l0.89 2.05zm-6.4 0.72l0.17 -2.24 0.26 0.02 0.24 0.03 0.23 0.02 0.21 0.02 0.21 0.02 0.19 0.02 0.18 0.01 0.18 0.02 0.16 0.01 0.16 0.01 0.15 0.01 0.14 0.01 0.13 0.01 0.13 0 0.12 0 0.12 -0.01 0.12 0 0.12 -0.02 0.12 -0.01 0.12 -0.02 0.12 -0.02 0.13 -0.03 0.14 -0.03 0.14 -0.04 0.15 -0.04 0.16 -0.05 0.18 -0.06 0.18 -0.07 0.19 -0.07 0.21 -0.08 0.22 -0.09 0.23 -0.1 0.89 2.05 -0.25 0.11 -0.25 0.1 -0.24 0.1 -0.22 0.08 -0.22 0.08 -0.22 0.08 -0.2 0.06 -0.21 0.06 -0.2 0.05 -0.19 0.05 -0.19 0.04 -0.19 0.03 -0.19 0.03 -0.18 0.02 -0.18 0.02 -0.18 0.01 -0.18 0.01 -0.18 0 -0.17 0 -0.18 -0.01 -0.18 -0.01 -0.17 -0.01 -0.18 -0.01 -0.18 -0.02 -0.18 -0.02 -0.19 -0.02 -0.2 -0.01 -0.2 -0.02 -0.21 -0.02 -0.22 -0.02 -0.23 -0.02 -0.24 -0.02zm0 0c-0.62,-0.05 -1.08,-0.59 -1.03,-1.2 0.05,-0.62 0.59,-1.08 1.2,-1.04l-0.17 2.24zm23.6 2.38c0.39,0.49 0.3,1.19 -0.18,1.57 -0.49,0.39 -1.19,0.3 -1.57,-0.18l1.75 -1.39zm-3.01 -4.45l2.22 0.31 0 0 -0.02 0.14 -0.02 0.14 -0.01 0.14 -0.01 0.15 0 0.14 -0.01 0.15 0 0.15 0.01 0.15 0 0.15 0.01 0.15 0.01 0.15 0.02 0.15 0.01 0.14 0.02 0.15 0.03 0.14 0.02 0.15 0.03 0.14 0.03 0.14 0.04 0.13 0.04 0.14 0.04 0.13 0.04 0.12 0.04 0.12 0.05 0.12 0.05 0.11 0.05 0.11 0.05 0.11 0.05 0.09 0.06 0.1 0.05 0.08 0.06 0.09 0.05 0.07 -1.75 1.39 -0.12 -0.15 -0.1 -0.16 -0.1 -0.15 -0.1 -0.16 -0.09 -0.17 -0.08 -0.17 -0.08 -0.17 -0.07 -0.17 -0.07 -0.18 -0.07 -0.17 -0.06 -0.19 -0.05 -0.18 -0.06 -0.18 -0.04 -0.19 -0.05 -0.19 -0.03 -0.18 -0.04 -0.2 -0.03 -0.19 -0.03 -0.19 -0.02 -0.19 -0.02 -0.2 -0.01 -0.19 -0.02 -0.19 0 -0.2 -0.01 -0.19 0 -0.19 0.01 -0.2 0.01 -0.19 0.01 -0.19 0.01 -0.19 0.02 -0.19 0.03 -0.19 0 0zm0 0c0.08,-0.61 0.65,-1.04 1.26,-0.96 0.61,0.09 1.04,0.66 0.96,1.27l-2.22 -0.31zm0.43 -1.65l2.07 0.85 -0.01 0.02 -0.01 0.03 -0.01 0.03 -0.01 0.03 -0.02 0.04 -0.01 0.03 -0.01 0.03 -0.01 0.03 -0.01 0.03 -0.01 0.03 -0.01 0.04 -0.01 0.03 -0.01 0.03 -0.01 0.04 -0.01 0.03 -0.01 0.04 -0.01 0.03 0 0.04 -0.01 0.04 -0.01 0.03 -0.01 0.04 -0.01 0.03 0 0.04 -0.01 0.04 -0.01 0.04 -0.01 0.03 0 0.04 -0.01 0.04 -0.01 0.04 0 0.04 -0.01 0.04 0 0.04 -2.22 -0.31 0.01 -0.05 0 -0.06 0.01 -0.05 0.01 -0.06 0.01 -0.05 0.01 -0.05 0.01 -0.06 0.01 -0.05 0.01 -0.05 0.01 -0.06 0.01 -0.05 0.01 -0.05 0.02 -0.05 0.01 -0.06 0.01 -0.05 0.01 -0.05 0.02 -0.05 0.01 -0.05 0.02 -0.05 0.01 -0.06 0.02 -0.05 0.01 -0.05 0.02 -0.05 0.01 -0.05 0.02 -0.05 0.02 -0.05 0.01 -0.05 0.02 -0.05 0.02 -0.05 0.02 -0.05 0.02 -0.04 0.02 -0.05zm0 0c0.23,-0.58 0.89,-0.85 1.46,-0.62 0.57,0.24 0.85,0.89 0.61,1.47l-2.07 -0.85zm-20.73 13.6c-0.61,0.11 -1.19,-0.29 -1.3,-0.9 -0.12,-0.61 0.28,-1.19 0.89,-1.31l0.41 2.21zm0.26 -0.05l-0.26 0.05 -0.41 -2.21 0.26 -0.04 0 0 0.41 2.2zm-0.41 -2.2c0.61,-0.12 1.19,0.28 1.31,0.89 0.11,0.61 -0.29,1.19 -0.9,1.31l-0.41 -2.2zm10.95 -3.23l1.13 1.93 0 0 -0.4 0.23 -0.4 0.22 -0.38 0.21 -0.39 0.19 -0.37 0.18 -0.37 0.17 -0.36 0.16 -0.36 0.15 -0.36 0.14 -0.35 0.13 -0.35 0.12 -0.35 0.12 -0.35 0.1 -0.34 0.1 -0.34 0.1 -0.34 0.08 -0.34 0.08 -0.35 0.08 -0.34 0.08 -0.34 0.07 -0.35 0.06 -0.35 0.07 -0.35 0.06 -0.36 0.06 -0.36 0.07 -0.36 0.06 -0.38 0.06 -0.38 0.06 -0.38 0.07 -0.4 0.07 -0.41 0.07 -0.41 0.08 -0.41 -2.2 0.43 -0.08 0.41 -0.08 0.4 -0.07 0.4 -0.06 0.38 -0.07 0.37 -0.06 0.36 -0.06 0.36 -0.06 0.35 -0.06 0.34 -0.07 0.33 -0.06 0.33 -0.06 0.32 -0.07 0.32 -0.07 0.32 -0.07 0.31 -0.07 0.31 -0.08 0.31 -0.08 0.3 -0.09 0.31 -0.1 0.31 -0.1 0.31 -0.11 0.31 -0.11 0.32 -0.13 0.32 -0.13 0.32 -0.14 0.33 -0.15 0.34 -0.17 0.35 -0.17 0.35 -0.19 0.36 -0.2 0.37 -0.21 0 0zm0 0c0.54,-0.31 1.22,-0.13 1.53,0.4 0.32,0.53 0.14,1.22 -0.4,1.53l-1.13 -1.93zm2.88 -2.17l1.57 1.6 0 0 -0.09 0.09 -0.1 0.09 -0.09 0.08 -0.09 0.09 -0.1 0.09 -0.09 0.08 -0.1 0.09 -0.1 0.08 -0.09 0.08 -0.1 0.08 -0.1 0.09 -0.1 0.08 -0.1 0.08 -0.1 0.08 -0.11 0.08 -0.1 0.08 -0.1 0.07 -0.11 0.08 -0.11 0.08 -0.1 0.07 -0.11 0.08 -0.11 0.07 -0.11 0.08 -0.11 0.07 -0.11 0.07 -0.11 0.07 -0.11 0.08 -0.11 0.07 -0.11 0.07 -0.12 0.07 -0.11 0.06 -0.12 0.07 -1.13 -1.93 0.1 -0.06 0.1 -0.06 0.11 -0.06 0.09 -0.06 0.1 -0.07 0.1 -0.06 0.1 -0.06 0.1 -0.07 0.09 -0.06 0.1 -0.07 0.09 -0.06 0.1 -0.07 0.09 -0.06 0.09 -0.07 0.09 -0.07 0.09 -0.06 0.09 -0.07 0.09 -0.07 0.09 -0.07 0.09 -0.07 0.08 -0.07 0.09 -0.07 0.08 -0.07 0.09 -0.07 0.08 -0.07 0.08 -0.08 0.08 -0.07 0.09 -0.07 0.08 -0.08 0.07 -0.07 0.08 -0.08 0.08 -0.07 0 0zm0 0c0.44,-0.43 1.15,-0.43 1.58,0.02 0.44,0.44 0.43,1.15 -0.01,1.58l-1.57 -1.6zm1.6 -1.94l1.88 1.22 0 0 -0.05 0.08 -0.06 0.08 -0.05 0.07 -0.05 0.08 -0.05 0.08 -0.06 0.07 -0.05 0.08 -0.06 0.08 -0.05 0.07 -0.06 0.08 -0.06 0.07 -0.06 0.07 -0.05 0.08 -0.06 0.07 -0.06 0.07 -0.06 0.08 -0.06 0.07 -0.06 0.07 -0.06 0.07 -0.06 0.07 -0.07 0.07 -0.06 0.08 -0.06 0.07 -0.06 0.07 -0.07 0.06 -0.06 0.07 -0.07 0.07 -0.06 0.07 -0.07 0.07 -0.07 0.07 -0.06 0.06 -0.07 0.07 -1.57 -1.6 0.06 -0.06 0.05 -0.05 0.06 -0.06 0.06 -0.06 0.05 -0.06 0.06 -0.05 0.05 -0.06 0.06 -0.06 0.05 -0.06 0.05 -0.06 0.06 -0.06 0.05 -0.06 0.05 -0.06 0.05 -0.06 0.05 -0.06 0.05 -0.06 0.05 -0.06 0.05 -0.06 0.05 -0.06 0.05 -0.06 0.05 -0.06 0.04 -0.07 0.05 -0.06 0.05 -0.06 0.04 -0.06 0.05 -0.07 0.04 -0.06 0.05 -0.06 0.04 -0.07 0.04 -0.06 0.05 -0.07 0.04 -0.06 0 0zm0 0c0.34,-0.52 1.03,-0.67 1.55,-0.33 0.52,0.34 0.66,1.03 0.33,1.55l-1.88 -1.22zm1.53 -3.95l2.21 0.36 0 0 -0.03 0.16 -0.03 0.17 -0.03 0.16 -0.03 0.16 -0.04 0.16 -0.04 0.16 -0.04 0.16 -0.04 0.16 -0.04 0.16 -0.05 0.16 -0.05 0.15 -0.05 0.16 -0.05 0.15 -0.06 0.16 -0.05 0.15 -0.06 0.15 -0.06 0.15 -0.06 0.15 -0.06 0.15 -0.07 0.14 -0.07 0.15 -0.07 0.15 -0.07 0.14 -0.07 0.14 -0.07 0.14 -0.08 0.15 -0.08 0.14 -0.08 0.14 -0.08 0.13 -0.08 0.14 -0.09 0.14 -0.08 0.13 -1.88 -1.22 0.07 -0.11 0.07 -0.11 0.07 -0.12 0.07 -0.11 0.06 -0.12 0.07 -0.11 0.06 -0.12 0.06 -0.11 0.06 -0.12 0.06 -0.12 0.05 -0.12 0.06 -0.12 0.05 -0.12 0.05 -0.12 0.06 -0.12 0.04 -0.12 0.05 -0.13 0.05 -0.12 0.04 -0.13 0.04 -0.12 0.05 -0.13 0.03 -0.13 0.04 -0.13 0.04 -0.13 0.03 -0.13 0.04 -0.13 0.03 -0.13 0.03 -0.13 0.03 -0.14 0.02 -0.13 0.03 -0.14 0.02 -0.13 0 0zm0 0c0.1,-0.61 0.68,-1.03 1.29,-0.93 0.61,0.1 1.02,0.68 0.92,1.29l-2.21 -0.36zm0.15 -1.82l2.24 0 0 0.07 -0.01 0.07 0 0.07 0 0.07 0 0.07 0 0.07 0 0.07 -0.01 0.07 0 0.07 0 0.07 -0.01 0.06 0 0.07 0 0.07 -0.01 0.07 0 0.07 -0.01 0.07 0 0.06 -0.01 0.07 -0.01 0.07 0 0.07 -0.01 0.07 -0.01 0.06 -0.01 0.07 0 0.07 -0.01 0.06 -0.01 0.07 -0.01 0.07 -0.01 0.06 -0.01 0.07 -0.01 0.07 -0.01 0.06 -0.01 0.07 -2.21 -0.36 0.01 -0.06 0.01 -0.05 0.01 -0.06 0 -0.05 0.01 -0.06 0.01 -0.05 0.01 -0.06 0 -0.05 0.01 -0.06 0.01 -0.06 0 -0.05 0.01 -0.06 0 -0.05 0.01 -0.06 0 -0.06 0.01 -0.05 0 -0.06 0.01 -0.06 0 -0.05 0 -0.06 0.01 -0.06 0 -0.06 0 -0.05 0.01 -0.06 0 -0.06 0 -0.06 0 -0.06 0 -0.05 0 -0.06 0 -0.06 0.01 -0.06 0 -0.06zm0 0c0,-0.62 0.5,-1.12 1.12,-1.12 0.61,0 1.12,0.5 1.12,1.12l-2.24 0zm13.64 2.94c0,0.62 -0.5,1.12 -1.12,1.12 -0.62,-0.01 -1.12,-0.51 -1.12,-1.13l2.24 0.01zm0 -0.74l0 0.74 -2.24 -0.01 0 -0.73 2.24 0 0 0zm-2.24 0c0.01,-0.62 0.51,-1.12 1.13,-1.12 0.61,0 1.11,0.5 1.11,1.12l-2.24 0zm-4.11 -12.04l1.4 -1.75 0 0 0.43 0.36 0.41 0.36 0.38 0.37 0.36 0.38 0.34 0.38 0.32 0.39 0.29 0.39 0.28 0.4 0.25 0.41 0.23 0.41 0.21 0.41 0.2 0.42 0.18 0.43 0.15 0.43 0.15 0.43 0.12 0.43 0.12 0.44 0.09 0.44 0.09 0.45 0.07 0.44 0.07 0.45 0.05 0.46 0.04 0.45 0.04 0.46 0.03 0.47 0.02 0.46 0.01 0.47 0.01 0.47 0.01 0.48 0 0.48 0 0.48 0 0.49 -2.24 0 0 -0.49 0 -0.47 0 -0.47 -0.01 -0.46 -0.01 -0.45 -0.01 -0.44 -0.02 -0.44 -0.03 -0.42 -0.03 -0.42 -0.04 -0.42 -0.05 -0.4 -0.05 -0.4 -0.07 -0.39 -0.07 -0.38 -0.08 -0.38 -0.1 -0.37 -0.1 -0.36 -0.12 -0.35 -0.13 -0.35 -0.14 -0.35 -0.16 -0.33 -0.17 -0.34 -0.19 -0.33 -0.2 -0.32 -0.22 -0.33 -0.24 -0.31 -0.26 -0.32 -0.27 -0.31 -0.3 -0.32 -0.32 -0.31 -0.35 -0.3 -0.37 -0.31 0 0zm0 0c-0.48,-0.39 -0.56,-1.09 -0.17,-1.57 0.38,-0.49 1.09,-0.57 1.57,-0.18l-1.4 1.75zm-12.97 0.27l-1.5 -1.66 0 0 0.41 -0.35 0.42 -0.33 0.45 -0.3 0.45 -0.29 0.47 -0.25 0.48 -0.24 0.5 -0.21 0.5 -0.19 0.51 -0.17 0.51 -0.15 0.53 -0.12 0.52 -0.1 0.53 -0.09 0.54 -0.06 0.54 -0.04 0.54 -0.02 0.53 0.01 0.54 0.02 0.54 0.04 0.53 0.07 0.53 0.08 0.53 0.11 0.52 0.13 0.51 0.14 0.51 0.17 0.49 0.19 0.49 0.21 0.48 0.23 0.46 0.26 0.45 0.27 0.44 0.3 0.42 0.32 -1.4 1.75 -0.33 -0.25 -0.34 -0.23 -0.36 -0.22 -0.37 -0.21 -0.39 -0.18 -0.39 -0.17 -0.41 -0.16 -0.41 -0.14 -0.43 -0.12 -0.43 -0.11 -0.44 -0.08 -0.44 -0.07 -0.45 -0.06 -0.45 -0.04 -0.45 -0.01 -0.45 -0.01 -0.45 0.02 -0.45 0.03 -0.45 0.05 -0.44 0.07 -0.44 0.09 -0.43 0.1 -0.43 0.12 -0.41 0.14 -0.41 0.15 -0.4 0.18 -0.39 0.19 -0.37 0.2 -0.36 0.22 -0.35 0.24 -0.33 0.26 -0.32 0.27 0 0zm0 0c-0.46,0.41 -1.17,0.38 -1.58,-0.08 -0.42,-0.46 -0.38,-1.17 0.08,-1.58l1.5 1.66zm-2.21 3.19l-1.99 -1.04 0 0 0.07 -0.13 0.07 -0.13 0.07 -0.13 0.07 -0.13 0.07 -0.13 0.08 -0.13 0.07 -0.13 0.07 -0.13 0.08 -0.13 0.07 -0.12 0.08 -0.13 0.08 -0.13 0.08 -0.12 0.08 -0.12 0.08 -0.13 0.08 -0.12 0.08 -0.12 0.09 -0.12 0.08 -0.12 0.09 -0.12 0.09 -0.12 0.09 -0.11 0.09 -0.12 0.09 -0.11 0.09 -0.11 0.1 -0.11 0.1 -0.1 0.1 -0.11 0.1 -0.1 0.1 -0.11 0.1 -0.1 0.11 -0.09 1.5 1.66 -0.07 0.07 -0.08 0.07 -0.07 0.07 -0.07 0.07 -0.07 0.08 -0.07 0.08 -0.08 0.08 -0.07 0.09 -0.07 0.08 -0.07 0.09 -0.07 0.1 -0.07 0.09 -0.07 0.09 -0.07 0.1 -0.07 0.1 -0.07 0.11 -0.07 0.1 -0.07 0.1 -0.07 0.11 -0.07 0.11 -0.07 0.11 -0.07 0.11 -0.06 0.11 -0.07 0.12 -0.07 0.11 -0.06 0.12 -0.07 0.12 -0.06 0.12 -0.07 0.12 -0.06 0.12 -0.07 0.12 -0.06 0.12 0 0zm0 0c-0.29,0.55 -0.97,0.76 -1.51,0.47 -0.55,-0.28 -0.76,-0.96 -0.48,-1.51l1.99 1.04zm-1.85 3.68l-1.96 -1.08 0 0.01 0.05 -0.1 0.05 -0.1 0.05 -0.09 0.05 -0.1 0.06 -0.11 0.05 -0.1 0.05 -0.11 0.06 -0.1 0.05 -0.11 0.05 -0.11 0.06 -0.11 0.05 -0.11 0.06 -0.11 0.05 -0.12 0.06 -0.11 0.06 -0.12 0.11 -0.23 0.12 -0.24 0.06 -0.12 0.05 -0.12 0.06 -0.12 0.06 -0.13 0.06 -0.12 0.07 -0.12 0.06 -0.12 0.06 -0.13 0.06 -0.12 0.06 -0.12 0.07 -0.12 0.06 -0.13 1.99 1.04 -0.06 0.12 -0.06 0.11 -0.06 0.12 -0.06 0.12 -0.06 0.11 -0.06 0.12 -0.06 0.12 -0.06 0.12 -0.06 0.12 -0.05 0.11 -0.06 0.12 -0.06 0.12 -0.11 0.24 -0.12 0.23 -0.06 0.12 -0.05 0.11 -0.06 0.12 -0.06 0.12 -0.05 0.11 -0.06 0.12 -0.06 0.11 -0.05 0.11 -0.06 0.11 -0.06 0.12 -0.05 0.11 -0.06 0.11 -0.06 0.11 -0.05 0.1 -0.06 0.11 -0.06 0.11 0 0zm0 0c-0.29,0.54 -0.97,0.74 -1.52,0.44 -0.54,-0.29 -0.74,-0.97 -0.44,-1.51l1.96 1.07zm-1.99 -1.03l0.03 -0.05 1.96 1.08 -0.03 0.06 -1.96 -1.08 0 -0.01zm1.96 1.09c-0.3,0.54 -0.98,0.73 -1.52,0.43 -0.54,-0.29 -0.74,-0.98 -0.44,-1.52l1.96 1.09zm-6.58 3.75l0.55 -2.18 0 0 0.15 0.04 0.15 0.02 0.14 0.02 0.14 0.01 0.14 0 0.14 -0.01 0.13 -0.02 0.13 -0.02 0.13 -0.03 0.13 -0.04 0.13 -0.04 0.13 -0.05 0.13 -0.06 0.13 -0.07 0.13 -0.07 0.13 -0.09 0.13 -0.09 0.13 -0.09 0.13 -0.11 0.12 -0.11 0.13 -0.12 0.12 -0.13 0.13 -0.13 0.12 -0.14 0.12 -0.14 0.12 -0.16 0.11 -0.16 0.12 -0.16 0.11 -0.17 0.11 -0.17 0.1 -0.18 0.11 -0.18 1.96 1.07 -0.13 0.23 -0.13 0.22 -0.13 0.22 -0.15 0.22 -0.14 0.21 -0.15 0.2 -0.16 0.2 -0.16 0.2 -0.17 0.19 -0.17 0.18 -0.17 0.18 -0.19 0.17 -0.18 0.17 -0.2 0.16 -0.19 0.15 -0.21 0.14 -0.21 0.13 -0.22 0.13 -0.22 0.11 -0.23 0.11 -0.23 0.09 -0.24 0.08 -0.24 0.07 -0.25 0.06 -0.25 0.04 -0.26 0.03 -0.26 0.01 -0.27 0 -0.26 -0.01 -0.27 -0.03 -0.27 -0.04 -0.27 -0.06 0 0zm0 0c-0.6,-0.16 -0.96,-0.76 -0.81,-1.36 0.15,-0.6 0.76,-0.97 1.36,-0.82l-0.55 2.18zm-1.54 -0.64l1.12 -1.94 0.03 0.02 0.03 0.02 0.04 0.01 0.03 0.02 0.03 0.02 0.03 0.01 0.03 0.02 0.04 0.02 0.03 0.01 0.03 0.02 0.03 0.01 0.03 0.01 0.03 0.02 0.03 0.01 0.03 0.02 0.03 0.01 0.03 0.01 0.03 0.01 0.03 0.01 0.03 0.02 0.03 0.01 0.03 0.01 0.03 0.01 0.03 0.01 0.03 0.01 0.03 0.01 0.03 0 0.02 0.01 0.03 0.01 0.03 0.01 0.03 0.01 0.03 0 -0.55 2.18 -0.05 -0.02 -0.04 -0.01 -0.05 -0.01 -0.05 -0.02 -0.05 -0.01 -0.05 -0.02 -0.05 -0.01 -0.05 -0.02 -0.04 -0.01 -0.05 -0.02 -0.05 -0.02 -0.05 -0.02 -0.05 -0.01 -0.04 -0.02 -0.05 -0.02 -0.05 -0.02 -0.05 -0.02 -0.05 -0.02 -0.05 -0.02 -0.04 -0.02 -0.05 -0.03 -0.05 -0.02 -0.05 -0.02 -0.05 -0.03 -0.05 -0.02 -0.04 -0.02 -0.05 -0.03 -0.05 -0.03 -0.05 -0.02 -0.05 -0.03 -0.04 -0.03 -0.05 -0.02zm0 0c-0.54,-0.31 -0.72,-1 -0.41,-1.53 0.31,-0.54 0.99,-0.72 1.53,-0.41l-1.12 1.94zm1.24 10.21c-0.62,0 -1.13,-0.49 -1.13,-1.11 -0.01,-0.62 0.49,-1.13 1.11,-1.13l0.02 2.24zm0.2 0l-0.2 0 -0.02 -2.24 0.2 0 0.02 2.24 0 0zm-0.02 -2.24c0.62,-0.01 1.12,0.49 1.13,1.11 0,0.62 -0.49,1.12 -1.11,1.13l-0.02 -2.24zm7.28 -1.72l1.05 1.98 0 0 -0.24 0.12 -0.23 0.12 -0.24 0.11 -0.25 0.11 -0.24 0.11 -0.25 0.1 -0.24 0.1 -0.25 0.09 -0.25 0.09 -0.26 0.09 -0.25 0.08 -0.26 0.08 -0.26 0.07 -0.25 0.07 -0.27 0.07 -0.26 0.06 -0.26 0.06 -0.26 0.06 -0.27 0.05 -0.27 0.05 -0.26 0.04 -0.27 0.04 -0.27 0.04 -0.27 0.03 -0.27 0.03 -0.27 0.03 -0.27 0.02 -0.28 0.02 -0.27 0.01 -0.27 0.02 -0.28 0 -0.27 0.01 -0.02 -2.24 0.24 -0.01 0.25 0 0.24 -0.01 0.24 -0.02 0.25 -0.01 0.24 -0.02 0.24 -0.03 0.24 -0.02 0.24 -0.03 0.24 -0.04 0.24 -0.03 0.23 -0.04 0.24 -0.04 0.23 -0.05 0.23 -0.05 0.24 -0.05 0.22 -0.06 0.23 -0.05 0.23 -0.07 0.22 -0.06 0.23 -0.07 0.22 -0.07 0.22 -0.07 0.22 -0.08 0.21 -0.08 0.22 -0.09 0.21 -0.09 0.21 -0.09 0.21 -0.09 0.2 -0.1 0.2 -0.1 0.2 -0.1 0 0zm0 0c0.55,-0.29 1.23,-0.08 1.52,0.47 0.29,0.55 0.08,1.22 -0.47,1.51l-1.05 -1.98zm1 -0.59l1.22 1.88 0 0 -0.03 0.02 -0.04 0.03 -0.03 0.02 -0.04 0.02 -0.03 0.02 -0.04 0.03 -0.04 0.02 -0.03 0.02 -0.04 0.03 -0.04 0.02 -0.03 0.02 -0.04 0.02 -0.04 0.02 -0.03 0.03 -0.04 0.02 -0.03 0.02 -0.04 0.02 -0.04 0.02 -0.04 0.02 -0.03 0.02 -0.04 0.03 -0.04 0.02 -0.03 0.02 -0.04 0.02 -0.04 0.02 -0.03 0.02 -0.04 0.02 -0.04 0.02 -0.04 0.02 -0.04 0.02 -0.03 0.02 -0.04 0.02 -1.05 -1.98 0.04 -0.02 0.03 -0.01 0.03 -0.02 0.03 -0.02 0.03 -0.02 0.04 -0.01 0.03 -0.02 0.03 -0.02 0.03 -0.02 0.03 -0.01 0.04 -0.02 0.03 -0.02 0.03 -0.02 0.03 -0.02 0.03 -0.01 0.03 -0.02 0.03 -0.02 0.03 -0.02 0.03 -0.02 0.03 -0.02 0.04 -0.01 0.03 -0.02 0.03 -0.02 0.03 -0.02 0.03 -0.02 0.03 -0.02 0.03 -0.02 0.03 -0.02 0.03 -0.02 0.03 -0.02 0.03 -0.02 0.03 -0.02 0 0zm0 0c0.52,-0.33 1.21,-0.19 1.55,0.33 0.34,0.52 0.19,1.21 -0.33,1.55l-1.22 -1.88zm2.36 -2.05l1.71 1.44 0 0.01 -0.08 0.09 -0.08 0.09 -0.08 0.09 -0.08 0.08 -0.08 0.09 -0.08 0.09 -0.09 0.08 -0.08 0.09 -0.08 0.08 -0.09 0.08 -0.08 0.09 -0.09 0.08 -0.09 0.08 -0.08 0.08 -0.09 0.08 -0.09 0.08 -0.09 0.07 -0.09 0.08 -0.09 0.07 -0.09 0.08 -0.09 0.07 -0.1 0.08 -0.09 0.07 -0.09 0.07 -0.1 0.07 -0.09 0.07 -0.1 0.07 -0.1 0.07 -0.09 0.06 -0.1 0.07 -0.1 0.07 -0.1 0.06 -1.22 -1.88 0.08 -0.05 0.09 -0.06 0.08 -0.05 0.08 -0.06 0.08 -0.06 0.08 -0.05 0.08 -0.06 0.08 -0.06 0.08 -0.06 0.07 -0.06 0.08 -0.06 0.08 -0.06 0.07 -0.06 0.08 -0.07 0.08 -0.06 0.07 -0.07 0.07 -0.06 0.08 -0.07 0.07 -0.06 0.07 -0.07 0.07 -0.07 0.07 -0.06 0.07 -0.07 0.07 -0.07 0.07 -0.07 0.07 -0.07 0.07 -0.07 0.07 -0.08 0.06 -0.07 0.07 -0.07 0.06 -0.08 0.07 -0.07 -0.01 0.01zm0.01 -0.01c0.4,-0.47 1.11,-0.52 1.58,-0.12 0.47,0.4 0.52,1.11 0.12,1.58l-1.7 -1.46zm1.81 1.32l-0.11 0.13 -1.71 -1.44 0.11 -0.13 1.72 1.44 -0.01 0zm-1.71 -1.44c0.4,-0.47 1.11,-0.53 1.58,-0.14 0.47,0.4 0.53,1.11 0.13,1.58l-1.71 -1.44zm1.56 -2.55l2.06 0.9 0 0 -0.05 0.11 -0.05 0.1 -0.05 0.11 -0.05 0.1 -0.05 0.11 -0.05 0.1 -0.05 0.11 -0.05 0.1 -0.06 0.1 -0.05 0.1 -0.06 0.1 -0.05 0.1 -0.06 0.1 -0.06 0.1 -0.06 0.1 -0.06 0.09 -0.06 0.1 -0.06 0.09 -0.06 0.1 -0.06 0.09 -0.06 0.1 -0.07 0.09 -0.06 0.09 -0.07 0.09 -0.06 0.09 -0.07 0.09 -0.07 0.09 -0.06 0.09 -0.07 0.09 -0.07 0.08 -0.07 0.09 -0.07 0.09 -1.72 -1.44 0.05 -0.07 0.06 -0.07 0.06 -0.07 0.06 -0.07 0.05 -0.07 0.06 -0.08 0.05 -0.07 0.06 -0.08 0.05 -0.07 0.05 -0.08 0.05 -0.07 0.06 -0.08 0.05 -0.08 0.05 -0.08 0.05 -0.07 0.05 -0.08 0.05 -0.08 0.04 -0.08 0.05 -0.09 0.05 -0.08 0.05 -0.08 0.04 -0.08 0.05 -0.09 0.04 -0.08 0.04 -0.08 0.05 -0.09 0.04 -0.09 0.04 -0.08 0.04 -0.09 0.04 -0.09 0.04 -0.09 0.04 -0.08 0 -0.01zm0 0.01c0.25,-0.57 0.91,-0.83 1.48,-0.58 0.56,0.24 0.82,0.9 0.58,1.47l-2.06 -0.89zm0.3 -0.77l2.12 0.74 0 0 -0.01 0.03 -0.01 0.03 -0.01 0.03 -0.01 0.03 -0.01 0.03 -0.02 0.02 -0.01 0.03 -0.01 0.03 -0.01 0.03 -0.01 0.03 -0.01 0.03 -0.01 0.03 -0.01 0.03 -0.01 0.03 -0.01 0.03 -0.02 0.03 -0.01 0.02 -0.01 0.03 -0.01 0.03 -0.01 0.03 -0.01 0.03 -0.01 0.03 -0.02 0.03 -0.01 0.02 -0.01 0.03 -0.01 0.03 -0.01 0.03 -0.02 0.03 -0.01 0.02 -0.01 0.03 -0.01 0.03 -0.01 0.03 -2.06 -0.9 0.01 -0.02 0.01 -0.02 0.01 -0.02 0.01 -0.03 0.01 -0.02 0.01 -0.03 0.01 -0.02 0.01 -0.02 0.01 -0.03 0.01 -0.02 0.01 -0.02 0.01 -0.03 0.01 -0.02 0.01 -0.03 0.01 -0.02 0.01 -0.02 0.01 -0.03 0.01 -0.02 0.01 -0.03 0.01 -0.02 0.01 -0.02 0.01 -0.03 0 -0.02 0.01 -0.03 0.01 -0.02 0.01 -0.03 0.01 -0.02 0.01 -0.03 0.01 -0.02 0.01 -0.02 0.01 -0.03 0 -0.02 0 0zm0 0c0.21,-0.59 0.85,-0.89 1.43,-0.69 0.58,0.2 0.89,0.84 0.69,1.43l-2.12 -0.74zm0.18 -0.56l2.15 0.64 0 0 -0.01 0.04 -0.02 0.04 -0.01 0.04 -0.01 0.05 -0.01 0.04 -0.02 0.04 -0.01 0.04 -0.01 0.04 -0.02 0.04 -0.01 0.04 -0.01 0.04 -0.02 0.04 -0.01 0.04 -0.01 0.04 -0.02 0.05 -0.01 0.04 -2.12 -0.74 0.02 -0.04 0.01 -0.03 0.01 -0.03 0.01 -0.04 0.01 -0.03 0.01 -0.03 0.01 -0.04 0.01 -0.03 0.02 -0.04 0.01 -0.03 0.01 -0.04 0.01 -0.03 0.01 -0.04 0.01 -0.03 0.01 -0.04 0.01 -0.04 0 0zm0 0c0.18,-0.59 0.8,-0.93 1.39,-0.75 0.6,0.17 0.93,0.8 0.76,1.39l-2.15 -0.64zm1.4 -4.33l1.92 1.14 0 0 -0.03 0.06 -0.04 0.07 -0.04 0.08 -0.04 0.08 -0.03 0.09 -0.04 0.09 -0.04 0.09 -0.04 0.1 -0.03 0.11 -0.04 0.11 -0.04 0.11 -0.03 0.11 -0.04 0.12 -0.03 0.12 -0.04 0.13 -0.03 0.12 -0.04 0.13 -0.03 0.13 -0.04 0.13 -0.03 0.14 -0.07 0.27 -0.07 0.28 -0.04 0.15 -0.03 0.14 -0.04 0.14 -0.04 0.15 -0.04 0.14 -0.04 0.15 -0.04 0.14 -0.04 0.15 -2.15 -0.64 0.04 -0.12 0.03 -0.13 0.04 -0.14 0.04 -0.13 0.03 -0.13 0.04 -0.14 0.03 -0.14 0.04 -0.13 0.07 -0.28 0.07 -0.28 0.04 -0.14 0.03 -0.14 0.04 -0.14 0.04 -0.15 0.03 -0.14 0.04 -0.14 0.04 -0.13 0.05 -0.14 0.04 -0.14 0.04 -0.14 0.05 -0.14 0.05 -0.13 0.05 -0.14 0.05 -0.13 0.06 -0.13 0.05 -0.13 0.06 -0.13 0.07 -0.13 0.07 -0.13 0.07 -0.12 0 0zm0 0c0.31,-0.54 1,-0.71 1.53,-0.4 0.53,0.32 0.71,1.01 0.39,1.54l-1.92 -1.14zm0.9 -1.02l1.3 1.82 0 0.01 -0.01 0 0 0 -0.01 0.01 -0.01 0 0 0.01 -0.01 0.01 -0.01 0 -0.01 0.01 0 0.01 -0.01 0 -0.01 0.01 -0.01 0.01 0 0.01 -0.01 0.01 -0.01 0 -0.01 0.02 -0.01 0.01 -0.01 0.01 -0.01 0.01 -0.01 0.01 -0.01 0.01 0 0.01 -0.02 0.02 0 0.01 -0.01 0.02 -0.01 0.01 -0.01 0.01 -0.01 0.02 -0.01 0.02 -0.01 0.01 -0.01 0.02 -0.02 0.02 -1.92 -1.14 0.02 -0.04 0.02 -0.03 0.02 -0.04 0.02 -0.03 0.03 -0.04 0.02 -0.03 0.02 -0.04 0.03 -0.03 0.02 -0.04 0.03 -0.03 0.02 -0.03 0.03 -0.04 0.02 -0.03 0.03 -0.03 0.03 -0.04 0.02 -0.03 0.03 -0.03 0.03 -0.03 0.03 -0.03 0.03 -0.03 0.03 -0.04 0.03 -0.03 0.03 -0.03 0.04 -0.03 0.03 -0.03 0.03 -0.03 0.03 -0.03 0.04 -0.02 0.04 -0.03 0.03 -0.03 0.04 -0.03 0.03 -0.02 0 0zm0 0c0.51,-0.36 1.21,-0.24 1.57,0.27 0.35,0.5 0.23,1.2 -0.27,1.56l-1.3 -1.83zm6.61 2.71l-2.2 0.42 -0.04 -0.21 -0.06 -0.19 -0.06 -0.16 -0.07 -0.15 -0.07 -0.13 -0.08 -0.11 -0.08 -0.1 -0.09 -0.08 -0.08 -0.08 -0.1 -0.07 -0.1 -0.06 -0.1 -0.06 -0.11 -0.04 -0.12 -0.04 -0.12 -0.04 -0.12 -0.03 -0.14 -0.02 -0.13 -0.01 -0.13 -0.01 -0.14 0 -0.14 0.01 -0.13 0.01 -0.13 0.02 -0.13 0.02 -0.12 0.02 -0.11 0.03 -0.11 0.04 -0.09 0.03 -0.08 0.03 -0.06 0.03 -0.05 0.03 -0.02 0.01 -1.3 -1.82 0.17 -0.11 0.17 -0.1 0.18 -0.08 0.18 -0.08 0.19 -0.07 0.2 -0.06 0.21 -0.05 0.21 -0.05 0.22 -0.04 0.23 -0.03 0.23 -0.02 0.24 -0.01 0.24 0 0.25 0.02 0.25 0.02 0.25 0.04 0.26 0.06 0.25 0.07 0.26 0.09 0.25 0.11 0.26 0.13 0.24 0.16 0.24 0.17 0.23 0.2 0.21 0.22 0.2 0.25 0.18 0.26 0.17 0.29 0.14 0.3 0.12 0.33 0.1 0.34 0.08 0.35zm0 0c0.12,0.61 -0.28,1.2 -0.89,1.31 -0.61,0.12 -1.19,-0.28 -1.31,-0.89l2.2 -0.42z"/>
  </g>
  <g>
   <path fill="#6C949E" fill-rule="nonzero" d="M4.2 57.36c0,-1.24 1.01,-2.24 2.24,-2.24 1.24,0 2.24,1 2.24,2.24l-4.48 0zm0 8.43l0 -8.43 4.48 0 0 8.43 0 0 -4.48 0zm4.48 0c0,1.24 -1,2.24 -2.24,2.24 -1.23,0 -2.24,-1 -2.24,-2.24l4.48 0zm6.68 6.67l0 4.48 0 0 -0.57 -0.01 -0.57 -0.04 -0.56 -0.08 -0.54 -0.09 -0.54 -0.13 -0.53 -0.15 -0.52 -0.18 -0.51 -0.2 -0.49 -0.22 -0.48 -0.25 -0.47 -0.27 -0.45 -0.29 -0.44 -0.31 -0.42 -0.33 -0.4 -0.35 -0.39 -0.37 -0.37 -0.39 -0.35 -0.4 -0.33 -0.42 -0.31 -0.44 -0.29 -0.45 -0.27 -0.47 -0.25 -0.48 -0.22 -0.49 -0.2 -0.51 -0.18 -0.52 -0.15 -0.53 -0.13 -0.54 -0.1 -0.55 -0.07 -0.55 -0.04 -0.57 -0.02 -0.57 4.48 0 0.01 0.34 0.03 0.34 0.04 0.33 0.06 0.33 0.08 0.32 0.09 0.31 0.1 0.31 0.12 0.31 0.13 0.29 0.15 0.29 0.16 0.28 0.18 0.27 0.18 0.26 0.2 0.25 0.21 0.25 0.23 0.23 0.23 0.22 0.24 0.21 0.26 0.2 0.26 0.19 0.27 0.18 0.28 0.16 0.29 0.14 0.29 0.14 0.31 0.12 0.3 0.1 0.32 0.09 0.32 0.08 0.33 0.06 0.33 0.04 0.34 0.02 0.34 0.01 0 0zm0 0c1.24,0 2.24,1.01 2.24,2.24 0,1.24 -1,2.24 -2.24,2.24l0 -4.48zm7.96 4.48l-7.96 0 0 -4.48 7.96 0 0 4.48zm0 -4.48c1.23,0 2.24,1.01 2.24,2.24 0,1.24 -1.01,2.24 -2.24,2.24l0 -4.48zm50.88 -46.87c0,1.24 -1,2.24 -2.24,2.24 -1.24,0 -2.24,-1 -2.24,-2.24l4.48 0zm0 -8.8l0 8.8 -4.48 0 0 -8.8 0 0 4.48 0zm-4.48 0c0,-1.23 1,-2.24 2.24,-2.24 1.24,0 2.24,1.01 2.24,2.24l-4.48 0zm-6.67 -6.67l0 -4.48 0 0 0.57 0.01 0.56 0.05 0.56 0.07 0.55 0.1 0.54 0.12 0.53 0.15 0.52 0.18 0.5 0.2 0.5 0.23 0.48 0.24 0.46 0.27 0.46 0.29 0.43 0.31 0.42 0.34 0.41 0.35 0.39 0.36 0.36 0.39 0.35 0.41 0.34 0.42 0.31 0.43 0.29 0.46 0.27 0.46 0.24 0.48 0.23 0.5 0.2 0.5 0.17 0.52 0.16 0.53 0.12 0.54 0.1 0.55 0.07 0.56 0.04 0.56 0.02 0.57 -4.48 0 -0.01 -0.34 -0.03 -0.34 -0.04 -0.33 -0.06 -0.33 -0.07 -0.32 -0.09 -0.31 -0.11 -0.31 -0.12 -0.3 -0.13 -0.3 -0.15 -0.28 -0.16 -0.28 -0.17 -0.28 -0.19 -0.26 -0.2 -0.25 -0.21 -0.24 -0.22 -0.24 -0.24 -0.22 -0.24 -0.21 -0.25 -0.2 -0.26 -0.19 -0.28 -0.17 -0.28 -0.16 -0.28 -0.15 -0.3 -0.13 -0.3 -0.12 -0.31 -0.11 -0.31 -0.09 -0.32 -0.07 -0.33 -0.06 -0.33 -0.04 -0.34 -0.03 -0.34 -0.01 0 0zm0 0c-1.24,0 -2.24,-1 -2.24,-2.24 0,-1.24 1,-2.24 2.24,-2.24l0 4.48zm-7.96 -4.48l7.96 0 0 4.48 -7.96 0 0 -4.48zm0 4.48c-1.24,0 -2.24,-1 -2.24,-2.24 0,-1.24 1,-2.24 2.24,-2.24l0 4.48zm-31.77 -4.48c1.23,0 2.24,1 2.24,2.24 0,1.24 -1.01,2.24 -2.24,2.24l0 -4.48zm-7.96 0l7.96 0 0 4.48 -7.96 0 0 0 0 -4.48zm0 4.48c-1.24,0 -2.24,-1 -2.24,-2.24 0,-1.24 1,-2.24 2.24,-2.24l0 4.48zm-6.68 6.67l-4.48 0 0 0 0.02 -0.57 0.04 -0.56 0.07 -0.56 0.1 -0.55 0.13 -0.54 0.15 -0.53 0.18 -0.52 0.2 -0.5 0.22 -0.5 0.25 -0.48 0.27 -0.46 0.29 -0.46 0.31 -0.43 0.33 -0.42 0.35 -0.41 0.37 -0.39 0.39 -0.36 0.4 -0.35 0.42 -0.34 0.44 -0.31 0.45 -0.29 0.47 -0.27 0.48 -0.24 0.49 -0.23 0.51 -0.2 0.52 -0.18 0.53 -0.15 0.54 -0.12 0.54 -0.1 0.56 -0.07 0.57 -0.05 0.57 -0.01 0 4.48 -0.34 0.01 -0.34 0.03 -0.33 0.04 -0.33 0.06 -0.32 0.07 -0.32 0.09 -0.31 0.11 -0.3 0.12 -0.29 0.13 -0.29 0.15 -0.28 0.16 -0.27 0.17 -0.26 0.19 -0.26 0.2 -0.24 0.21 -0.23 0.22 -0.23 0.24 -0.21 0.24 -0.2 0.25 -0.18 0.27 -0.18 0.27 -0.16 0.28 -0.15 0.28 -0.13 0.3 -0.12 0.3 -0.1 0.31 -0.09 0.31 -0.08 0.32 -0.06 0.33 -0.04 0.33 -0.03 0.34 -0.01 0.34 0 0zm0 0c0,1.24 -1,2.24 -2.24,2.24 -1.23,0 -2.24,-1 -2.24,-2.24l4.48 0zm-4.48 8.8l0 -8.8 4.48 0 0 8.8 -4.48 0zm4.48 0c0,1.24 -1,2.24 -2.24,2.24 -1.23,0 -2.24,-1 -2.24,-2.24l4.48 0z"/>
  </g>
  <path fill="url(#id0)" d="M70.99 38.11c-1.37,0.51 -2.36,3.38 -3.36,4.48 -0.81,0.89 -1.67,0.75 -3.12,0.76 -1.48,0.01 -2.44,0.19 -3.25,-0.76 -0.87,-1.02 -2.19,-4.13 -3.52,-4.42 -0.97,-0.22 -2.23,0.51 -3.03,0.85 -0.96,0.4 -2.12,0.74 -2.64,1.38 -1.25,1.51 0.86,4.55 0.53,6.45 -0.2,1.12 -1.14,1.68 -1.67,2.23 -0.56,0.6 -1.17,1.55 -2.32,1.71 -1.93,0.25 -4.92,-1.74 -6.42,-0.39 -0.5,0.44 -0.93,1.84 -1.26,2.65 -0.36,0.9 -1.08,2.12 -0.74,3.16 0.41,1.22 3.47,2.44 4.48,3.33 0.85,0.75 0.76,1.72 0.76,3.12 0.02,3.35 -0.14,2.88 -3.11,4.79 -2.6,1.67 -2.56,1.9 -1.22,5.01 0.41,0.96 0.72,2.08 1.39,2.64 1.45,1.24 4.61,-0.88 6.51,-0.51 1.07,0.21 1.7,1.18 2.24,1.7 0.61,0.58 1.53,1.18 1.64,2.37 0.18,1.92 -1.76,4.92 -0.33,6.38 0.45,0.45 1.95,0.94 2.67,1.23 0.9,0.37 2.09,1.09 3.16,0.67 1.25,-0.49 2.32,-3.49 3.3,-4.5 0.81,-0.83 1.79,-0.68 3.19,-0.7 3.08,-0.04 2.85,0.17 4.72,3.18 1.67,2.69 2.03,2.38 5.04,1.12 0.96,-0.39 2.11,-0.77 2.6,-1.43 1.1,-1.47 -0.83,-4.5 -0.58,-6.28 0.16,-1.2 1,-1.64 1.61,-2.27 0.54,-0.55 1.2,-1.55 2.28,-1.74 1.87,-0.34 4.95,1.69 6.45,0.4 0.59,-0.51 0.99,-1.77 1.3,-2.6 0.32,-0.85 1.09,-2.12 0.8,-3.14 -0.36,-1.31 -3.38,-2.48 -4.44,-3.38 -0.87,-0.74 -0.82,-1.62 -0.82,-3.06 -0.01,-1.38 -0.19,-2.51 0.68,-3.31 1.01,-0.91 4.11,-2.2 4.47,-3.47 0.34,-1.21 -1.71,-5.32 -2.16,-5.71 -1.5,-1.33 -4.52,0.75 -6.45,0.47 -1.15,-0.17 -1.73,-1.12 -2.29,-1.67 -0.58,-0.56 -1.54,-1.21 -1.69,-2.32 -0.26,-1.95 1.75,-4.96 0.38,-6.42 -0.31,-0.32 -4.59,-2.43 -5.78,-2zm-7.5 14.23c-5.26,0.64 -9.82,5.3 -9.07,11.4 0.65,5.28 5.31,9.71 11.4,9.01 5.17,-0.59 9.76,-5.35 9.02,-11.4 -0.65,-5.24 -5.37,-9.73 -11.35,-9.01z"/>
 </g>
</svg>
