<?xml version="1.0" encoding="UTF-8"?>
<!DOCTYPE svg PUBLIC "-//W3C//DTD SVG 1.0//EN" "http://www.w3.org/TR/2001/REC-SVG-20010904/DTD/svg10.dtd">
<!-- Creator: CorelDRAW -->
<svg xmlns="http://www.w3.org/2000/svg" xml:space="preserve" width="199px" height="199px" version="1.0" shape-rendering="geometricPrecision" text-rendering="geometricPrecision" image-rendering="optimizeQuality" fill-rule="evenodd" clip-rule="evenodd"
viewBox="0 0 2.83 2.83"
 xmlns:xlink="http://www.w3.org/1999/xlink"
 xmlns:xodm="http://www.corel.com/coreldraw/odm/2003">
 <g id="Layer_x0020_1">
  <metadata id="CorelCorpID_0Corel-Layer"/>
  <g id="_2218850379232">
   <g>
    <g>
     <path fill="#1FAB26" fill-rule="nonzero" d="M2.09 1.53c0.03,0 0.04,0.01 0.04,0.04 0,0.02 -0.01,0.04 -0.04,0.04l0 -0.08zm-0.12 0.04l0.06 -0.06 -0.01 0 0.01 0 0 0 0 0.01 0 0 0.01 0 0 0 0 0 0 0 0 0 0 0 0 0 0.01 0 0 0 0 0.01 0 0 0 0 0 0 0 0 0 0 0 0 0 0 0.01 0 0 0 0 0 0.01 0 0.01 0 0 0 0 0 0.01 0 0 0 0 0.08 0 0 0 0 -0.01 0 0 0 -0.01 0 -0.01 0 0 0 0 0 -0.01 0 0 0 0 0 -0.01 0 0 0 0 0 -0.01 -0.01 0 0 -0.01 0 0 0 -0.01 0 0 0 0 0 -0.01 -0.01 0 0 0 0 -0.01 0 0 -0.01 -0.01 0 0 0 0 0 -0.01 -0.01 0 0zm0 0c-0.02,-0.01 -0.02,-0.04 0,-0.05 0.01,-0.02 0.03,-0.02 0.05,-0.01l-0.05 0.06zm-0.03 -0.05l0.08 -0.02 0 0 0 0 0 0 0 0 0 0 0 0 0 0 0 0 0 0 0 0 0 0 0 0.01 0 0 0 0 0 0 0 0 0 0 0 0 0 0 0 0 0 0 0 0 0 0 0 0 0 0 0 0 0.01 0 0 0 0 0 0 0 0 0 0 0 0 0 -0.06 0.06 0 0 0 0 -0.01 0 0 -0.01 0 0 0 0 0 0 0 0 0 0 0 0 0 0 0 -0.01 -0.01 0 0 0 0 0 0 0 0 0 0 0 0 -0.01 0 0 0 0 0 0 0 0 0 0 0 0 -0.01 -0.01 0 0 0 0 0 0 0 0 0 0 0 -0.01 0 0zm0 0c-0.01,-0.02 0,-0.04 0.03,-0.05 0.02,0 0.04,0.01 0.05,0.03l-0.08 0.02zm-0.02 -0.2l0.08 0 0 0 0 0.01 0 0 0 0.01 0 0.01 0 0.01 0 0 0 0.01 0 0.01 0 0 0 0.01 0 0.01 0.01 0 0 0.01 0 0.01 0 0 0 0.01 0 0 0 0.01 0 0 0 0.01 0 0 0 0.01 0 0 0 0.01 0 0 0 0.01 0 0 0 0 0 0.01 0.01 0 0 0 0 0.01 -0.08 0.02 0 0 0 -0.01 0 0 0 -0.01 -0.01 0 0 -0.01 0 0 0 -0.01 0 0 0 -0.01 0 -0.01 0 0 0 -0.01 0 0 0 -0.01 0 -0.01 0 0 -0.01 -0.01 0 -0.01 0 0 0 -0.01 0 -0.01 0 0 0 -0.01 0 -0.01 0 -0.01 0 0 0 -0.01 0 -0.01 0 0 0 -0.01 0 -0.01 0 0zm0 0c0,-0.02 0.02,-0.04 0.04,-0.04 0.03,0 0.04,0.02 0.04,0.04l-0.08 0zm-0.07 -0.46l0.07 -0.04 0 0 0.01 0.01 0 0.02 0.01 0.01 0.01 0.02 0 0.01 0.01 0.02 0.01 0.02 0 0.01 0 0.02 0.01 0.01 0 0.02 0.01 0.02 0 0.01 0 0.02 0 0.01 0 0.02 0.01 0.02 0 0.01 0 0.02 0 0.02 0 0.01 0 0.02 0 0.01 0 0.02 0 0.02 0 0.01 0 0.02 0 0.01 0 0.02 0 0.01 0 0.02 0 0.01 -0.08 0 0 -0.01 0 -0.02 0 -0.01 0 -0.02 0 -0.01 0 -0.02 0 -0.01 0 -0.02 0 -0.01 0 -0.02 0 -0.01 0 -0.02 0 -0.01 0 -0.02 0 -0.01 -0.01 -0.02 0 -0.01 0 -0.02 0 -0.01 0 -0.02 -0.01 -0.01 0 -0.02 0 -0.01 -0.01 -0.02 0 -0.01 -0.01 -0.01 0 -0.02 -0.01 -0.01 0 -0.01 -0.01 -0.02 0 -0.01 -0.01 -0.01 0 0zm0 0c-0.01,-0.02 -0.01,-0.05 0.01,-0.06 0.02,-0.01 0.05,0 0.06,0.02l-0.07 0.04zm-0.63 -0.23l-0.02 -0.07 0 0 0.02 -0.01 0.03 -0.01 0.03 -0.01 0.02 0 0.03 -0.01 0.03 0 0.02 0 0.03 0 0.02 0 0.03 0 0.02 0 0.03 0.01 0.03 0 0.02 0.01 0.02 0.01 0.03 0 0.02 0.01 0.02 0.01 0.03 0.02 0.02 0.01 0.02 0.01 0.02 0.01 0.02 0.02 0.02 0.02 0.02 0.01 0.02 0.02 0.02 0.02 0.02 0.02 0.01 0.02 0.02 0.02 0.01 0.02 0.02 0.03 -0.07 0.04 -0.01 -0.02 -0.02 -0.02 -0.01 -0.02 -0.01 -0.02 -0.02 -0.02 -0.02 -0.01 -0.01 -0.02 -0.02 -0.01 -0.02 -0.02 -0.01 -0.01 -0.02 -0.01 -0.02 -0.01 -0.02 -0.01 -0.02 -0.01 -0.02 -0.01 -0.02 -0.01 -0.02 -0.01 -0.02 0 -0.02 -0.01 -0.02 0 -0.03 -0.01 -0.02 0 -0.02 0 -0.02 0 -0.03 0 -0.02 0 -0.02 0 -0.02 0.01 -0.03 0 -0.02 0.01 -0.02 0 -0.03 0.01 0 0zm0 0c-0.02,0.01 -0.04,0 -0.05,-0.02 -0.01,-0.02 0.01,-0.05 0.03,-0.05l0.02 0.07zm-0.27 0.26l-0.08 -0.04 0 0 0.01 -0.01 0 -0.01 0.01 0 0.01 -0.01 0 -0.01 0.01 -0.01 0 -0.02 0.01 -0.01 0.01 -0.01 0 -0.01 0.01 -0.01 0.01 -0.01 0.01 -0.01 0.01 -0.01 0.01 -0.01 0.01 -0.01 0.01 -0.01 0.01 -0.01 0.01 -0.01 0.01 -0.01 0.01 -0.01 0.01 -0.01 0.01 -0.01 0.02 0 0.01 -0.01 0.01 -0.01 0.02 -0.01 0.01 -0.01 0.02 0 0.01 -0.01 0.02 -0.01 0.02 0 0.02 0.07 -0.01 0.01 -0.02 0 -0.01 0.01 -0.01 0.01 -0.01 0 -0.02 0.01 -0.01 0.01 -0.01 0 -0.01 0.01 -0.01 0.01 -0.01 0.01 -0.01 0 -0.01 0.01 -0.01 0.01 -0.01 0.01 -0.01 0.01 0 0.01 -0.01 0 -0.01 0.01 -0.01 0.01 0 0.01 -0.01 0.01 -0.01 0.01 0 0.01 -0.01 0.01 0 0.01 -0.01 0.01 0 0.01 -0.01 0 0 0.01 -0.01 0.01 0 0.01 0 0zm0 0c-0.01,0.02 -0.04,0.03 -0.06,0.02 -0.02,-0.01 -0.03,-0.04 -0.02,-0.06l0.08 0.04zm-0.06 0.11l-0.07 -0.05 0 0 0.01 0 0 0 0 0 0 0 0 -0.01 0 0 0 0 0 0 0 -0.01 0.01 0 0 0 0 0 0 -0.01 0 -0.01 0.01 0 0 -0.01 0 -0.01 0.01 0 0 -0.01 0 0 0 -0.01 0.01 0 0 0 0 -0.01 0 0 0 -0.01 0.08 0.04 -0.01 0 0 0.01 0 0 0 0.01 0 0 -0.01 0 0 0.01 0 0 0 0.01 -0.01 0.01 0 0 0 0.01 -0.01 0 0 0.01 0 0 0 0.01 0 0 0 0 -0.01 0.01 0 0 0 0 0 0 0 0.01 0 0 -0.01 0 0 0.01 0 0zm0 0c-0.01,0.01 -0.03,0.02 -0.05,0.01 -0.02,-0.01 -0.03,-0.04 -0.02,-0.06l0.07 0.05zm-0.03 0.03l-0.04 -0.07 0 0 0 0 0 0 0 0 0 0 0 0 0 0 0 0 0 0 0 0 0 0 0 0 0 0 0 0 0 0 0 0 0 0 0 0 0 0 0 0 0 0 0 0 0 0 0 0 0 0 0 0 0 0 0 0 0 0 0 0 0 -0.01 0 0 0 0 0.07 0.05 0 0 0 0 0 0 0 0 0 0 0 0 0 0.01 0 0 -0.01 0 0 0 0 0 0 0 0 0 0 0 0 0.01 0 0 0 0 -0.01 0 0 0 0 0 0 0 0 0 0 0 0 0.01 0 0 0 0 -0.01 0 0 0 0 0 0 0 0 0 0 0 0 0zm0 0c-0.02,0.01 -0.05,0.01 -0.06,-0.01 -0.01,-0.02 0,-0.04 0.02,-0.06l0.04 0.07zm-0.16 -0.06l0.07 -0.04 0 0.01 0.01 0 0 0 0 0 0 0.01 0 0 0 0 0.01 0 0 0 0 0.01 0 0 0 0 0 0 0.01 0 0 0 0 0 0 0 0 0 0 0 0.01 0 0 0 0 0.01 0 0 0 0 0 0 0 -0.01 0 0 0 0 0 0 0 0 0 0 0.01 0 0.04 0.07 -0.01 0.01 0 0 -0.01 0 -0.01 0 0 0 -0.01 0.01 0 0 -0.01 0 -0.01 0 0 0 -0.01 -0.01 0 0 -0.01 0 0 0 -0.01 0 0 0 -0.01 -0.01 0 0 -0.01 0 0 -0.01 -0.01 0 0 0 -0.01 -0.01 0 0 -0.01 0 0 -0.01 0 0 -0.01 -0.01 0 0 0 -0.01 -0.01 0 0 -0.01zm0 0c-0.01,-0.02 0,-0.04 0.02,-0.05 0.02,-0.01 0.04,-0.01 0.05,0.01l-0.07 0.04zm1.45 0.41c0,0.03 -0.02,0.04 -0.04,0.04 -0.03,0 -0.04,-0.01 -0.04,-0.04l0.08 0zm0 0l0 0 -0.08 0 0 0 0 0 0.08 0zm-0.08 0c0,-0.02 0.01,-0.04 0.04,-0.04 0.02,0 0.04,0.02 0.04,0.04l-0.08 0zm-0.04 -0.47l0.08 -0.02 0 0 0 0.01 0.01 0.01 0 0.02 0.01 0.01 0 0.02 0 0.01 0 0.02 0.01 0.01 0 0.02 0 0.01 0 0.02 0 0.02 0 0.01 0.01 0.02 0 0.01 0 0.02 0 0.02 0 0.01 0 0.02 0 0.02 0 0.01 0 0.02 0 0.01 0 0.02 0 0.01 0 0.02 0 0.02 0 0.01 0 0.02 0 0.01 0 0.02 0 0.01 -0.08 0 0 -0.01 0 -0.02 0 -0.01 0 -0.02 0 -0.01 0 -0.02 0 -0.02 0 -0.01 0 -0.02 0 -0.01 0 -0.02 0 -0.01 0 -0.02 0 -0.02 0 -0.01 0 -0.02 0 -0.01 -0.01 -0.02 0 -0.01 0 -0.02 0 -0.01 0 -0.02 0 -0.01 0 -0.02 -0.01 -0.01 0 -0.01 0 -0.02 0 -0.01 -0.01 -0.01 0 -0.01 0 -0.02 -0.01 -0.01 0 0zm0 0c0,-0.02 0.01,-0.04 0.03,-0.05 0.02,-0.01 0.04,0 0.05,0.03l-0.08 0.02zm-0.36 -0.4l0.03 -0.07 0 0 0.02 0 0.02 0.01 0.02 0.01 0.02 0.01 0.01 0.01 0.02 0.01 0.02 0.01 0.01 0.01 0.02 0.02 0.01 0.01 0.02 0.01 0.01 0.01 0.02 0.02 0.01 0.01 0.01 0.02 0.02 0.01 0.01 0.01 0.01 0.02 0.01 0.01 0.01 0.02 0.02 0.02 0.01 0.01 0.01 0.02 0.01 0.02 0.01 0.01 0 0.02 0.01 0.02 0.01 0.01 0.01 0.02 0.01 0.02 0 0.02 0.01 0.02 -0.08 0.02 0 -0.01 -0.01 -0.02 -0.01 -0.02 0 -0.01 -0.01 -0.02 -0.01 -0.01 -0.01 -0.02 0 -0.01 -0.01 -0.02 -0.01 -0.01 -0.01 -0.02 -0.01 -0.01 -0.01 -0.02 -0.01 -0.01 -0.01 -0.01 -0.01 -0.02 -0.02 -0.01 -0.01 -0.01 -0.01 -0.01 -0.01 -0.02 -0.01 -0.01 -0.02 -0.01 -0.01 -0.01 -0.02 -0.01 -0.01 -0.01 -0.01 -0.01 -0.02 -0.01 -0.01 -0.01 -0.02 -0.01 -0.01 -0.01 -0.02 0 -0.02 -0.01 0 0zm0 0c-0.02,-0.01 -0.03,-0.03 -0.02,-0.05 0.01,-0.02 0.03,-0.03 0.05,-0.02l-0.03 0.07zm-0.46 -0.03l-0.02 -0.08 0 0 0.02 0 0.02 -0.01 0.02 0 0.01 0 0.02 -0.01 0.02 0 0.01 0 0.02 0 0.01 0 0.02 -0.01 0.02 0 0.01 0 0.02 0 0.01 0 0.02 0 0.01 0 0.02 0 0.01 0.01 0.02 0 0.01 0 0.02 0 0.01 0.01 0.02 0 0.02 0 0.01 0.01 0.02 0 0.01 0.01 0.02 0 0.01 0.01 0.02 0 0.02 0.01 0.01 0.01 -0.03 0.07 -0.01 -0.01 -0.02 0 -0.01 -0.01 -0.02 0 -0.01 -0.01 -0.02 0 -0.01 -0.01 -0.01 0 -0.02 0 -0.01 -0.01 -0.01 0 -0.02 0 -0.01 0 -0.02 0 -0.01 0 -0.01 -0.01 -0.02 0 -0.01 0 -0.01 0 -0.02 0 -0.01 0 -0.01 0.01 -0.02 0 -0.01 0 -0.02 0 -0.01 0 -0.02 0 -0.01 0.01 -0.02 0 -0.01 0 -0.02 0.01 -0.02 0 0 0zm0 0c-0.02,0.01 -0.04,-0.01 -0.05,-0.03 0,-0.02 0.01,-0.04 0.03,-0.05l0.02 0.08zm-0.4 0.35l-0.07 -0.03 0 -0.02 0.01 -0.02 0.01 -0.01 0.01 -0.02 0.01 -0.02 0.01 -0.01 0.01 -0.02 0.01 -0.01 0.01 -0.02 0.02 -0.01 0.01 -0.02 0.01 -0.01 0.02 -0.02 0.01 -0.01 0.02 -0.02 0.01 -0.01 0.02 -0.01 0.01 -0.02 0.02 -0.01 0.02 -0.01 0.01 -0.01 0.02 -0.01 0.02 -0.01 0.01 -0.01 0.02 -0.01 0.02 -0.01 0.02 -0.01 0.01 0 0.02 -0.01 0.02 -0.01 0.02 0 0.01 -0.01 0.02 0.08 -0.01 0.01 -0.02 0 -0.01 0.01 -0.02 0 -0.01 0.01 -0.02 0 -0.01 0.01 -0.02 0.01 -0.01 0.01 -0.02 0.01 -0.01 0.01 -0.02 0.01 -0.01 0.01 -0.02 0.01 -0.01 0.01 -0.01 0.01 -0.02 0.01 -0.01 0.02 -0.01 0.01 -0.02 0.01 -0.01 0.01 -0.01 0.02 -0.01 0.01 -0.01 0.01 -0.01 0.02 -0.01 0.01 -0.01 0.02 -0.01 0.01 -0.01 0.02 -0.01 0.01 0 0.01 -0.01 0.02zm0 0c-0.01,0.02 -0.03,0.03 -0.05,0.02 -0.02,-0.01 -0.03,-0.03 -0.02,-0.05l0.07 0.03zm0.87 1.55c0.02,0.01 0.03,0.03 0.03,0.05 -0.01,0.02 -0.03,0.03 -0.05,0.03l0.02 -0.08zm0 0l0 0 -0.02 0.08 0 0 0.02 -0.08 0 0zm-0.02 0.08c-0.02,-0.01 -0.04,-0.03 -0.03,-0.05 0,-0.02 0.03,-0.03 0.05,-0.03l-0.02 0.08zm-0.13 -0.05l0.02 -0.08 0 0 0 0 0.01 0 0 0.01 0.01 0 0 0 0.01 0 0 0 0.01 0 0 0.01 0.01 0 0 0 0 0 0.01 0 0 0.01 0.01 0 0 0 0.01 0 0 0 0 0 0.01 0.01 0 0 0 0 0.01 0 0 0 0.01 0 0 0 0 0.01 0.01 0 0 0 0 0 0 0 0.01 0 -0.02 0.08 0 0 -0.01 0 0 0 -0.01 -0.01 0 0 -0.01 0 0 0 -0.01 0 0 0 -0.01 -0.01 0 0 0 0 -0.01 0 0 0 -0.01 0 0 -0.01 0 0 -0.01 0 0 0 -0.01 0 0 -0.01 -0.01 0 0 0 0 0 -0.01 0 0 0 0 0 -0.01 -0.01 0 0 -0.01 0 0 0 0 0 0 0zm0 0c-0.02,-0.01 -0.04,-0.03 -0.03,-0.05 0,-0.02 0.02,-0.03 0.05,-0.03l-0.02 0.08zm-0.13 -0.02l0 -0.08 0 0 0.01 0 0 0 0.01 0 0 0 0.01 0 0 0 0.01 0 0 0 0.01 0 0 0 0.01 0 0 0 0.01 0 0 0 0.01 0 0 0 0 0.01 0.01 0 0 0 0.01 0 0 0 0.01 0 0 0 0 0 0.01 0.01 0.01 0 0 0 0.01 0 0 0 0.01 0 -0.02 0.08 -0.01 0 0 0 -0.01 0 0 0 -0.01 -0.01 -0.01 0 0 0 0 0 -0.01 0 0 0 -0.01 0 0 0 0 -0.01 -0.01 0 0 0 0 0 -0.01 0 0 0 0 0 -0.01 0 0 0 -0.01 0 0 0 0 0 -0.01 0 0 0 0 0 -0.01 0 0 0 -0.01 0 0 0zm0 0c-0.02,0 -0.04,-0.02 -0.04,-0.04 0,-0.03 0.02,-0.04 0.04,-0.04l0 0.08zm-0.25 0.05l-0.03 -0.08 0.01 0 0.01 0 0.01 -0.01 0.01 0 0.01 -0.01 0 0 0.01 0 0.01 -0.01 0.01 0 0.01 0 0 0 0.01 -0.01 0.01 0 0.01 0 0 0 0.01 0 0.01 0 0.01 -0.01 0 0 0.01 0 0.01 0 0.01 0 0.01 0 0.01 0 0.01 0 0 0 0.01 0 0.02 0 0.01 0 0.01 0 0.01 0 0.01 0 0 0.08 -0.01 0 -0.01 0 -0.01 0 -0.01 0 -0.01 0 -0.01 0 -0.01 0 -0.01 0 -0.01 0 0 0 -0.01 0 -0.01 0 0 0 -0.01 0 -0.01 0 0 0.01 -0.01 0 0 0 -0.01 0 -0.01 0 0 0 -0.01 0.01 0 0 -0.01 0 -0.01 0 -0.01 0.01 -0.01 0 0 0 -0.01 0.01 -0.01 0 -0.01 0 -0.01 0.01zm0 0c-0.02,0.01 -0.05,0 -0.06,-0.02 -0.01,-0.02 0,-0.05 0.03,-0.06l0.03 0.08zm0.66 -0.14c0.02,0.01 0.03,0.03 0.02,0.05 0,0.02 -0.03,0.03 -0.05,0.02l0.03 -0.07zm0 0l0 0 -0.03 0.07 0 0 0.03 -0.07 0 0zm-0.03 0.07c-0.02,-0.01 -0.03,-0.03 -0.02,-0.05 0.01,-0.02 0.03,-0.03 0.05,-0.02l-0.03 0.07zm-0.21 -0.09l0.04 -0.06 0 0 0.01 0 0 0 0.01 0.01 0.01 0 0 0 0.01 0 0 0.01 0.01 0 0.01 0 0 0.01 0.01 0 0 0 0.01 0 0.01 0 0 0.01 0.01 0 0 0 0.01 0 0.01 0.01 0 0 0.01 0 0.02 0.01 0 0 0.01 0 0.01 0 0 0.01 0.01 0 0.01 0 0 0 0.01 0.01 -0.03 0.07 -0.01 0 0 0 -0.01 -0.01 0 0 -0.01 0 -0.01 0 0 0 -0.01 -0.01 -0.01 0 -0.01 -0.01 -0.01 0 -0.01 0 0 0 -0.01 0 -0.01 -0.01 0 0 -0.01 0 -0.01 0 0 -0.01 -0.01 0 -0.01 0 0 -0.01 -0.01 0 -0.01 0 0 -0.01 -0.01 0 -0.01 0 -0.01 -0.01 0 0 -0.01 -0.01 0 0zm0 0c-0.02,-0.01 -0.03,-0.03 -0.01,-0.05 0.01,-0.02 0.03,-0.03 0.05,-0.01l-0.04 0.06zm-0.1 -0.05l0.04 -0.07 0 0 0 0 0.01 0 0 0 0 0 0 0 0.01 0.01 0 0 0 0 0.01 0 0 0.01 0.01 0 0.01 0 0 0.01 0.01 0 0.01 0 0 0.01 0.01 0 0.01 0.01 0 0 0.01 0.01 -0.04 0.06 -0.01 0 0 0 -0.01 -0.01 -0.01 0 0 -0.01 -0.01 0 -0.01 0 0 -0.01 -0.01 0 -0.01 0 0 -0.01 -0.01 0 0 0 0 0 0 0 -0.01 0 0 -0.01 0 0 0 0 -0.01 0 0 0zm0 0c-0.02,-0.01 -0.02,-0.03 -0.01,-0.05 0.01,-0.02 0.03,-0.03 0.05,-0.02l-0.04 0.07zm-0.13 -0.01l-0.03 -0.07 0 0 0.01 0 0 0 0.01 -0.01 0 0 0.01 0 0 0 0.01 -0.01 0 0 0.01 0 0 0 0.01 0 0.01 0 0 0 0.01 -0.01 0 0 0.01 0 0.01 0 0 0 0.01 0 0.01 0.01 0 0 0.01 0 0 0 0.01 0 0.01 0 0.01 0.01 0 0 0.01 0 0.01 0.01 0 0 0.01 0 0.01 0.01 -0.04 0.07 0 0 -0.01 -0.01 -0.01 0 0 0 -0.01 -0.01 0 0 -0.01 0 0 0 -0.01 0 0 0 -0.01 0 0 0 0 0 0 -0.01 -0.01 0 0 0 0 0 0 0 -0.01 0.01 0 0 0 0 -0.01 0 0 0 0 0 0 0 -0.01 0 0 0 -0.01 0 0 0.01 -0.01 0 0 0 -0.01 0 0 0zm0 0c-0.02,0.01 -0.04,0 -0.05,-0.02 -0.01,-0.02 0,-0.04 0.02,-0.05l0.03 0.07zm-0.16 0.07l-0.02 -0.08 0 0 0 0 0.01 0 0.01 -0.01 0 0 0.01 0 0.01 0 0 0 0.01 -0.01 0 0 0.01 0 0 0 0.01 0 0 -0.01 0.01 0 0 0 0.01 0 0 0 0.01 -0.01 0 0 0.01 0 0 0 0 0 0.01 -0.01 0 0 0.01 0 0 0 0 0 0.01 0 0 -0.01 0.01 0 0.03 0.07 0 0.01 -0.01 0 0 0 -0.01 0 0 0 0 0.01 -0.01 0 0 0 -0.01 0 0 0 -0.01 0.01 0 0 -0.01 0 0 0 -0.01 0 0 0.01 -0.01 0 0 0 -0.01 0 0 0.01 -0.01 0 -0.01 0 0 0 -0.01 0 -0.01 0.01 0 0 -0.01 0 -0.01 0 0 0 -0.01 0.01 0 0zm0 0c-0.02,0 -0.05,-0.01 -0.05,-0.03 -0.01,-0.02 0,-0.04 0.03,-0.05l0.02 0.08zm-0.22 0.05l-0.01 -0.08 0.01 0 0 0 0.01 0 0 0 0.01 -0.01 0 0 0.01 0 0.01 0 0 0 0.01 0 0.01 0 0 0 0.01 -0.01 0.01 0 0 0 0.01 0 0.01 0 0 -0.01 0.01 0 0.01 0 0.01 0 0 0 0.01 0 0.01 -0.01 0.01 0 0.01 0 0.01 -0.01 0 0 0.01 0 0.01 0 0.02 0.08 -0.01 0 0 0 -0.01 0 -0.01 0 -0.01 0.01 -0.01 0 -0.01 0 -0.01 0.01 0 0 -0.01 0 -0.01 0 0 0 -0.01 0 -0.01 0.01 -0.01 0 0 0 -0.01 0 -0.01 0 -0.01 0.01 0 0 -0.01 0 -0.01 0 0 0 -0.01 0 -0.01 0 -0.01 0.01 0 0 -0.01 0 -0.01 0 0 0zm0 0c-0.02,0 -0.04,-0.02 -0.05,-0.04 0,-0.02 0.02,-0.04 0.04,-0.04l0.01 0.08zm0.97 -0.17c0.02,0.01 0.04,0.03 0.03,0.05 0,0.02 -0.02,0.04 -0.04,0.03l0.01 -0.08zm0 0l0 0 -0.01 0.08 -0.01 0 0.02 -0.08 0 0zm-0.02 0.08c-0.02,0 -0.03,-0.02 -0.03,-0.04 0.01,-0.03 0.03,-0.04 0.05,-0.04l-0.02 0.08zm-0.25 -0.08l0.04 -0.07 0 0 0.01 0 0 0.01 0.01 0 0.01 0 0 0.01 0.01 0 0.01 0 0 0 0.01 0.01 0.01 0 0.01 0 0 0.01 0.01 0 0.01 0 0 0 0.01 0 0.01 0.01 0.01 0 0 0 0.01 0 0.01 0 0 0.01 0.01 0 0.01 0 0.01 0 0 0 0.01 0.01 0.01 0 0.01 0 0 0 0.01 0 0.01 0 -0.02 0.08 0 0 -0.01 0 -0.01 0 -0.01 0 -0.01 -0.01 0 0 -0.01 0 -0.01 0 -0.01 0 -0.01 0 0 -0.01 -0.01 0 -0.01 0 -0.01 0 -0.01 -0.01 0 0 -0.01 0 -0.01 0 -0.01 -0.01 0 0 -0.01 0 -0.01 0 -0.01 -0.01 -0.01 0 0 0 -0.01 -0.01 -0.01 0 -0.01 0 0 -0.01 -0.01 0 -0.01 0 -0.01 -0.01 0 0zm0 0c-0.02,-0.01 -0.02,-0.03 -0.01,-0.05 0.01,-0.02 0.03,-0.03 0.05,-0.02l-0.04 0.07zm-0.12 -0.07l0.04 -0.07 0 0 0.01 0.01 0 0 0 0 0.01 0 0 0 0.01 0.01 0 0 0 0 0.01 0 0 0.01 0 0 0.01 0 0 0 0 0 0.01 0.01 0 0 0 0 0.01 0 0 0 0.01 0.01 0 0 0 0 0.01 0 0 0 0 0.01 0.01 0 0 0 0 0 0.01 0 0 0.01 0.01 0 0 0 -0.04 0.07 0 0 0 0 -0.01 0 0 -0.01 -0.01 0 0 0 0 0 -0.01 0 0 -0.01 -0.01 0 0 0 0 0 -0.01 0 0 -0.01 -0.01 0 0 0 0 0 -0.01 -0.01 0 0 -0.01 0 0 0 0 -0.01 -0.01 0 0 0 0 0 -0.01 0 0 -0.01 -0.01 0 0 0 0 0 -0.01 -0.01 0 0 0 0zm0 0c-0.02,-0.01 -0.03,-0.04 -0.01,-0.06 0.01,-0.01 0.03,-0.02 0.05,-0.01l-0.04 0.07zm-0.11 -0.08l0 -0.08 0.02 0 0.01 0 0 0.01 0.01 0 0 0 0 0 0.01 0.01 0 0 0.01 0 0 0.01 0.01 0 0 0 0 0 0.01 0.01 0 0 0.01 0 0 0.01 0.01 0 0.01 0.01 0.01 0.01 0 0 0.01 0 0 0.01 0.01 0 0 0 0 0.01 0.01 0 0 0 0 0 -0.04 0.07 -0.01 0 0 -0.01 0 0 -0.01 0 0 0 -0.01 -0.01 0 0 0 0 -0.01 -0.01 -0.01 -0.01 -0.01 0 -0.01 -0.01 0 0 -0.01 0 0 -0.01 0 0 -0.01 0 0 -0.01 0 0 -0.01 0 0 0 0 -0.01 -0.01 0 0 0 0 0 -0.01 0 0 0 0 -0.01 0.01 0.01zm-0.01 -0.01c-0.02,-0.01 -0.03,-0.03 -0.02,-0.05 0.01,-0.02 0.03,-0.03 0.05,-0.02l-0.03 0.07zm-0.11 0.07l-0.04 -0.07 0 0 0 -0.01 0.01 0 0 0 0.01 0 0 0 0 -0.01 0.01 0 0 0 0.01 -0.01 0.01 0 0 -0.01 0.01 0 0 0 0.01 0 0 -0.01 0.01 0 0 0 0.01 0 0 -0.01 0.01 0 0 0 0.01 0 0.01 -0.01 0 0 0.01 0 0.01 0 0 0 0.01 0 0.01 0 0 0 0 0.08 0 0 0 0 -0.01 0 0 0 0 0 -0.01 0 0 0 0 0 -0.01 0 0 0.01 0 0 -0.01 0 0 0 0 0 -0.01 0 0 0.01 -0.01 0 0 0 0 0 -0.01 0.01 -0.01 0 -0.01 0.01 0 0 0 0 -0.01 0.01 0 0 -0.01 0 0 0 -0.01 0.01 0 0 0 0zm0 0c-0.02,0.01 -0.05,0 -0.06,-0.02 -0.01,-0.02 0,-0.04 0.02,-0.05l0.04 0.07zm-0.15 0.06l-0.03 -0.08 0 0 0.01 0 0.01 -0.01 0 0 0.01 0 0 0 0.01 0 0 0 0.01 0 0 -0.01 0 0 0.01 0 0 0 0.01 0 0 0 0.01 -0.01 0 0 0.01 0 0 0 0 0 0.01 -0.01 0 0 0.01 0 0 0 0.01 0 0 0 0 -0.01 0.01 0 0 0 0.01 0 0 0 0.04 0.07 -0.01 0 0 0 -0.01 0.01 0 0 -0.01 0 0 0 -0.01 0 0 0.01 -0.01 0 0 0 -0.01 0 0 0 0 0.01 -0.01 0 0 0 -0.01 0 0 0 -0.01 0 0 0.01 -0.01 0 0 0 -0.01 0 0 0 -0.01 0 0 0.01 -0.01 0 0 0 -0.01 0 -0.01 0 0 0.01 0 0zm0 0c-0.03,0 -0.05,-0.01 -0.06,-0.03 0,-0.02 0.01,-0.04 0.03,-0.05l0.03 0.08zm-0.3 0.07l-0.01 -0.09 0.01 0 0 0 0.01 0 0.01 0 0.01 0 0.01 0 0.01 0 0.01 0 0 -0.01 0.01 0 0.01 0 0.01 0 0.01 0 0.01 -0.01 0.01 0 0.01 0 0.01 0 0.01 0 0.01 -0.01 0.01 0 0.01 0 0.01 0 0.01 -0.01 0 0 0.01 0 0.01 0 0.01 -0.01 0.01 0 0.01 0 0 0 0.01 -0.01 0.01 0 0.03 0.08 -0.01 0 -0.01 0 -0.01 0 -0.01 0.01 -0.01 0 0 0 -0.01 0.01 -0.01 0 -0.01 0 -0.01 0 -0.01 0.01 -0.01 0 -0.01 0 -0.01 0 -0.01 0.01 -0.01 0 -0.01 0 -0.01 0 -0.01 0.01 -0.01 0 -0.01 0 -0.01 0 -0.01 0 -0.01 0.01 -0.01 0 -0.01 0 -0.01 0 -0.01 0 -0.01 0 -0.01 0 -0.01 0 0 0.01zm0 0c-0.03,0 -0.05,-0.02 -0.05,-0.04 0,-0.02 0.02,-0.04 0.04,-0.05l0.01 0.09zm1.17 -0.2c0.02,0 0.04,0.02 0.04,0.04 0,0.02 -0.02,0.04 -0.04,0.04l0 -0.08zm-0.52 -0.14l0.06 -0.05 0.01 0.01 0.01 0.01 0.02 0.01 0.01 0.01 0.01 0.01 0.01 0.01 0.02 0.01 0.01 0.01 0.01 0.01 0.02 0 0.01 0.01 0.01 0.01 0.02 0.01 0.01 0.01 0.02 0 0.01 0.01 0.02 0 0.01 0.01 0.02 0.01 0.01 0 0.02 0.01 0.01 0 0.02 0 0.01 0.01 0.02 0 0.01 0 0.02 0 0.01 0.01 0.02 0 0.02 0 0.01 0 0.02 0 0 0.08 -0.02 0 -0.02 0 -0.02 0 -0.01 0 -0.02 -0.01 -0.02 0 -0.02 0 -0.02 0 -0.01 -0.01 -0.02 0 -0.02 -0.01 -0.01 0 -0.02 -0.01 -0.02 0 -0.01 -0.01 -0.02 -0.01 -0.02 0 -0.01 -0.01 -0.02 -0.01 -0.01 -0.01 -0.02 -0.01 -0.02 -0.01 -0.01 -0.01 -0.02 -0.01 -0.01 -0.01 -0.01 -0.01 -0.02 -0.01 -0.01 -0.01 -0.02 -0.01 -0.01 -0.01 -0.01 -0.01 -0.02 -0.02zm0 0c-0.01,-0.01 -0.01,-0.04 0,-0.05 0.02,-0.02 0.05,-0.02 0.06,0l-0.06 0.05zm-0.73 0.19c-0.02,0.01 -0.04,-0.01 -0.05,-0.03 -0.01,-0.02 0,-0.04 0.02,-0.05l0.03 0.08zm0 -0.09l0.02 0.08 0 0 0 0 -0.01 0 0 0 0 0 0 0.01 0 0 0 0 0 0 0 0 0 0 -0.01 0 0 0 0 0 0 0 0 0 0 0 -0.03 -0.08 0.01 0 0 0 0 0 0 0 0 0 0 0 0.01 0 0 0 0 0 0 0 0 0 0 0 0 0 0.01 0 0 0 0 -0.01 0 0zm0 0c0.02,0 0.04,0.01 0.05,0.04 0,0.02 -0.01,0.04 -0.03,0.04l-0.02 -0.08zm0.15 -0.02l0.01 0.08 0 0 0 0 0 0 -0.01 0 0 0 -0.01 0 0 0 -0.01 0 0 0 -0.01 0.01 -0.01 0 -0.01 0 -0.01 0 -0.01 0 -0.01 0 0 0 -0.01 0.01 0 0 -0.01 0 0 0 -0.01 0 0 0 -0.01 0 0 0 -0.01 0 0 0 0 0 -0.02 -0.08 0 0 0.01 0 0 0 0.01 0 0 0 0.01 0 0 0 0.01 0 0 0 0.01 0 0 -0.01 0.01 0 0.01 0 0.01 0 0.01 0 0.01 0 0.01 0 0.01 -0.01 0 0 0.01 0 0 0 0 0 0.01 0 0 0 0.01 0 0 0 0 0zm0 0c0.02,-0.01 0.04,0.01 0.05,0.03 0,0.02 -0.01,0.04 -0.04,0.05l-0.01 -0.08zm0.16 -0.05l0.03 0.08 0 0 0 0 -0.01 0 0 0 -0.01 0 0 0.01 -0.01 0 0 0 -0.01 0 -0.01 0 0 0.01 -0.01 0 0 0 -0.01 0 0 0 -0.01 0 -0.01 0.01 0 0 -0.01 0 0 0 -0.01 0 -0.01 0 0 0.01 -0.01 0 0 0 -0.01 0 0 0 -0.01 0 0 0 -0.01 0.01 -0.01 0 0 0 -0.01 0 -0.01 -0.08 0 0 0.01 0 0 0 0.01 0 0 -0.01 0.01 0 0 0 0.01 0 0 0 0.01 0 0 0 0.01 -0.01 0 0 0.01 0 0.01 0 0 0 0.01 0 0 -0.01 0.01 0 0 0 0.01 0 0 0 0.01 0 0 -0.01 0.01 0 0 0 0.01 0 0 0 0.01 0 0 -0.01 0.01 0 0 0 0 0zm0 0c0.02,-0.01 0.05,0 0.05,0.02 0.01,0.03 0,0.05 -0.02,0.06l-0.03 -0.08zm0.33 -0.18l0.06 0.06 -0.01 0.01 -0.01 0 -0.01 0.01 -0.01 0.01 -0.01 0.01 -0.01 0.01 -0.01 0.01 -0.01 0 -0.01 0.01 -0.01 0.01 -0.02 0.01 -0.01 0 -0.01 0.01 -0.01 0.01 -0.01 0 -0.01 0.01 -0.02 0 -0.01 0.01 -0.01 0 -0.01 0.01 -0.01 0.01 -0.01 0 -0.02 0.01 -0.01 0 -0.01 0.01 -0.01 0 -0.01 0 -0.01 0.01 -0.02 0 -0.01 0.01 -0.01 0 -0.01 0.01 -0.03 -0.08 0.01 0 0.01 -0.01 0.01 0 0.02 -0.01 0.01 0 0.01 0 0.01 -0.01 0.01 0 0.01 -0.01 0.01 0 0.01 -0.01 0.02 0 0.01 -0.01 0.01 0 0.01 -0.01 0.01 0 0.01 -0.01 0.01 -0.01 0.01 0 0.01 -0.01 0.01 0 0.01 -0.01 0.01 -0.01 0.01 0 0.01 -0.01 0.01 -0.01 0.01 0 0.01 -0.01 0.01 -0.01 0.01 -0.01 0.01 0 0 -0.01zm0 0c0.02,-0.02 0.04,-0.02 0.06,0 0.02,0.01 0.02,0.04 0,0.06l-0.06 -0.06zm0.64 0.1c0.02,0 0.05,0.01 0.05,0.03 0.01,0.02 0,0.04 -0.02,0.05l-0.03 -0.08zm-0.25 0.05l0.03 -0.08 0 0 0 0 0.01 0 0 0.01 0.01 0 0.01 0 0 0 0.01 0.01 0.01 0 0.01 0 0 0 0.01 0.01 0.01 0 0.01 0 0.01 0 0 0 0.01 0 0.01 0.01 0.01 0 0.01 0 0.01 0 0 0 0.01 0 0.01 0 0.01 0 0 0 0.01 0 0.01 0 0 0 0.01 0 0 0 0.01 0 0 -0.01 0.03 0.08 -0.01 0 -0.01 0.01 -0.01 0 -0.01 0 -0.01 0 -0.01 0 -0.01 0 0 0 -0.01 0 -0.01 0 -0.01 0 -0.01 0 -0.01 0 -0.01 0 -0.01 0 -0.01 -0.01 -0.01 0 -0.01 0 -0.01 0 -0.01 0 -0.01 -0.01 -0.01 0 -0.01 0 0 0 -0.01 -0.01 -0.01 0 -0.01 0 -0.01 0 0 -0.01 -0.01 0 -0.01 0 0 0 0 0zm0 0c-0.02,-0.01 -0.03,-0.04 -0.03,-0.06 0.01,-0.02 0.04,-0.03 0.06,-0.02l-0.03 0.08zm-0.28 -0.2l0.06 -0.05 0.01 0 0.01 0.01 0 0.01 0.01 0.01 0.01 0 0.01 0.01 0 0.01 0.01 0 0.01 0.01 0 0.01 0.01 0 0.01 0.01 0.01 0 0 0.01 0.01 0 0.01 0.01 0 0.01 0.01 0 0.01 0.01 0.01 0 0 0 0.01 0.01 0.01 0 0.01 0.01 0.01 0 0 0.01 0.01 0 0.01 0 0.01 0.01 0.01 0 0.01 0.01 0.01 0 -0.03 0.08 -0.01 -0.01 -0.01 0 -0.01 -0.01 -0.01 0 -0.01 -0.01 -0.01 0 -0.01 -0.01 -0.01 0 -0.01 -0.01 -0.01 0 -0.01 -0.01 -0.01 0 -0.01 -0.01 0 0 -0.01 -0.01 -0.01 0 -0.01 -0.01 -0.01 -0.01 0 0 -0.01 -0.01 -0.01 -0.01 -0.01 0 -0.01 -0.01 0 -0.01 -0.01 0 -0.01 -0.01 -0.01 -0.01 -0.01 -0.01 0 0 -0.01 -0.01 -0.01 -0.01 -0.01 -0.01zm0 0c-0.01,-0.01 -0.01,-0.04 0,-0.05 0.02,-0.02 0.04,-0.02 0.06,0l-0.06 0.05zm-0.8 0.22c-0.02,0 -0.04,-0.01 -0.05,-0.04 0,-0.02 0.02,-0.04 0.04,-0.04l0.01 0.08zm0.01 0l-0.01 0 -0.01 -0.08 0.01 0 0.01 0.08 0 0zm-0.01 -0.08c0.02,0 0.04,0.01 0.04,0.04 0.01,0.02 -0.01,0.04 -0.03,0.04l-0.01 -0.08zm0.67 -0.29l0.07 0.03 -0.01 0.03 -0.02 0.02 -0.01 0.01 -0.02 0.02 -0.02 0.02 -0.02 0.02 -0.02 0.01 -0.02 0.02 -0.02 0.01 -0.02 0.02 -0.03 0.01 -0.02 0.01 -0.02 0.02 -0.03 0.01 -0.03 0.01 -0.02 0.01 -0.03 0.01 -0.02 0.01 -0.03 0.01 -0.03 0 -0.02 0.01 -0.03 0.01 -0.03 0 -0.02 0.01 -0.03 0.01 -0.02 0 -0.03 0 -0.02 0.01 -0.03 0 -0.02 0.01 -0.02 0 -0.02 0 -0.01 -0.08 0.02 0 0.02 0 0.02 -0.01 0.02 0 0.03 0 0.02 -0.01 0.03 0 0.02 -0.01 0.02 0 0.03 -0.01 0.02 -0.01 0.03 0 0.03 -0.01 0.02 -0.01 0.03 -0.01 0.02 -0.01 0.02 -0.01 0.03 -0.01 0.02 -0.01 0.02 -0.01 0.03 -0.01 0.02 -0.01 0.02 -0.02 0.02 -0.01 0.01 -0.01 0.02 -0.01 0.02 -0.02 0.01 -0.01 0.02 -0.02 0.01 -0.01 0.01 -0.02 0.01 -0.01zm0 0c0.01,-0.02 0.03,-0.03 0.05,-0.02 0.02,0.01 0.03,0.03 0.02,0.05l-0.07 -0.03zm0.38 0.08c0.01,0.02 0,0.05 -0.02,0.06 -0.02,0.01 -0.04,0 -0.05,-0.02l0.07 -0.04zm0 0l0 0 -0.07 0.04 0 0 0.07 -0.04 0 0zm-0.07 0.04c-0.01,-0.02 -0.01,-0.05 0.01,-0.06 0.02,-0.01 0.05,0 0.06,0.02l-0.07 0.04zm-0.03 -0.06l0.08 -0.03 0 0 0 0.01 0 0 0 0 0 0 0 0.01 0 0 0 0 0.01 0.01 0 0 0 0 0 0 0 0.01 0 0 0 0 0.01 0.01 0 0 -0.07 0.04 -0.01 -0.01 0 0 0 0 0 -0.01 0 0 0 0 -0.01 -0.01 0 0 0 0 0 -0.01 0 0 0 0 -0.01 -0.01 0 0 0 -0.01 0 0 0 0zm0 0c-0.01,-0.02 0,-0.04 0.02,-0.05 0.03,-0.01 0.05,0 0.06,0.02l-0.08 0.03zm-0.04 -0.2l0.08 -0.01 0 0 0 0.01 0 0 0 0.01 0 0 0 0.01 0 0.01 0 0 0 0.01 0 0 0 0.01 0.01 0.01 0 0 0 0.01 0 0 0 0.01 0 0 0 0.01 0 0.01 0 0 0.01 0.01 0 0 0 0.01 0 0 0 0.01 0 0.01 0.01 0 0 0.01 0 0 0 0.01 0 0 0 0.01 0.01 0 -0.08 0.03 0 0 0 -0.01 -0.01 -0.01 0 0 0 -0.01 0 -0.01 0 0 -0.01 -0.01 0 0 0 -0.01 0 -0.01 0 0 0 -0.01 -0.01 -0.01 0 0 0 -0.01 0 -0.01 0 0 0 -0.01 0 0 0 -0.01 -0.01 -0.01 0 0 0 -0.01 0 -0.01 0 0 0 -0.01 0 -0.01 0 0 0 -0.01 0 0 0 -0.01 0 0zm0 0c-0.01,-0.02 0.01,-0.04 0.03,-0.05 0.02,0 0.04,0.02 0.05,0.04l-0.08 0.01zm-0.01 -0.18l0.08 -0.01 0 0 0 0.01 0 0.01 0 0.01 0 0.02 0 0.01 0 0.01 0 0 0 0.01 0 0 0 0.01 0 0.01 0 0 0 0.01 0 0 0 0.01 0 0 0 0.01 0 0.01 0 0 0 0.01 0 0 0 0.01 0.01 0 0 0.01 0 0.01 0 0 -0.08 0.01 0 -0.01 0 0 -0.01 -0.01 0 0 0 -0.01 0 -0.01 0 0 0 -0.01 0 0 0 -0.01 0 -0.01 0 0 0 -0.01 0 0 0 -0.01 0 -0.01 0 0 0 -0.01 0 0 0 -0.01 0 -0.01 0 -0.01 0 -0.01 0 -0.01 0 -0.01 0 -0.01 0 0zm0 0c-0.01,-0.03 0.01,-0.05 0.03,-0.05 0.03,0 0.05,0.02 0.05,0.04l-0.08 0.01zm-0.03 -0.19l0.07 -0.04 0 0 0 0.01 0 0 0.01 0.01 0 0 0 0.01 0 0.01 0.01 0 0 0.01 0 0 0 0.01 0 0.01 0 0 0 0.01 0.01 0.01 0 0 0 0.01 0 0.01 0 0 0 0.01 0 0.01 0 0.01 0 0 0 0.01 0 0.01 0 0.01 0 0 0 0.01 0 0.01 0 0.01 0.01 0.01 0 0 0 0.01 -0.08 0.01 -0.01 -0.01 0 -0.01 0 -0.01 0 -0.01 0 0 0 -0.01 0 -0.01 0 -0.01 0 0 0 -0.01 0 -0.01 0 0 0 -0.01 0 -0.01 0 0 0 -0.01 0 0 0 -0.01 -0.01 -0.01 0 0 0 -0.01 0 0 0 -0.01 0 0 0 -0.01 0 0 -0.01 0 0 -0.01 0 0 0 -0.01 0 0 0 0 0 0zm0 0c-0.01,-0.02 -0.01,-0.05 0.01,-0.06 0.02,-0.01 0.05,0 0.06,0.02l-0.07 0.04zm-0.17 -0.11l0.01 -0.08 0 0 0 0 0.01 0 0.01 0 0.01 0 0.01 0 0.01 0.01 0.01 0 0.01 0 0.01 0 0 0.01 0.01 0 0.01 0.01 0.01 0 0.01 0 0 0.01 0.01 0 0.01 0.01 0.01 0 0 0.01 0.01 0.01 0.01 0 0 0.01 0.01 0.01 0.01 0 0 0.01 0.01 0.01 0 0 0.01 0.01 0.01 0.01 0 0.01 0.01 0 0 0.01 -0.07 0.04 -0.01 -0.01 0 0 0 -0.01 -0.01 0 0 -0.01 0 0 -0.01 -0.01 0 0 -0.01 -0.01 0 0 -0.01 -0.01 0 0 -0.01 -0.01 0 0 -0.01 0 0 -0.01 -0.01 0 -0.01 -0.01 0 0 -0.01 0 0 -0.01 -0.01 0 -0.01 0 0 0 -0.01 -0.01 0 0 -0.01 0 -0.01 0 0 0 -0.01 0 0 0 -0.01 0 0 0zm0 0c-0.02,0 -0.04,-0.02 -0.04,-0.05 0,-0.02 0.02,-0.04 0.05,-0.03l-0.01 0.08zm-0.21 0.1l-0.08 -0.03 0 0 0.01 -0.01 0 -0.01 0.01 0 0 -0.01 0.01 -0.01 0 -0.01 0.01 0 0 -0.01 0.01 -0.01 0 -0.01 0.01 0 0.01 -0.01 0.01 -0.01 0 0 0.01 -0.01 0.01 -0.01 0.01 0 0.01 -0.01 0.01 0 0.01 0 0.01 -0.01 0.01 0 0.01 0 0.01 -0.01 0.02 0 0.01 0 0.01 0 0.02 0 0.01 0 0.01 0 0.02 0 0.02 0 -0.01 0.08 -0.01 0 -0.01 0 -0.02 0 -0.01 0 -0.01 0 -0.01 0 -0.01 0 -0.01 0 -0.01 0 -0.01 0.01 0 0 -0.01 0 -0.01 0 -0.01 0.01 0 0 -0.01 0 0 0.01 -0.01 0 0 0 -0.01 0.01 0 0 -0.01 0.01 0 0 0 0.01 -0.01 0 0 0.01 -0.01 0 0 0.01 0 0 -0.01 0.01 0 0.01 0 0 0 0zm0 0c-0.01,0.02 -0.03,0.03 -0.05,0.02 -0.03,0 -0.03,-0.03 -0.03,-0.05l0.08 0.03zm-0.05 0.14l-0.08 -0.03 0 0 0 0 0 0 0.01 -0.01 0 0 0 -0.01 0 0 0 -0.01 0 0 0.01 -0.01 0 0 0 0 0 -0.01 0 -0.01 0.01 -0.01 0 -0.01 0 0 0.01 -0.01 0 0 0 -0.01 0 0 0 -0.01 0 0 0.01 -0.01 0 0 0 -0.01 0 0 0 0 0 -0.01 0.08 0.03 0 0.01 0 0 -0.01 0.01 0 0 0 0 0 0.01 0 0 0 0.01 -0.01 0 0 0 0 0.01 0 0 0 0.01 -0.01 0.01 0 0.01 0 0.01 0 0 -0.01 0.01 0 0 0 0.01 0 0 0 0.01 0 0 -0.01 0.01 0 0 0 0.01 0 0 0 0 0 0zm0 0c-0.01,0.03 -0.04,0.04 -0.06,0.03 -0.02,-0.01 -0.03,-0.04 -0.02,-0.06l0.08 0.03zm-0.13 0.17l-0.04 -0.07 0 0 0 0 0 0 0.01 -0.01 0 0 0.01 0 0 -0.01 0 0 0.01 0 0 -0.01 0 0 0.01 -0.01 0 0 0 0 0.01 -0.01 0 0 0 -0.01 0.01 0 0 0 0 -0.01 0 0 0.01 -0.01 0 0 0 -0.01 0 0 0.01 0 0 -0.01 0 0 0 -0.01 0.01 0 0 -0.01 0 0 0 -0.01 0.08 0.03 -0.01 0.01 0 0.01 0 0 0 0.01 -0.01 0 0 0.01 0 0 0 0.01 -0.01 0 0 0.01 0 0 -0.01 0.01 0 0.01 0 0 -0.01 0.01 0 0 0 0.01 -0.01 0 0 0.01 -0.01 0 0 0.01 0 0 -0.01 0.01 0 0 -0.01 0.01 0 0 -0.01 0.01 0 0 -0.01 0.01 -0.01 0 0 0 -0.01 0.01 0 0zm0 0c-0.02,0.01 -0.04,0.01 -0.05,-0.01 -0.02,-0.02 -0.01,-0.04 0.01,-0.06l0.04 0.07zm-0.07 0.04l-0.03 -0.07 0 0 0 -0.01 0 0 0.01 0 0 0 0 0 0 0 0 0 0 0 0.01 0 0 0 0 0 0 -0.01 0 0 0.01 0 0 0 0 0 0 0 0 0 0 0 0.01 0 0 0 0 -0.01 0 0 0 0 0 0 0.01 0 0 0 0 0 0 0 0 0 0 -0.01 0.01 0 0.04 0.07 0 0 0 0 0 0 -0.01 0 0 0.01 0 0 0 0 0 0 -0.01 0 0 0 0 0 0 0.01 0 0 -0.01 0 0 0 0 0 0 0 -0.01 0 0 0 0 0.01 0 0 0 0 -0.01 0 0 0 0 0 0 0 -0.01 0 0 0.01 0 0 0 0 -0.01 0 0 0 0 0zm0 0c-0.02,0.01 -0.04,0 -0.05,-0.02 -0.01,-0.02 0,-0.05 0.02,-0.05l0.03 0.07zm-0.23 0.03l0.01 -0.09 0.01 0.01 0 0 0.01 0 0.01 0 0.01 0 0 0 0.01 0 0.01 0 0 0 0.01 0 0 0 0.01 0 0 0 0.01 0 0 0 0.01 0 0 0 0.01 0 0 0 0 0 0.01 0 0 0 0.01 0 0 0 0.01 -0.01 0.01 0 0 0 0.01 0 0.01 0 0 -0.01 0.01 0 0.01 0 0.03 0.07 -0.01 0 -0.01 0.01 -0.01 0 0 0 -0.01 0.01 -0.01 0 -0.01 0 0 0 -0.01 0.01 -0.01 0 -0.01 0 0 0 -0.01 0 -0.01 0 0 0 -0.01 0 -0.01 0 0 0 -0.01 0 0 0 -0.01 0 -0.01 0 0 0 -0.01 0 -0.01 0 0 0 -0.01 0 -0.01 0 -0.01 0 0 0 -0.01 0 -0.01 0zm0 0c-0.02,-0.01 -0.04,-0.03 -0.04,-0.05 0,-0.02 0.02,-0.04 0.05,-0.04l-0.01 0.09zm0.85 0.08c0.02,0.02 0.01,0.04 0,0.06 -0.02,0.01 -0.05,0.01 -0.06,-0.01l0.06 -0.05zm-0.11 -0.16l0.08 0.01 0 0 0 0.01 0 0 0 0.01 0 0 0 0.01 0 0 0 0.01 0 0 0 0.01 0 0 0 0.01 0 0.01 0 0 0 0.01 0.01 0 0 0.01 0 0 0 0.01 0 0 0 0.01 0 0 0 0.01 0.01 0 0 0 0 0.01 0 0 0 0.01 0 0 0.01 0 0 0.01 0 0 0 0 -0.06 0.05 0 0 -0.01 -0.01 0 0 -0.01 -0.01 0 -0.01 0 0 0 -0.01 -0.01 -0.01 0 0 0 -0.01 0 0 -0.01 -0.01 0 -0.01 0 0 0 -0.01 0 -0.01 0 0 -0.01 -0.01 0 -0.01 0 -0.01 0 0 0 -0.01 0 -0.01 0 0 0 -0.01 0 -0.01 0 0 0 -0.01 0 -0.01 0 -0.01 0 0 0 -0.01 0 0zm0 0c0.01,-0.02 0.03,-0.04 0.05,-0.03 0.02,0 0.04,0.02 0.03,0.04l-0.08 -0.01zm0.02 -0.06l0.07 0.03 0 0 0 0 0 0.01 0 0 0 0 0 0 0 0 0 0 0 0 0 0 0 0 0 0.01 0 0 0 0 0 0 0 0 0 0 0 0 0 0 0 0.01 0 0 0 0 0 0 0 0 0 0 0 0 -0.01 0.01 0 0 0 0 0 0 0 0 0 0 -0.08 -0.01 0 0 0 0 0 0 0 -0.01 0.01 0 0 0 0 0 0 0 0 -0.01 0 0 0 0 0 0 0 0 0 -0.01 0 0 0 0 0 0 0 0 0 -0.01 0 0 0 0 0 0 0 0 0 0 0 -0.01 0.01 0 0 0 0 0 0 0 0 -0.01 0 0 0 0zm0 0c0.01,-0.02 0.03,-0.03 0.05,-0.02 0.02,0.01 0.03,0.03 0.02,0.05l-0.07 -0.03zm-0.75 0.49c-0.02,0.01 -0.04,-0.01 -0.05,-0.03 0,-0.02 0.01,-0.04 0.04,-0.05l0.01 0.08zm0.01 0l-0.01 0 -0.01 -0.08 0 0 0 0 0.02 0.08zm-0.02 -0.08c0.03,0 0.05,0.01 0.05,0.03 0.01,0.03 -0.01,0.05 -0.03,0.05l-0.02 -0.08zm0.4 -0.12l0.04 0.07 0 0 -0.01 0.01 -0.02 0.01 -0.01 0.01 -0.02 0.01 -0.01 0 -0.01 0.01 -0.02 0 -0.01 0.01 -0.01 0 -0.01 0.01 -0.02 0 -0.01 0.01 -0.01 0 -0.01 0 -0.02 0.01 -0.01 0 -0.01 0 -0.01 0.01 -0.02 0 -0.01 0 -0.01 0 -0.01 0.01 -0.02 0 -0.01 0 -0.01 0 -0.02 0.01 -0.01 0 -0.01 0 -0.02 0 -0.01 0.01 -0.02 0 -0.01 0 -0.02 -0.08 0.02 0 0.02 0 0.01 -0.01 0.01 0 0.02 0 0.01 0 0.01 -0.01 0.02 0 0.01 0 0.01 0 0.01 0 0.02 -0.01 0.01 0 0.01 0 0.01 0 0.01 -0.01 0.01 0 0.01 0 0.02 -0.01 0.01 0 0.01 0 0.01 -0.01 0.01 0 0.01 -0.01 0.01 0 0.01 -0.01 0.02 0 0.01 -0.01 0.01 0 0.01 -0.01 0.02 -0.01 0.01 -0.01 0 0zm0 0c0.02,-0.01 0.04,0 0.06,0.02 0.01,0.02 0,0.04 -0.02,0.05l-0.04 -0.07zm0.1 -0.07l0.06 0.05 0 0 0 0.01 -0.01 0 0 0 0 0.01 -0.01 0 0 0 0 0.01 -0.01 0 0 0 0 0 -0.01 0.01 0 0 0 0 -0.01 0.01 0 0 -0.01 0 0 0.01 0 0 -0.01 0 0 0 0 0.01 -0.01 0 0 0 -0.01 0 0 0.01 0 0 -0.01 0 0 0 -0.01 0.01 0 0 0 0 -0.01 0 -0.04 -0.07 0 0 0.01 0 0 0 0.01 0 0 -0.01 0 0 0.01 0 0 0 0 -0.01 0.01 0 0 0 0 0 0.01 -0.01 0 0 0 0 0.01 0 0 0 0 -0.01 0.01 0 0 0 0 0 0.01 -0.01 0 0 0 0 0 -0.01 0.01 0 0 0 0 0 0.01 -0.01 0 0 0 0 0 0 0 0zm0 0c0.02,-0.02 0.05,-0.02 0.06,0 0.02,0.01 0.02,0.04 0,0.05l-0.06 -0.05zm0.06 -0.07l0.07 0.04 0 0 0 0 0 0.01 -0.01 0 0 0 0 0 0 0.01 0 0 -0.01 0 0 0.01 0 0 0 0 0 0 -0.01 0.01 0 0 0 0 0 0 0 0.01 -0.01 0 0 0 0 0 0 0.01 -0.01 0 0 0 0 0 0 0.01 0 0 -0.01 0 0 0 0 0.01 0 0 -0.01 0 0 0 -0.06 -0.05 0.01 -0.01 0 0 0 0 0 0 0 0 0.01 -0.01 0 0 0 0 0 0 0 0 0.01 -0.01 0 0 0 0 0 0 0 -0.01 0.01 0 0 0 0 0 0 0 0 -0.01 0 0 0.01 0 0 0 0 -0.01 0 0 0 0 0 0 0.01 0 0 -0.01 0 0 0 0 0 0 0 0zm0 0c0.01,-0.02 0.04,-0.03 0.06,-0.02 0.02,0.02 0.02,0.04 0.01,0.06l-0.07 -0.04zm0.06 -0.15l0.08 0.02 0 0 0 0 0 0.01 -0.01 0 0 0.01 0 0.01 0 0 0 0.01 0 0 0 0.01 -0.01 0 0 0.01 0 0.01 0 0 0 0.01 -0.01 0 0 0.01 0 0 0 0.01 0 0 -0.01 0.01 0 0 0 0.01 0 0.01 -0.01 0 0 0.01 0 0 0 0.01 -0.01 0 0 0.01 0 0 -0.01 0.01 0 0 -0.07 -0.04 0 -0.01 0.01 0 0 -0.01 0 0 0 0 0.01 -0.01 0 0 0 -0.01 0 0 0.01 -0.01 0 0 0 0 0 -0.01 0 0 0.01 -0.01 0 0 0 -0.01 0 0 0 -0.01 0 0 0.01 0 0 -0.01 0 0 0 -0.01 0 0 0 -0.01 0 0 0 -0.01 0 0 0.01 -0.01 0 0 0 -0.01 0 0zm0 0c0,-0.02 0.02,-0.03 0.04,-0.03 0.03,0 0.04,0.02 0.04,0.05l-0.08 -0.02zm0 -0.06l0.08 0 0 0 0 0 0 0.01 0 0 0 0 0 0 0 0.01 0 0 0 0 0 0 0 0.01 0 0 0 0 0 0 0 0.01 0 0 0 0 0 0 0 0.01 0 0 0 0 0 0 0 0 0 0.01 0 0 0 0 0 0 0 0.01 0 0 0 0 0 0 0 0.01 -0.08 -0.02 0 0 0 0 0 0 0 0 0 -0.01 0 0 0 0 0 0 0 0 0 -0.01 0 0 0 0 0 0 0 0 0 -0.01 0 0 0 0 0 0 0 0 0 -0.01 0 0 0 0 0 0 0 -0.01 0 0 0 0 0 0 0 0 0 -0.01 0 0 0 0 0 0zm0 0c0,-0.02 0.02,-0.04 0.04,-0.04 0.03,0 0.04,0.02 0.04,0.04l-0.08 0zm0.72 0.5c0.02,0 0.04,0.01 0.05,0.04 0,0.02 -0.01,0.04 -0.03,0.04l-0.02 -0.08zm-0.2 -0.01l0.06 -0.05 0 0 0 0.01 0.01 0 0 0 0.01 0.01 0 0 0 0.01 0.01 0 0 0 0 0.01 0.01 0 0 0 0.01 0.01 0 0 0 0 0.01 0 0 0 0.01 0.01 0 0 0 0 0.01 0 0 0 0.01 0 0 0 0.01 0 0 0.01 0.01 0 0 0 0.01 0 0 0 0.01 -0.01 0 0 0.01 0 0.02 0.08 -0.01 0 -0.01 0.01 -0.01 0 -0.01 0 -0.01 0 -0.01 0 0 0 -0.01 0 -0.01 -0.01 -0.01 0 -0.01 0 0 0 -0.01 0 -0.01 -0.01 -0.01 0 0 0 -0.01 -0.01 -0.01 0 0 0 -0.01 -0.01 -0.01 0 0 -0.01 -0.01 0 0 -0.01 -0.01 0 0 -0.01 -0.01 0 0 -0.01 -0.01 0 0 -0.01 -0.01 0 0 -0.01 0 0zm0 0c-0.02,-0.02 -0.01,-0.04 0.01,-0.06 0.01,-0.01 0.04,-0.01 0.05,0.01l-0.06 0.05zm-0.05 -0.09l0.08 -0.03 0 0 0 0 0 0.01 0 0 0 0 0 0 0 0.01 0 0 0 0 0 0 0.01 0.01 0 0 0 0 0 0 0 0 0 0.01 0 0 0 0 0 0 0.01 0.01 0 0 0 0 0 0 0 0 0 0.01 0 0 0 0 0 0 0.01 0 0 0.01 0 0 0 0 0 0 -0.06 0.05 -0.01 0 0 -0.01 0 0 0 0 0 0 0 -0.01 -0.01 0 0 0 0 0 0 -0.01 0 0 0 0 -0.01 -0.01 0 0 0 0 0 0 0 -0.01 0 0 0 0 -0.01 -0.01 0 0 0 0 0 0 0 -0.01 0 0 0 0 0 -0.01 -0.01 0 0 0 0 -0.01 0 0 0 0 0 0zm0 0c-0.01,-0.02 0,-0.05 0.02,-0.05 0.03,-0.01 0.05,0 0.06,0.02l-0.08 0.03zm-0.04 -0.13l0.08 -0.01 0 0 0 0 0.01 0 0 0.01 0 0 0 0.01 0 0 0 0 0 0.01 0 0 0 0.01 0 0 0.01 0 0 0.01 0 0 0 0.01 0 0 0 0 0 0.01 0 0 0 0 0 0.01 0.01 0 0 0 0 0.01 0 0 0 0 0 0.01 0 0 0 0 0 0.01 0.01 0 0 0 -0.08 0.03 0 0 0 -0.01 0 0 0 0 -0.01 -0.01 0 0 0 -0.01 0 0 0 0 0 -0.01 0 0 0 0 -0.01 -0.01 0 0 0 -0.01 0 0 0 0 0 -0.01 0 0 0 -0.01 0 0 -0.01 0 0 -0.01 0 0 0 -0.01 0 0 0 0 0 -0.01 0 0 0 -0.01 0 0 -0.01 -0.01 0 0zm0 0c0,-0.02 0.01,-0.04 0.04,-0.04 0.02,-0.01 0.04,0.01 0.04,0.03l-0.08 0.01zm-0.02 -0.15l0.09 0.01 0 0 0 0 0 0 0 0.01 0 0 0 0 0 0.01 0 0 0 0 0 0.01 0 0 0 0.01 0 0 0 0 0 0.01 0 0 0 0.01 0 0 0 0.01 0 0 0 0 0 0.01 0 0 0.01 0.01 0 0 0 0.01 0 0 0 0 0 0.01 0 0 0 0.01 0 0 0 0.01 -0.08 0.01 0 0 0 0 0 -0.01 0 0 0 -0.01 0 0 0 -0.01 0 0 0 -0.01 0 0 -0.01 -0.01 0 0 0 -0.01 0 0 0 -0.01 0 0 0 -0.01 0 0 0 -0.01 0 0 0 -0.01 0 0 0 0 0 -0.01 0 0 0 -0.01 0 0 0 -0.01 0 0 -0.01 -0.01 0 0 0 -0.01 0 0zm0 0c0,-0.02 0.02,-0.04 0.05,-0.04 0.02,0 0.04,0.02 0.04,0.05l-0.09 -0.01zm0.09 -0.04l0 0.05 -0.09 -0.01 0.01 -0.04 0.08 0 0 0zm-0.08 0c0,-0.03 0.01,-0.04 0.04,-0.04 0.02,0 0.04,0.01 0.04,0.04l-0.08 0zm-0.15 -0.44l0.05 -0.06 0 0 0.01 0.01 0.02 0.02 0.01 0.01 0.01 0.01 0.02 0.02 0.01 0.01 0.01 0.01 0.01 0.02 0.01 0.01 0.01 0.02 0 0.01 0.01 0.02 0.01 0.01 0 0.02 0.01 0.01 0 0.02 0.01 0.02 0 0.01 0 0.02 0.01 0.01 0 0.02 0 0.02 0 0.01 0 0.02 0 0.02 0 0.01 0.01 0.02 0 0.02 0 0.01 0 0.02 0 0.02 0 0.02 -0.08 0 0 -0.02 0 -0.02 -0.01 -0.01 0 -0.02 0 -0.02 0 -0.01 0 -0.02 0 -0.01 0 -0.02 0 -0.01 0 -0.02 0 -0.01 -0.01 -0.02 0 -0.01 0 -0.01 -0.01 -0.02 0 -0.01 0 -0.01 -0.01 -0.02 0 -0.01 -0.01 -0.01 -0.01 -0.01 0 -0.02 -0.01 -0.01 -0.01 -0.01 -0.01 -0.01 -0.01 -0.01 -0.01 -0.01 -0.01 -0.01 -0.01 -0.02 -0.01 -0.01 -0.01 -0.01 0 0zm0 0c-0.02,-0.01 -0.02,-0.04 -0.01,-0.05 0.01,-0.02 0.04,-0.02 0.06,-0.01l-0.05 0.06zm-0.47 0.01l-0.06 -0.06 0 0 0.02 -0.01 0.01 -0.01 0.02 -0.01 0.02 -0.01 0.01 -0.01 0.02 -0.01 0.02 -0.01 0.02 -0.01 0.01 0 0.02 -0.01 0.02 0 0.02 -0.01 0.02 0 0.02 0 0.02 0 0.02 0 0.02 0 0.02 0 0.02 0 0.02 0 0.02 0 0.01 0.01 0.02 0 0.02 0.01 0.02 0 0.02 0.01 0.02 0.01 0.01 0.01 0.02 0.01 0.02 0.01 0.01 0.01 0.02 0.01 -0.05 0.06 -0.02 -0.01 -0.01 -0.01 -0.01 0 -0.01 -0.01 -0.02 -0.01 -0.01 0 -0.02 -0.01 -0.01 0 -0.02 -0.01 -0.01 0 -0.02 -0.01 -0.01 0 -0.02 0 -0.02 0 -0.01 0 -0.02 0 -0.02 0 -0.01 0 -0.02 0 -0.01 0 -0.02 0.01 -0.02 0 -0.01 0.01 -0.02 0 -0.01 0.01 -0.02 0 -0.01 0.01 -0.01 0.01 -0.02 0 -0.01 0.01 -0.01 0.01 -0.01 0.01 0 0zm0 0c-0.02,0.02 -0.04,0.02 -0.06,0 -0.01,-0.02 -0.01,-0.04 0,-0.06l0.06 0.06zm-0.08 0.12l-0.07 -0.04 0 0 0 0 0 -0.01 0 0 0.01 -0.01 0 0 0 -0.01 0 0 0.01 -0.01 0 0 0 -0.01 0.01 0 0 -0.01 0 0 0 -0.01 0.01 0 0 0 0 -0.01 0.01 0 0 -0.01 0 0 0 -0.01 0.01 0 0 0 0 -0.01 0.01 0 0 -0.01 0.01 0 0 0 0 -0.01 0.01 0 0 0 0 -0.01 0.06 0.06 0 0 -0.01 0.01 0 0 0 0 -0.01 0.01 0 0 0 0 0 0 -0.01 0.01 0 0 0 0 0 0.01 -0.01 0 0 0 0 0.01 0 0 -0.01 0.01 0 0 0 0 0 0.01 -0.01 0 0 0 0 0.01 0 0 -0.01 0.01 0 0 0 0.01 0 0 -0.01 0 0 0.01 0 0 0 0.01 0 0zm0 0c-0.01,0.02 -0.04,0.02 -0.06,0.01 -0.02,-0.01 -0.02,-0.03 -0.01,-0.05l0.07 0.04zm-0.07 0.13l-0.07 -0.04 0 0 0 0 0 -0.01 0.01 0 0 0 0 -0.01 0 0 0 0 0.01 -0.01 0 0 0 -0.01 0 0 0 0 0.01 -0.01 0 -0.01 0.01 -0.01 0 -0.01 0 -0.01 0.01 0 0 -0.01 0 0 0 -0.01 0.01 0 0 -0.01 0 0 0 -0.01 0.01 0 0.07 0.04 0 0 -0.01 0.01 0 0 0 0 0 0.01 0 0 -0.01 0.01 0 0 0 0.01 -0.01 0.01 0 0.01 -0.01 0.01 0 0 0 0.01 -0.01 0.01 0 0 0 0 0 0.01 0 0 -0.01 0.01 0 0 0 0 0 0.01 0 0 -0.01 0.01 0 0 0 0zm0 0c-0.01,0.02 -0.03,0.03 -0.05,0.02 -0.02,-0.01 -0.03,-0.04 -0.02,-0.06l0.07 0.04zm-0.07 -0.04l0 0 0.07 0.04 0 0 0 0 -0.07 -0.04zm0.07 0.04c-0.01,0.02 -0.03,0.03 -0.05,0.02 -0.02,-0.01 -0.03,-0.04 -0.02,-0.06l0.07 0.04zm-0.24 0.14l0.02 -0.08 0 0 0.01 0 0 0 0.01 0 0 0 0.01 0 0 0 0.01 0 0 0 0.01 0 0 0 0.01 0 0 -0.01 0.01 0 0 0 0.01 0 0 -0.01 0.01 0 0 0 0 -0.01 0.01 0 0 0 0.01 -0.01 0 0 0.01 -0.01 0 0 0.01 -0.01 0 -0.01 0 0 0.01 -0.01 0 0 0.01 -0.01 0 -0.01 0.07 0.04 0 0.01 -0.01 0.01 0 0.01 -0.01 0 0 0.01 -0.01 0.01 -0.01 0.01 0 0 -0.01 0.01 0 0.01 -0.01 0 -0.01 0.01 0 0.01 -0.01 0 -0.01 0.01 0 0 -0.01 0.01 -0.01 0 -0.01 0.01 -0.01 0 0 0 -0.01 0.01 -0.01 0 -0.01 0 -0.01 0 -0.01 0 -0.01 0 -0.01 0 -0.01 0 -0.01 0 -0.01 0 -0.01 0 0 0zm0 0c-0.02,-0.01 -0.03,-0.03 -0.03,-0.05 0.01,-0.02 0.03,-0.04 0.05,-0.03l-0.02 0.08zm-0.05 -0.03l0.04 -0.07 0 0.01 0 0 0 0 0 0 0 0 0 0 0.01 0 0 0 0 0 0 0 0 0 0 0 0 0 0 0 0 0 0.01 0 0 0 0 0 0 0 0 0.01 0 0 0 0 0 0 0 0 0 0 0.01 0 0 0 0 0 0 0 0 0 0 0 0 0 -0.02 0.08 0 0 0 0 0 0 0 0 -0.01 0 0 -0.01 0 0 0 0 0 0 -0.01 0 0 0 0 0 0 0 0 0 0 0 -0.01 0 0 0 0 0 0 0 0 0 0 -0.01 -0.01 0 0 0 0 0 0 0 0 0 0 0 -0.01 0 0 0 0 0 0 0 0 -0.01zm0 0c-0.02,-0.01 -0.03,-0.03 -0.02,-0.05 0.01,-0.02 0.04,-0.03 0.06,-0.02l-0.04 0.07zm0.04 0.37c-0.02,0 -0.04,-0.01 -0.04,-0.04 0,-0.02 0.02,-0.04 0.04,-0.04l0 0.08zm0.01 0l-0.01 0 0 -0.08 0.01 0 0 0.08 0 0zm0 -0.08c0.02,0 0.04,0.02 0.04,0.04 0,0.03 -0.02,0.04 -0.04,0.04l0 -0.08zm0.26 -0.06l0.04 0.07 0 0 -0.01 0.01 -0.01 0 -0.01 0 -0.01 0.01 0 0 -0.01 0.01 -0.01 0 -0.01 0 -0.01 0.01 -0.01 0 -0.01 0 -0.01 0.01 -0.01 0 -0.01 0 -0.01 0 -0.01 0.01 0 0 -0.01 0 -0.01 0 -0.01 0 -0.01 0 -0.01 0.01 -0.01 0 -0.01 0 -0.01 0 -0.01 0 -0.01 0 -0.01 0 -0.01 0 -0.01 0 -0.01 0 -0.01 0 0 -0.08 0.01 0 0.01 0 0 0 0.01 0 0.01 0 0.01 0 0.01 0 0.01 0 0.01 0 0.01 0 0 -0.01 0.01 0 0.01 0 0.01 0 0.01 0 0.01 0 0 -0.01 0.01 0 0.01 0 0.01 0 0.01 0 0.01 -0.01 0 0 0.01 0 0.01 -0.01 0.01 0 0 0 0.01 -0.01 0.01 0 0.01 0 0 -0.01 0.01 0 0 0zm0 0c0.02,-0.01 0.05,0 0.06,0.02 0.01,0.02 0,0.04 -0.02,0.05l-0.04 -0.07zm0.04 -0.02l0.04 0.07 0 0 0 0 0 0 -0.01 0 0 0 0 0.01 0 0 -0.01 0 0 0 0 0 0 0 -0.01 0 0 0.01 0 0 -0.01 0 0 0 0 0 -0.04 -0.07 0 0 0.01 0 0 0 0 0 0 -0.01 0.01 0 0 0 0 0 0 0 0 0 0.01 0 0 -0.01 0 0 0 0 0.01 0 0 0 0 0zm0 0c0.02,-0.01 0.04,-0.01 0.05,0.01 0.02,0.02 0.01,0.04 -0.01,0.06l-0.04 -0.07zm0.08 -0.07l0.06 0.05 0 0 0 0 0 0 0 0.01 -0.01 0 0 0 0 0.01 -0.01 0 0 0 0 0.01 -0.01 0 0 0 0 0 0 0.01 -0.01 0 0 0 0 0.01 -0.01 0 0 0 0 0 -0.01 0.01 0 0 0 0 -0.01 0.01 0 0 0 0 -0.01 0 0 0.01 0 0 -0.01 0 0 0 0 0 -0.01 0.01 -0.04 -0.07 0 0 0 0 0.01 -0.01 0 0 0 0 0 0 0.01 0 0 -0.01 0 0 0.01 0 0 0 0 -0.01 0 0 0.01 0 0 0 0 0 0.01 -0.01 0 0 0 0 0 0 0.01 -0.01 0 0 0 0 0 0 0.01 -0.01 0 0 0 0 0 0 0.01 -0.01 0 0 0 0 0 -0.01 0 0.01zm0 -0.01c0.02,-0.01 0.04,-0.01 0.06,0 0.02,0.01 0.02,0.04 0,0.06l-0.06 -0.06zm0.07 0.05l-0.01 0.01 -0.06 -0.05 0.01 -0.01 0.06 0.05 0 0zm-0.06 -0.05c0.01,-0.02 0.04,-0.02 0.05,0 0.02,0.01 0.02,0.04 0.01,0.05l-0.06 -0.05zm0.05 -0.09l0.08 0.03 0 0 0 0 -0.01 0.01 0 0 0 0.01 0 0 0 0 -0.01 0.01 0 0 0 0 0 0.01 0 0 -0.01 0.01 0 0 0 0 0 0.01 0 0 -0.01 0 0 0.01 0 0 0 0 0 0.01 -0.01 0 0 0 0 0.01 0 0 -0.01 0 0 0.01 0 0 0 0 -0.01 0.01 0 0 0 0 -0.06 -0.05 0 0 0 0 0 -0.01 0 0 0.01 0 0 0 0 -0.01 0 0 0 0 0.01 -0.01 0 0 0 0 0 0 0 -0.01 0.01 0 0 0 0 -0.01 0 0 0 0 0 0 0.01 -0.01 0 0 0 0 0 -0.01 0 0 0 0 0.01 -0.01 0 0 0 0 0 0 0 -0.01 0 0 0 0zm0 0c0.01,-0.02 0.04,-0.03 0.06,-0.02 0.02,0.01 0.03,0.03 0.02,0.05l-0.08 -0.03zm0.01 -0.03l0.08 0.03 0 0 0 0 0 0 0 0 0 0.01 0 0 0 0 -0.01 0 0 0 0 0.01 0 0 0 0 0 0 0 0 0 0.01 0 0 0 0 -0.08 -0.03 0 0 0 0 0.01 -0.01 0 0 0 0 0 0 0 0 0 -0.01 0 0 0 0 0 0 0 0 0 0 0 -0.01 0 0 0 0 0 0zm0 0c0.01,-0.02 0.03,-0.03 0.06,-0.02 0.02,0 0.03,0.03 0.02,0.05l-0.08 -0.03zm0.01 -0.02l0.08 0.02 0 0 0 0.01 0 0 0 0 0 0 0 0 0 0 -0.01 0 0 0.01 0 0 0 0 0 0 0 0 0 0 0 0 0 0.01 0 0 -0.08 -0.03 0 0 0 0 0 0 0.01 0 0 -0.01 0 0 0 0 0 0 0 0 0 0 0 0 0 0 0 -0.01 0 0 0 0 0 0 0 0zm0 0c0.01,-0.02 0.03,-0.03 0.05,-0.03 0.02,0.01 0.03,0.03 0.03,0.05l-0.08 -0.02zm0.05 -0.16l0.07 0.05 0 0 0 0 0 0 0 0 -0.01 0.01 0 0 0 0 0 0.01 0 0 0 0 0 0.01 0 0 -0.01 0.01 0 0 0 0 0 0.01 0 0 0 0.01 0 0 0 0.01 -0.01 0 0 0.01 0 0.01 0 0.01 0 0 0 0.01 -0.01 0 0 0.01 0 0 0 0.01 0 0 -0.08 -0.02 0 0 0 -0.01 0 0 0.01 -0.01 0 0 0 -0.01 0 0 0 -0.01 0 -0.01 0.01 -0.01 0 0 0 -0.01 0 0 0 -0.01 0 0 0 -0.01 0.01 0 0 -0.01 0 0 0 -0.01 0 0 0 -0.01 0.01 0 0 -0.01 0 0 0 -0.01 0 0 0.01 -0.01 0 0 0 -0.01 0 0zm0 0c0.01,-0.02 0.04,-0.02 0.06,-0.01 0.02,0.01 0.02,0.04 0.01,0.06l-0.07 -0.05zm0.03 -0.03l0.05 0.06 0 0 0 0 0 0 0 0 0 0 0 0 0 0 0 0 0 0 0 0.01 0 0 0 0 0 0 0 0 0 0 0 0 0 0 0 0 0 0 -0.01 0 0 0 0 0 0 0 0 0 0 0 0 0 0 0 0 0 0 0 0 0 0 0 0 0 0 0.01 -0.07 -0.05 0 0 0 0 0 0 0 0 0 0 0.01 0 0 0 0 -0.01 0 0 0 0 0 0 0 0 0 0 0 0 0 0 0 -0.01 0.01 0 0 0 0 0 0 0 0 0 0 0 0 0 0 0 0 -0.01 0.01 0 0 0 0 0 0 0 0 0 0 0 0 0 0 0zm0 0c0.02,-0.02 0.05,-0.01 0.06,0.01 0.01,0.02 0.01,0.04 -0.01,0.05l-0.05 -0.06zm0.24 0.1l-0.08 0.01 0 -0.01 0 0 0 -0.01 -0.01 -0.01 0 0 0 0 0 -0.01 -0.01 0 0 0 0 -0.01 -0.01 0 0 0 -0.01 0 0 0 0 0 -0.01 -0.01 0 0 -0.01 0 0 0 -0.01 0 0 0 -0.01 0 0 0 -0.01 0.01 0 0 -0.01 0 0 0 0 0 -0.01 0 0 0 0 0 0 0 -0.05 -0.06 0.01 -0.01 0.01 0 0 0 0.01 -0.01 0.01 0 0 0 0.01 0 0.01 0 0.01 -0.01 0 0 0.01 0 0.01 0 0.01 0 0.01 0 0.01 0 0.01 0.01 0.01 0 0.01 0 0 0 0.01 0.01 0.01 0 0.01 0.01 0.01 0 0.01 0.01 0.01 0.01 0 0.01 0.01 0.01 0.01 0.01 0 0.01 0.01 0.01 0 0.01 0 0.02zm0 0c0.01,0.02 -0.01,0.04 -0.03,0.04 -0.02,0.01 -0.04,-0.01 -0.05,-0.03l0.08 -0.01z"/>
    </g>
    <g>
     <path fill="#6C949E" fill-rule="nonzero" d="M0.15 2c0,-0.05 0.04,-0.08 0.08,-0.08 0.05,0 0.08,0.03 0.08,0.08l-0.16 0zm0 0.3l0 -0.3 0.16 0 0 0.3 0 0 -0.16 0zm0.16 0c0,0.05 -0.03,0.08 -0.08,0.08 -0.04,0 -0.08,-0.03 -0.08,-0.08l0.16 0zm0.24 0.24l0 0.16 0 0 -0.02 0 -0.02 0 -0.02 0 -0.02 0 -0.02 -0.01 -0.01 0 -0.02 -0.01 -0.02 -0.01 -0.02 -0.01 -0.02 0 -0.01 -0.01 -0.02 -0.01 -0.02 -0.02 -0.01 -0.01 -0.02 -0.01 -0.01 -0.01 -0.01 -0.02 -0.02 -0.01 -0.01 -0.02 -0.01 -0.01 -0.01 -0.02 -0.01 -0.02 -0.01 -0.01 -0.01 -0.02 0 -0.02 -0.01 -0.02 -0.01 -0.02 0 -0.02 0 -0.02 -0.01 -0.02 0 -0.02 0 -0.02 0.16 0 0 0.01 0 0.02 0.01 0.01 0 0.01 0 0.01 0 0.01 0.01 0.01 0 0.01 0.01 0.02 0 0.01 0.01 0.01 0.01 0.01 0 0.01 0.01 0 0.01 0.01 0 0.01 0.01 0.01 0.01 0.01 0.01 0 0.01 0.01 0.01 0.01 0.01 0 0.01 0.01 0.01 0 0.01 0.01 0.01 0 0.01 0 0.02 0.01 0.01 0 0.01 0 0.01 0 0.01 0 0 0zm0 0c0.05,0 0.09,0.04 0.09,0.08 0,0.05 -0.04,0.08 -0.09,0.08l0 -0.16zm0.29 0.16l-0.29 0 0 -0.16 0.29 0 0 0.16zm0 -0.16c0.05,0 0.08,0.04 0.08,0.08 0,0.05 -0.03,0.08 -0.08,0.08l0 -0.16zm1.84 -1.69c0,0.04 -0.04,0.08 -0.08,0.08 -0.04,0 -0.08,-0.04 -0.08,-0.08l0.16 0zm0 -0.32l0 0.32 -0.16 0 0 -0.32 0 0 0.16 0zm-0.16 0c0,-0.04 0.04,-0.08 0.08,-0.08 0.04,0 0.08,0.04 0.08,0.08l-0.16 0zm-0.24 -0.24l0 -0.16 0 0 0.02 0 0.02 0 0.02 0 0.02 0.01 0.02 0 0.02 0.01 0.02 0 0.01 0.01 0.02 0.01 0.02 0.01 0.02 0.01 0.01 0.01 0.02 0.01 0.01 0.01 0.02 0.01 0.01 0.02 0.02 0.01 0.01 0.02 0.01 0.01 0.01 0.02 0.01 0.01 0.01 0.02 0.01 0.02 0.01 0.01 0.01 0.02 0 0.02 0.01 0.02 0 0.02 0.01 0.02 0 0.02 0 0.02 0 0.02 -0.16 0 0 -0.01 0 -0.01 0 -0.02 -0.01 -0.01 0 -0.01 0 -0.01 -0.01 -0.01 0 -0.01 -0.01 -0.01 0 -0.01 -0.01 -0.01 0 -0.01 -0.01 -0.01 -0.01 -0.01 0 -0.01 -0.01 -0.01 -0.01 -0.01 -0.01 0 -0.01 -0.01 -0.01 -0.01 -0.01 0 -0.01 -0.01 -0.01 -0.01 -0.01 0 -0.01 -0.01 -0.01 0 -0.01 0 -0.01 0 -0.02 -0.01 -0.01 0 -0.01 0 -0.01 0 0 0zm0 0c-0.05,0 -0.08,-0.04 -0.08,-0.08 0,-0.05 0.03,-0.08 0.08,-0.08l0 0.16zm-0.29 -0.16l0.29 0 0 0.16 -0.29 0 0 -0.16zm0 0.16c-0.04,0 -0.08,-0.04 -0.08,-0.08 0,-0.05 0.04,-0.08 0.08,-0.08l0 0.16zm0 2.41c-0.04,0 -0.08,-0.03 -0.08,-0.08 0,-0.04 0.04,-0.08 0.08,-0.08l0 0.16zm0.29 0l-0.29 0 0 -0.16 0.29 0 0 0 0 0.16zm0 -0.16c0.04,0 0.08,0.04 0.08,0.08 0,0.05 -0.04,0.08 -0.08,0.08l0 -0.16zm0.24 -0.24l0.16 0 0 0 0 0.02 0 0.02 0 0.02 -0.01 0.02 0 0.02 -0.01 0.02 0 0.02 -0.01 0.02 -0.01 0.02 -0.01 0.01 -0.01 0.02 -0.01 0.02 -0.01 0.01 -0.01 0.02 -0.01 0.01 -0.02 0.02 -0.01 0.01 -0.02 0.01 -0.01 0.01 -0.02 0.02 -0.01 0.01 -0.02 0.01 -0.02 0 -0.02 0.01 -0.01 0.01 -0.02 0.01 -0.02 0 -0.02 0.01 -0.02 0 -0.02 0 -0.02 0 -0.02 0 0 -0.16 0.01 0 0.01 0 0.01 0 0.02 0 0.01 -0.01 0.01 0 0.01 0 0.01 -0.01 0.01 0 0.01 -0.01 0.01 0 0.01 -0.01 0.01 -0.01 0.01 0 0.01 -0.01 0.01 -0.01 0.01 -0.01 0 -0.01 0.01 0 0.01 -0.01 0 -0.01 0.01 -0.01 0 -0.01 0.01 -0.02 0 -0.01 0.01 -0.01 0 -0.01 0 -0.01 0.01 -0.01 0 -0.01 0 -0.02 0 -0.01 0 0zm0 0c0,-0.04 0.04,-0.08 0.08,-0.08 0.04,0 0.08,0.04 0.08,0.08l-0.16 0zm0.16 -0.3l0 0.3 -0.16 0 0 -0.3 0.16 0zm-0.16 0c0,-0.05 0.04,-0.08 0.08,-0.08 0.04,0 0.08,0.03 0.08,0.08l-0.16 0zm-1.68 -1.87c0.05,0 0.08,0.03 0.08,0.08 0,0.04 -0.03,0.08 -0.08,0.08l0 -0.16zm-0.29 0l0.29 0 0 0.16 -0.29 0 0 0 0 -0.16zm0 0.16c-0.04,0 -0.08,-0.04 -0.08,-0.08 0,-0.05 0.04,-0.08 0.08,-0.08l0 0.16zm-0.24 0.24l-0.16 0 0 0 0 -0.02 0 -0.02 0.01 -0.02 0 -0.02 0 -0.02 0.01 -0.02 0.01 -0.02 0 -0.02 0.01 -0.01 0.01 -0.02 0.01 -0.02 0.01 -0.01 0.01 -0.02 0.01 -0.01 0.02 -0.02 0.01 -0.01 0.01 -0.02 0.02 -0.01 0.01 -0.01 0.02 -0.01 0.02 -0.01 0.01 -0.01 0.02 -0.01 0.02 -0.01 0.02 -0.01 0.02 0 0.01 -0.01 0.02 0 0.02 -0.01 0.02 0 0.02 0 0.02 0 0 0.16 -0.01 0 -0.01 0 -0.01 0 -0.01 0.01 -0.02 0 -0.01 0 -0.01 0 -0.01 0.01 -0.01 0 -0.01 0.01 -0.01 0.01 -0.01 0 -0.01 0.01 -0.01 0.01 -0.01 0 -0.01 0.01 0 0.01 -0.01 0.01 -0.01 0.01 0 0.01 -0.01 0.01 -0.01 0.01 0 0.01 -0.01 0.01 0 0.01 -0.01 0.01 0 0.01 0 0.01 0 0.01 -0.01 0.02 0 0.01 0 0.01 0 0zm0 0c0,0.05 -0.03,0.08 -0.08,0.08 -0.04,0 -0.08,-0.03 -0.08,-0.08l0.16 0zm-0.16 0.32l0 -0.32 0.16 0 0 0.32 -0.16 0zm0.16 0c0,0.04 -0.03,0.08 -0.08,0.08 -0.04,0 -0.08,-0.04 -0.08,-0.08l0.16 0z"/>
    </g>
   </g>
   <rect fill="none" width="2.83" height="2.83"/>
  </g>
 </g>
</svg>
