<?xml version="1.0" encoding="UTF-8"?>
<!DOCTYPE svg PUBLIC "-//W3C//DTD SVG 1.0//EN" "http://www.w3.org/TR/2001/REC-SVG-20010904/DTD/svg10.dtd">
<!-- Creator: CorelDRAW -->
<svg xmlns="http://www.w3.org/2000/svg" xml:space="preserve" width="199px" height="199px" version="1.0" shape-rendering="geometricPrecision" text-rendering="geometricPrecision" image-rendering="optimizeQuality" fill-rule="evenodd" clip-rule="evenodd"
viewBox="0 0 2.83 2.83"
 xmlns:xlink="http://www.w3.org/1999/xlink"
 xmlns:xodm="http://www.corel.com/coreldraw/odm/2003">
 <g id="Layer_x0020_1">
  <metadata id="CorelCorpID_0Corel-Layer"/>
  <g id="_2219307519808">
   <g>
    <path fill="#C8C4C8" d="M0.56 2.15c0,0.06 0.13,0.22 0.19,0.27 0.19,0.16 0.47,0.21 0.7,0.14 0.08,-0.02 0.22,-0.09 0.29,-0.16 0.07,0.04 0.1,0.07 0.18,0.06 0.2,0 0.32,-0.14 0.3,-0.36 0.04,-0.04 0.08,-0.04 0.15,-0.13 0.13,-0.18 0.09,-0.45 -0.03,-0.56l-0.01 0.02c0,0.21 -0.09,0.37 -0.26,0.5 -0.08,0.06 -0.15,0.07 -0.23,0.11 -0.09,0.04 -0.14,0.11 -0.22,0.17 -0.22,0.18 -0.53,0.23 -0.81,0.11 -0.08,-0.04 -0.14,-0.08 -0.21,-0.13 -0.06,-0.05 -0.03,-0.04 -0.04,-0.04z"/>
    <path fill="#C8C4C8" d="M1.3 1.7c-0.13,-0.02 -0.27,0.05 -0.3,0.2 -0.06,0.32 0.43,0.43 0.5,0.1 0.02,-0.12 -0.05,-0.27 -0.2,-0.3z"/>
    <path fill="#C8C4C8" d="M1.85 1.6c-0.14,-0.01 -0.15,0.18 -0.02,0.2 0.12,0.01 0.15,-0.2 0.02,-0.2z"/>
    <path fill="#E0E0E0" d="M1.22 1.08c-0.29,0.01 -0.57,0.19 -0.68,0.48 -0.16,0.39 0.03,0.83 0.42,0.98 0.28,0.11 0.58,0.05 0.78,-0.13 0.03,0.02 0.05,0.03 0.08,0.04 0.16,0.06 0.33,-0.01 0.39,-0.16 0.03,-0.07 0.03,-0.14 0.01,-0.2 0.09,-0.04 0.16,-0.12 0.2,-0.22 0.09,-0.23 -0.02,-0.49 -0.24,-0.58 -0.03,-0.01 -0.05,-0.02 -0.07,-0.02 0.08,-0.23 -0.04,-0.48 -0.26,-0.57 -0.24,-0.09 -0.5,0.02 -0.6,0.26 -0.01,0.04 -0.02,0.08 -0.03,0.12z"/>
    <path fill="#E0E0E0" d="M1.42 0.35c-0.07,-0.03 -0.14,0.01 -0.17,0.07 -0.02,0.06 0.01,0.14 0.07,0.16 0.07,0.03 0.14,0 0.17,-0.07 0.02,-0.06 -0.01,-0.13 -0.07,-0.16z"/>
    <path fill="black" fill-opacity="0.160784" d="M1.34 1.71c-0.13,-0.05 -0.27,0.02 -0.32,0.15 -0.06,0.12 0.01,0.27 0.14,0.32 0.13,0.05 0.27,-0.01 0.32,-0.14 0.06,-0.13 -0.01,-0.27 -0.14,-0.33z"/>
    <path fill="black" fill-opacity="0.160784" d="M1.87 1.6c-0.05,-0.02 -0.1,0.01 -0.13,0.06 -0.02,0.05 0.01,0.11 0.06,0.13 0.05,0.02 0.11,-0.01 0.13,-0.06 0.02,-0.05 0,-0.11 -0.06,-0.13z"/>
    <path fill="black" fill-opacity="0.160784" d="M1.24 0.47c0.01,0.05 0.04,0.1 0.08,0.11 0.07,0.03 0.14,0 0.17,-0.07 0.02,-0.05 0,-0.11 -0.04,-0.14 0,0.02 0,0.04 -0.01,0.05 -0.02,0.07 -0.1,0.1 -0.16,0.07 -0.01,0 -0.02,-0.01 -0.04,-0.02z"/>
    <path fill="black" fill-opacity="0.160784" d="M0.54 2.14c0.08,0.18 0.23,0.33 0.42,0.4 0.28,0.11 0.58,0.05 0.78,-0.13 0.03,0.02 0.05,0.03 0.08,0.04 0.16,0.06 0.33,-0.01 0.39,-0.16 0.03,-0.07 0.03,-0.14 0.01,-0.2 0.09,-0.04 0.16,-0.12 0.2,-0.22 0.08,-0.19 0.02,-0.39 -0.12,-0.51 0.03,0.1 0.03,0.19 -0.01,0.29 -0.04,0.1 -0.12,0.19 -0.21,0.23 -0.3,0.15 -0.24,0.09 -0.47,0.31 -0.2,0.2 -0.59,0.22 -0.79,0.14 -0.19,-0.08 -0.2,-0.11 -0.28,-0.19z"/>
    <g>
     <path fill="#FD8C02" d="M0.65 1.3c-0.03,-0.05 -0.06,-0.09 -0.05,-0.17 0,-0.06 0.02,-0.12 0.05,-0.16 0.02,-0.04 0.06,-0.1 0.09,-0.13 0,0 0.01,-0.01 0.01,-0.01 0.02,-0.02 0.04,-0.04 0.06,-0.05 0.01,-0.02 0.03,-0.03 0.05,-0.04l0 0c-0.01,-0.02 0,-0.08 0,-0.1 0,-0.04 0,-0.07 0,-0.11l0 0c-0.03,-0.03 -0.07,-0.08 -0.09,-0.12 -0.01,-0.01 -0.02,-0.04 -0.02,-0.05l-0.05 0.04c-0.02,0.02 -0.03,0.03 -0.04,0.05l-0.04 0.05c-0.07,0.08 -0.13,0.18 -0.16,0.3 -0.03,0.14 -0.01,0.31 0.09,0.42 0.02,0.02 0.07,0.07 0.1,0.08z"/>
     <path fill="#FC6517" d="M0.86 0.53c0,0.04 0,0.07 0,0.11 0,0.02 -0.01,0.08 0,0.1 0.02,0.01 0.11,0.1 0.13,0.13 0.01,0 0.01,0.01 0.01,0.01 0.09,0.11 0.15,0.24 0.09,0.38 -0.01,0.01 -0.02,0.03 -0.03,0.04l-0.02 0.03c0.02,-0.01 0.03,-0.02 0.05,-0.03 0.01,-0.01 0.01,-0.01 0.02,-0.02 0.18,-0.13 0.19,-0.39 0.07,-0.59 -0.02,-0.05 -0.04,-0.06 -0.06,-0.09 -0.01,-0.01 -0.07,-0.07 -0.08,-0.08 -0.01,0.01 -0.03,0.08 -0.07,0.11 -0.01,0 -0.02,-0.01 -0.03,-0.02 -0.01,-0.01 -0.02,-0.02 -0.03,-0.02 -0.01,-0.01 -0.02,-0.02 -0.03,-0.03 -0.01,-0.01 -0.01,-0.02 -0.02,-0.03z"/>
     <path fill="#FC6517" d="M0.86 1.44l0 -0.07 -0.02 -0.01c-0.02,0.01 -0.09,-0.01 -0.11,-0.02 -0.02,0 -0.07,-0.03 -0.08,-0.04 -0.03,-0.01 -0.08,-0.06 -0.1,-0.08 -0.1,-0.11 -0.12,-0.28 -0.09,-0.42 0.03,-0.12 0.09,-0.22 0.16,-0.3l0.04 -0.05c0.01,-0.02 0.02,-0.03 0.04,-0.05l0.05 -0.04c0,0.01 0.01,0.04 0.02,0.05 0.02,0.04 0.06,0.09 0.09,0.12l0 -0.11 -0.03 -0.04c0,-0.01 -0.01,-0.03 -0.01,-0.04 -0.01,-0.02 -0.02,-0.08 -0.02,-0.1 -0.01,0 -0.02,0 -0.02,0.01l-0.06 0.04c-0.01,0.01 -0.02,0.02 -0.03,0.03 -0.03,0.03 -0.06,0.05 -0.09,0.08 0,0.01 -0.01,0.01 -0.01,0.02l-0.09 0.11c-0.03,0.04 -0.05,0.08 -0.07,0.13 -0.06,0.13 -0.07,0.31 -0.03,0.44 0.02,0.05 0.06,0.13 0.1,0.17 0.01,0.01 0.03,0.03 0.05,0.05 0.08,0.07 0.19,0.12 0.31,0.12z"/>
     <path fill="#FE433F" d="M0.86 0.42l0 0.11 0 0c0.01,0.01 0.01,0.02 0.02,0.03 0.01,0.01 0.02,0.02 0.03,0.03 0.01,0 0.02,0.01 0.03,0.02 0.01,0.01 0.02,0.02 0.03,0.02 0.04,-0.03 0.06,-0.1 0.07,-0.11 0.01,0.01 0.07,0.07 0.08,0.08 0.02,0.03 0.04,0.04 0.06,0.09 0.12,0.2 0.11,0.46 -0.07,0.59 -0.01,0.01 -0.01,0.01 -0.02,0.02 -0.02,0.01 -0.03,0.02 -0.05,0.03 -0.02,0.01 -0.04,0.02 -0.07,0.02 -0.03,0.01 -0.07,0.02 -0.11,0.02l0 0.07c0.1,0 0.18,-0.02 0.27,-0.08 0,0 0.01,-0.01 0.01,-0.01 0.04,-0.03 0.08,-0.07 0.1,-0.1 0.02,-0.02 0.04,-0.06 0.05,-0.08 0.03,-0.06 0.04,-0.11 0.04,-0.19 0.01,-0.07 -0.01,-0.15 -0.02,-0.2 -0.02,-0.06 -0.05,-0.11 -0.08,-0.15 -0.03,-0.05 -0.07,-0.09 -0.11,-0.13 -0.01,-0.01 -0.11,-0.1 -0.13,-0.1l-0.01 0.07c-0.01,0.02 -0.01,0.04 -0.02,0.06 -0.03,-0.02 -0.07,-0.07 -0.09,-0.1 -0.01,0 -0.01,-0.01 -0.01,-0.01z"/>
     <path fill="#FDAD02" d="M0.86 1c0.01,0.01 0.04,0.04 0.07,0.06 0.04,0.05 0.09,0.13 0.08,0.2 0,0.04 -0.02,0.06 -0.04,0.09 0.03,0 0.05,-0.01 0.07,-0.02l0.02 -0.03c0.01,-0.01 0.02,-0.03 0.03,-0.04 0.06,-0.14 0,-0.27 -0.09,-0.38 0,0 0,-0.01 -0.01,-0.01 -0.02,-0.03 -0.11,-0.12 -0.13,-0.13l0 0c0,0.03 -0.01,0.25 0,0.26z"/>
     <path fill="#FDCA02" d="M0.65 1.3c0.01,0.01 0.06,0.04 0.08,0.04 -0.02,-0.03 -0.03,-0.05 -0.03,-0.1 0,-0.09 0.06,-0.16 0.12,-0.21 0.01,-0.01 0.02,-0.03 0.03,-0.03l0.01 0c-0.01,-0.01 0,-0.23 0,-0.26 -0.02,0.01 -0.04,0.02 -0.05,0.04 -0.02,0.01 -0.04,0.03 -0.06,0.05 0,0 -0.01,0.01 -0.01,0.01 -0.03,0.03 -0.07,0.09 -0.09,0.13 -0.03,0.04 -0.05,0.1 -0.05,0.16 -0.01,0.08 0.02,0.12 0.05,0.17z"/>
     <path fill="#EFE2DC" d="M0.84 1.36l0.02 0.01c0.04,0 0.08,-0.01 0.11,-0.02 0.02,-0.03 0.04,-0.05 0.04,-0.09 0.01,-0.07 -0.04,-0.15 -0.08,-0.2 -0.03,-0.02 -0.06,-0.05 -0.07,-0.06l-0.01 0 0.01 0.37c-0.02,-0.01 -0.01,-0.01 -0.02,-0.01z"/>
     <path fill="#FFFAF4" d="M0.73 1.34c0.02,0.01 0.09,0.03 0.11,0.02 0.01,0 0,0 0.02,0.01l-0.01 -0.37c-0.01,0 -0.02,0.02 -0.03,0.03 -0.06,0.05 -0.12,0.12 -0.12,0.21 0,0.05 0.01,0.07 0.03,0.1z"/>
    </g>
   </g>
   <rect fill="none" width="2.83" height="2.83"/>
  </g>
 </g>
</svg>
