<?xml version="1.0" encoding="UTF-8"?>
<!DOCTYPE svg PUBLIC "-//W3C//DTD SVG 1.0//EN" "http://www.w3.org/TR/2001/REC-SVG-20010904/DTD/svg10.dtd">
<!-- Creator: CorelDRAW -->
<svg xmlns="http://www.w3.org/2000/svg" xml:space="preserve" width="199px" height="199px" version="1.0" shape-rendering="geometricPrecision" text-rendering="geometricPrecision" image-rendering="optimizeQuality" fill-rule="evenodd" clip-rule="evenodd"
viewBox="0 0 2.83 2.83"
 xmlns:xlink="http://www.w3.org/1999/xlink"
 xmlns:xodm="http://www.corel.com/coreldraw/odm/2003">
 <defs>
     <radialGradient id="id0" gradientUnits="userSpaceOnUse" gradientTransform="matrix(0.729012 -0 -0 1.04166 0 0)" cx="1.76" cy="1.85" r="1.37" fx="1.76" fy="1.85">
      <stop offset="0" stop-opacity="1" stop-color="#5E5E5E"/>
      <stop offset="1" stop-opacity="1" stop-color="#8D8F85"/>
     </radialGradient>
 </defs>
 <g id="Layer_x0020_1">
  <metadata id="CorelCorpID_0Corel-Layer"/>
  <g id="_2218844010672">
   <rect fill="none" width="2.83" height="2.83"/>
   <g>
    <path fill="gray" d="M0.38 0.31l0.13 0c0.08,0 0.15,0.07 0.15,0.16l0 0.79c0,0.08 -0.07,0.15 -0.15,0.15l-0.13 0 0 -1.1z"/>
    <path fill="#5E5F62" d="M1.79 0.07c-0.08,0 -0.14,0.08 -0.14,0.14 0,0.06 0.02,0.09 0.05,0.11l0 0.14 -0.48 0c-0.18,0 -0.37,0 -0.56,0 0,0.07 0,0.15 0,0.23 0,0.08 0,0.15 0,0.23 0.24,-0.19 0.59,-0.26 1.04,-0.27l0 0.14 0.18 0 0 -0.47c0.04,-0.02 0.05,-0.05 0.05,-0.11 0,-0.06 -0.06,-0.14 -0.14,-0.14zm0.03 2.55l-0.05 0c-0.04,0 -0.07,0.03 -0.07,0.07l0 0c0,0.04 0.03,0.07 0.07,0.07l0.05 0c0.03,0 0.07,-0.03 0.07,-0.07l0 0c0,-0.04 -0.04,-0.07 -0.07,-0.07z"/>
    <polygon fill="#FED266" points="1.79,1.46 1.79,2.34 1.42,2.34 1.25,1.46 "/>
    <polygon fill="#FEBC24" fill-rule="nonzero" points="1.79,1.46 1.79,2.34 2.16,2.34 2.33,1.46 "/>
    <path fill="black" fill-opacity="0.231373" d="M0.66 0.82l0 0.1c0.22,-0.18 0.54,-0.25 0.94,-0.27 0,0 0.09,0 0.1,0 -0.31,-0.04 -0.77,0 -1.04,0.17zm1.04 -0.07l0 0.04 0.18 0 0 -0.47c0.04,-0.02 0.05,-0.05 0.05,-0.11 0,-0.06 -0.05,-0.13 -0.13,-0.14 0.03,0.03 0.05,0.07 0.05,0.1 0,0.06 -0.02,0.08 -0.05,0.11l0 0.47 -0.1 0zm0.12 1.87l-0.03 0c0.01,0.01 0.01,0.02 0.01,0.03l0 0c0,0.04 -0.03,0.07 -0.07,0.07l-0.03 0c0.02,0.02 0.04,0.04 0.07,0.04l0.05 0c0.03,0 0.07,-0.03 0.07,-0.07l0 0c0,-0.04 -0.04,-0.07 -0.07,-0.07z"/>
    <path fill="url(#id0)" d="M2.24 2.34c-0.15,0 -0.3,0 -0.45,0 -0.15,0 -0.3,0 -0.45,0 -0.02,0 -0.03,0.01 -0.04,0.03 -0.01,0.02 0,0.04 0.01,0.06 0.03,0.02 0.06,0.04 0.09,0.07 0.07,0.05 0.13,0.09 0.19,0.14 0.01,0.01 0.02,0.01 0.03,0.01 0.06,0 0.11,0 0.17,0 0.06,0 0.12,0 0.18,0 0.01,0 0.02,0 0.02,-0.01 0.07,-0.05 0.13,-0.09 0.19,-0.14 0.03,-0.03 0.06,-0.05 0.09,-0.07 0.02,-0.02 0.02,-0.04 0.01,-0.06 0,-0.02 -0.02,-0.03 -0.04,-0.03zm0.17 -0.88c-0.21,0 -0.41,0 -0.62,0 -0.2,0 -0.41,0 -0.62,0 -0.02,0 -0.03,-0.02 -0.04,-0.03 -0.01,-0.02 0,-0.04 0.01,-0.06 0.1,-0.09 0.19,-0.18 0.26,-0.27 0.09,-0.1 0.16,-0.21 0.21,-0.32 0,-0.02 0.02,-0.03 0.04,-0.03 0.05,0 0.09,0 0.14,0 0.05,0 0.1,0 0.15,0 0.01,0 0.03,0.01 0.04,0.03 0.05,0.11 0.12,0.22 0.2,0.32 0.08,0.09 0.16,0.18 0.26,0.27 0.02,0.02 0.02,0.04 0.01,0.06 0,0.01 -0.02,0.03 -0.04,0.03z"/>
    <path fill="black" fill-opacity="0.141176" d="M2.24 2.34l-0.13 0c0.02,0 0.03,0.01 0.04,0.03 0,0.02 0,0.04 -0.02,0.06 -0.02,0.02 -0.05,0.04 -0.08,0.07 -0.05,0.05 -0.11,0.09 -0.16,0.14 -0.01,0.01 -0.02,0.01 -0.03,0.01l0.11 0c0.01,0 0.02,0 0.02,-0.01 0.07,-0.05 0.13,-0.09 0.19,-0.14 0.03,-0.03 0.06,-0.05 0.09,-0.07 0.02,-0.02 0.02,-0.04 0.01,-0.06 0,-0.02 -0.02,-0.03 -0.04,-0.03zm0.17 -0.88l-0.15 0c0.02,0 0.03,-0.02 0.04,-0.03 0.01,-0.02 0,-0.04 -0.01,-0.06 -0.09,-0.09 -0.17,-0.18 -0.23,-0.27 -0.08,-0.1 -0.14,-0.21 -0.19,-0.32 0,-0.02 -0.02,-0.03 -0.04,-0.03l0.11 0c0.01,0 0.03,0.01 0.04,0.03 0.05,0.11 0.12,0.22 0.2,0.32 0.08,0.09 0.16,0.18 0.26,0.27 0.02,0.02 0.02,0.04 0.01,0.06 0,0.01 -0.02,0.03 -0.04,0.03z"/>
    <polygon fill="black" fill-rule="nonzero" fill-opacity="0.168627" points="2.03,2.34 2.16,2.34 2.33,1.46 2.21,1.46 "/>
   </g>
  </g>
 </g>
</svg>
