<?xml version="1.0" encoding="UTF-8"?>
<!DOCTYPE svg PUBLIC "-//W3C//DTD SVG 1.0//EN" "http://www.w3.org/TR/2001/REC-SVG-20010904/DTD/svg10.dtd">
<!-- Creator: CorelDRAW -->
<svg xmlns="http://www.w3.org/2000/svg" xml:space="preserve" width="200px" height="200px" version="1.0" shape-rendering="geometricPrecision" text-rendering="geometricPrecision" image-rendering="optimizeQuality" fill-rule="evenodd" clip-rule="evenodd"
viewBox="0 0 3.01 3.01"
 xmlns:xlink="http://www.w3.org/1999/xlink"
 xmlns:xodm="http://www.corel.com/coreldraw/odm/2003">
 <g id="Layer_x0020_1">
  <metadata id="CorelCorpID_0Corel-Layer"/>
  <rect fill="none" width="3.01" height="3.01"/>
  <path fill="#FEC94E" d="M1.48 0.08c-0.24,0.01 -0.43,0.2 -0.44,0.44l0 0c0.03,0.19 0.19,0.33 0.38,0.33 0.22,0 0.39,-0.17 0.39,-0.39 0,-0.19 -0.14,-0.35 -0.33,-0.38l0 0zm-0.48 0.1c0.03,0.02 0.04,0.06 0.03,0.09 -0.02,0.03 -0.06,0.04 -0.09,0.02l-0.13 -0.07c-0.03,-0.02 -0.04,-0.06 -0.02,-0.09 0.01,-0.03 0.05,-0.04 0.08,-0.02l0.13 0.07zm1.07 0.11c-0.03,0.02 -0.07,0.01 -0.09,-0.02 -0.01,-0.03 0,-0.07 0.03,-0.09l0.13 -0.07c0.03,-0.02 0.07,-0.01 0.08,0.02 0.02,0.03 0.01,0.07 -0.02,0.09l-0.13 0.07zm-0.06 0.62c-0.03,-0.02 -0.04,-0.06 -0.03,-0.09 0.02,-0.03 0.06,-0.04 0.09,-0.02l0.22 0.13c0.04,0.01 0.05,0.05 0.03,0.08 -0.02,0.03 -0.06,0.05 -0.09,0.03l-0.22 -0.13zm-0.57 0.25c0,-0.03 0.03,-0.06 0.07,-0.06 0.03,0 0.06,0.03 0.06,0.06l0 0.32c0,0.03 -0.03,0.06 -0.06,0.06 -0.04,0 -0.07,-0.03 -0.07,-0.06l0 -0.32zm-0.5 -0.36c0.03,-0.02 0.07,-0.01 0.09,0.02 0.01,0.03 0,0.07 -0.03,0.09l-0.22 0.13c-0.03,0.02 -0.07,0 -0.09,-0.03 -0.02,-0.03 0,-0.07 0.03,-0.08l0.22 -0.13zm1.18 -0.19c-0.03,0 -0.06,-0.03 -0.06,-0.07 0,-0.03 0.03,-0.06 0.06,-0.06l0.2 0c0.04,0 0.07,0.03 0.07,0.06 0,0.04 -0.03,0.07 -0.07,0.07l-0.2 0zm-0.36 0.5c-0.02,-0.03 -0.01,-0.07 0.02,-0.09 0.03,-0.02 0.07,0 0.09,0.03l0.15 0.26c0.02,0.03 0.01,0.07 -0.02,0.08 -0.03,0.02 -0.07,0.01 -0.09,-0.02l-0.15 -0.26zm-0.62 -0.06c0.02,-0.03 0.06,-0.05 0.09,-0.03 0.03,0.02 0.04,0.06 0.02,0.09l-0.15 0.26c-0.01,0.03 -0.05,0.04 -0.09,0.02 -0.03,-0.01 -0.04,-0.05 -0.02,-0.08l0.15 -0.26zm-0.25 -0.57c0.03,0 0.06,0.03 0.06,0.06 0,0.04 -0.03,0.07 -0.06,0.07l-0.2 0c-0.04,0 -0.07,-0.03 -0.07,-0.07 0,-0.03 0.03,-0.06 0.07,-0.06l0.2 0z"/>
  <path fill="#FF6161" fill-rule="nonzero" d="M0.44 1.95c-0.03,0.02 -0.07,0.02 -0.09,-0.01 -0.03,-0.02 -0.02,-0.06 0,-0.09 0.16,-0.14 0.34,-0.25 0.54,-0.33 0.19,-0.08 0.4,-0.12 0.62,-0.12 0.21,0 0.42,0.04 0.61,0.12 0.2,0.08 0.38,0.19 0.54,0.33 0.03,0.03 0.03,0.07 0,0.09 -0.02,0.03 -0.06,0.03 -0.09,0.01 -0.14,-0.13 -0.31,-0.24 -0.49,-0.31 -0.18,-0.07 -0.38,-0.11 -0.57,-0.11 -0.2,0 -0.4,0.04 -0.58,0.11 -0.18,0.07 -0.35,0.18 -0.49,0.31z"/>
  <path fill="#FFBDBD" fill-rule="nonzero" d="M2.13 2.17c0.03,0.02 0.03,0.06 0.01,0.09 -0.02,0.03 -0.06,0.04 -0.09,0.02 -0.08,-0.06 -0.16,-0.1 -0.26,-0.13 -0.09,-0.02 -0.19,-0.04 -0.28,-0.04 -0.1,0 -0.2,0.02 -0.29,0.04 -0.09,0.03 -0.18,0.07 -0.26,0.13 -0.03,0.02 -0.07,0.01 -0.09,-0.02 -0.02,-0.03 -0.01,-0.07 0.02,-0.09 0.09,-0.06 0.19,-0.11 0.29,-0.14 0.11,-0.03 0.21,-0.05 0.33,-0.05 0.11,0 0.22,0.02 0.32,0.05 0.1,0.03 0.2,0.08 0.3,0.14z"/>
  <path fill="#FF8F8F" fill-rule="nonzero" d="M0.7 2.11c-0.03,0.02 -0.07,0.02 -0.1,-0.01 -0.02,-0.03 -0.01,-0.07 0.01,-0.09 0.13,-0.1 0.27,-0.18 0.42,-0.24 0.15,-0.05 0.31,-0.08 0.48,-0.08 0.16,0 0.32,0.03 0.47,0.08 0.15,0.06 0.29,0.14 0.42,0.24 0.02,0.02 0.03,0.06 0.01,0.09 -0.03,0.03 -0.07,0.03 -0.09,0.01 -0.12,-0.09 -0.25,-0.16 -0.38,-0.21 -0.14,-0.05 -0.28,-0.08 -0.43,-0.08 -0.16,0 -0.3,0.03 -0.43,0.08 -0.14,0.05 -0.27,0.12 -0.38,0.21z"/>
  <path fill="#B4D5E4" d="M1.88 2.5l-1.03 0c-0.09,0 -0.17,0.08 -0.17,0.18l0 0.16c0,0.09 0.08,0.17 0.17,0.17l1.03 0c0.1,0 0.18,-0.08 0.18,-0.17l0 -0.16c0,-0.1 -0.08,-0.18 -0.18,-0.18z"/>
  <path fill="#7FB8D1" d="M1.75 2.38l-0.69 0c-0.06,0 -0.1,0.04 -0.1,0.09l0 0.03 0.88 0 0 -0.03c0,-0.05 -0.04,-0.09 -0.09,-0.09z"/>
  <path fill="#6897AB" d="M2.05 2.5l0 -0.03c0,-0.05 -0.04,-0.09 -0.1,-0.09l-0.2 0c0.05,0 0.09,0.04 0.09,0.09l0 0.03 0.21 0z"/>
  <path fill="#94AFBB" d="M2.05 2.5l-0.21 0 0.04 0c0.1,0 0.18,0.08 0.18,0.18l0 0.16c0,0.09 -0.08,0.17 -0.18,0.17l0.28 0c0.09,0 0.17,-0.08 0.17,-0.17l0 -0.16c0,-0.1 -0.08,-0.18 -0.17,-0.18l-0.11 0z"/>
  <path fill="#FEB306" d="M1.51 0.08c-0.01,0 -0.02,0 -0.03,0 0.19,0.03 0.33,0.19 0.33,0.38 0,0.22 -0.17,0.39 -0.39,0.39 -0.19,0 -0.35,-0.14 -0.38,-0.33 0,0.01 0,0.02 0,0.02 0,0.26 0.21,0.47 0.47,0.47 0.25,0 0.46,-0.21 0.46,-0.47 0,-0.25 -0.21,-0.46 -0.46,-0.46z"/>
 </g>
</svg>
