<?xml version="1.0" encoding="UTF-8"?>
<!DOCTYPE svg PUBLIC "-//W3C//DTD SVG 1.1//EN" "http://www.w3.org/Graphics/SVG/1.1/DTD/svg11.dtd">
<!-- Creator: CorelDRAW -->
<svg xmlns="http://www.w3.org/2000/svg" xml:space="preserve" width="200px" height="200px" version="1.1" shape-rendering="geometricPrecision" text-rendering="geometricPrecision" image-rendering="optimizeQuality" fill-rule="evenodd" clip-rule="evenodd"
viewBox="0 0 2.86 2.86"
 xmlns:xlink="http://www.w3.org/1999/xlink"
 xmlns:xodm="http://www.corel.com/coreldraw/odm/2003">
 <g id="Layer_x0020_1">
  <metadata id="CorelCorpID_0Corel-Layer"/>
  <rect fill="none" width="2.86" height="2.86"/>
  <path fill="#5EC29F" d="M0.67 0.27c-0.06,0.03 -0.11,0.14 -0.14,0.21 -0.03,0.09 -0.05,0.19 -0.04,0.29 0,0.15 0.05,0.28 0.13,0.39 0.08,0.12 0.18,0.02 0.16,-0.05 0,-0.02 -0.04,-0.07 -0.06,-0.11 -0.1,-0.17 -0.09,-0.39 0.02,-0.55 0.02,-0.03 0.06,-0.07 0.04,-0.12 -0.01,-0.04 -0.06,-0.08 -0.11,-0.06z"/>
  <path fill="#5EC29F" d="M1.68 1.21c0.06,-0.02 0.11,-0.14 0.14,-0.21 0.03,-0.08 0.05,-0.19 0.04,-0.29 0,-0.15 -0.05,-0.28 -0.13,-0.38 -0.08,-0.13 -0.18,-0.03 -0.16,0.05 0,0.02 0.04,0.06 0.06,0.11 0.1,0.17 0.09,0.38 -0.02,0.54 -0.02,0.04 -0.06,0.07 -0.04,0.13 0.01,0.03 0.06,0.07 0.11,0.05z"/>
  <path fill="#2C7847" d="M1.17 0.88c0.08,0 0.14,-0.06 0.14,-0.14 0,-0.07 -0.06,-0.13 -0.14,-0.13 -0.07,0 -0.13,0.06 -0.13,0.13 0,0.08 0.06,0.14 0.13,0.14z"/>
  <path fill="#49A47B" d="M0.9 0.49c-0.08,0.02 -0.12,0.18 -0.11,0.28 0.02,0.34 0.27,0.23 0.2,0.1 -0.09,-0.18 0.01,-0.23 0.01,-0.3 0,-0.05 -0.05,-0.1 -0.1,-0.08z"/>
  <path fill="#49A47B" d="M1.45 1c0.08,-0.03 0.12,-0.19 0.11,-0.28 -0.02,-0.35 -0.27,-0.24 -0.2,-0.11 0.09,0.19 -0.01,0.23 -0.01,0.3 0,0.05 0.05,0.1 0.1,0.09z"/>
  <path fill="#71DFC1" d="M0.47 0.07c-0.07,0.03 -0.17,0.22 -0.19,0.29 -0.05,0.12 -0.09,0.26 -0.08,0.41 0.01,0.21 0.07,0.39 0.18,0.55 0.03,0.04 0.07,0.12 0.15,0.09 0.06,-0.02 0.07,-0.09 0.02,-0.15 -0.23,-0.28 -0.24,-0.71 -0.03,-1 0.02,-0.02 0.05,-0.06 0.06,-0.08 0.02,-0.06 -0.04,-0.13 -0.11,-0.11z"/>
  <path fill="#71DFC1" d="M1.88 1.41c0.07,-0.02 0.17,-0.22 0.19,-0.29 0.05,-0.12 0.08,-0.26 0.08,-0.41 -0.01,-0.21 -0.07,-0.39 -0.18,-0.55 -0.03,-0.04 -0.07,-0.12 -0.15,-0.09 -0.06,0.03 -0.07,0.1 -0.02,0.15 0.23,0.28 0.24,0.71 0.03,1.01 -0.02,0.01 -0.05,0.05 -0.06,0.07 -0.02,0.06 0.04,0.14 0.11,0.11z"/>
  <path fill="#95AECB" d="M1.68 0.75c-0.16,0.01 -0.32,0.03 -0.43,0.16 -0.04,0.05 -0.08,0.11 -0.1,0.19 -0.07,0.33 0.17,0.32 0.23,0.23 0.08,-0.09 -0.03,-0.21 0.15,-0.29 0.03,-0.01 0.02,-0.02 0.05,-0.09 0.03,-0.1 0.02,-0.1 0.08,-0.17 0.01,0 0.01,-0.01 0.01,-0.01 0.01,-0.01 0,0 0.01,-0.02zm0.74 1.85c-0.01,-0.03 -0.02,-0.07 -0.04,-0.13 -0.03,-0.1 -0.07,-0.19 -0.1,-0.29 -0.04,-0.11 -0.06,-0.16 -0.13,-0.24l-0.17 -0.2c-0.08,-0.1 -0.05,-0.17 -0.01,-0.29 0.02,-0.1 0.05,-0.2 0.08,-0.3 0.03,-0.11 0.07,-0.21 0,-0.3 -0.05,-0.07 -0.15,-0.13 -0.27,-0.09 -0.1,0.04 -0.12,0.11 -0.16,0.22 -0.03,0.09 -0.06,0.19 -0.09,0.28 -0.08,0.25 -0.16,0.36 0.03,0.54 0.09,0.09 0.32,0.29 0.37,0.38 0.06,0.1 0.11,0.38 0.15,0.51 0.06,0.19 0.39,0.11 0.34,-0.09zm-1.15 0.09l0.22 -0.26c0.11,-0.12 0.18,-0.24 0.22,-0.41l-0.25 -0.25 -0.11 0.29c-0.03,0.07 -0.08,0.12 -0.12,0.17l-0.19 0.21c-0.03,0.05 -0.1,0.11 -0.05,0.22 0.05,0.11 0.19,0.13 0.28,0.03zm0.92 -1.89c0.16,0 0.29,-0.13 0.29,-0.29 0,-0.16 -0.13,-0.29 -0.29,-0.29 -0.16,0 -0.28,0.13 -0.28,0.29 0,0.16 0.12,0.29 0.28,0.29zm-0.05 0.2l-0.09 0.34c-0.01,0.04 0.14,0.16 0.3,0.14 0.07,-0.02 0.14,-0.06 0.21,-0.09 0.07,-0.04 0.12,-0.09 0.09,-0.18 -0.02,-0.07 -0.11,-0.12 -0.19,-0.07 -0.21,0.1 -0.15,0.12 -0.32,-0.14z"/>
 </g>
</svg>
