<?xml version="1.0" encoding="UTF-8"?>
<!DOCTYPE svg PUBLIC "-//W3C//DTD SVG 1.0//EN" "http://www.w3.org/TR/2001/REC-SVG-20010904/DTD/svg10.dtd">
<!-- Creator: CorelDRAW -->
<svg xmlns="http://www.w3.org/2000/svg" xml:space="preserve" width="200px" height="200px" version="1.0" shape-rendering="geometricPrecision" text-rendering="geometricPrecision" image-rendering="optimizeQuality" fill-rule="evenodd" clip-rule="evenodd"
viewBox="0 0 3.04 3.04"
 xmlns:xlink="http://www.w3.org/1999/xlink"
 xmlns:xodm="http://www.corel.com/coreldraw/odm/2003">
 <defs>
     <linearGradient id="id0" gradientUnits="userSpaceOnUse" x1="2.44" y1="2.25" x2="0.59" y2="0.79">
      <stop offset="0" stop-opacity="1" stop-color="#147A2B"/>
      <stop offset="1" stop-opacity="1" stop-color="#4AAA6D"/>
     </linearGradient>
 </defs>
 <g id="Layer_x0020_1">
  <metadata id="CorelCorpID_0Corel-Layer"/>
  <g id="_2738651929856">
   <g>
    <path fill="url(#id0)" d="M1.52 2.78c1.06,-0.68 1.12,-1.11 1.12,-2.12 -0.15,-0.02 -0.27,-0.15 -0.27,-0.31 0,-0.01 0,-0.02 0,-0.02 -0.56,-0.1 -1.14,-0.1 -1.7,0 0,0 0,0.01 0,0.02 0,0.16 -0.12,0.29 -0.27,0.31 0,1.01 0.06,1.44 1.12,2.12z"/>
    <g>
     <path fill="#E6E6E6" d="M1.4 2.11c0,-0.05 0.02,-0.1 0.03,-0.15 0,-0.03 0,-0.05 0.01,-0.08 0.01,-0.04 0.01,-0.03 -0.01,-0.06 -0.03,-0.03 -0.05,-0.08 -0.02,-0.13 0.04,-0.1 0.17,-0.1 0.22,-0.01 0.02,0.05 0.01,0.1 -0.02,0.14 -0.02,0.02 -0.02,0.02 -0.01,0.06 0,0.03 0.01,0.05 0.01,0.08 0.01,0.05 0.02,0.1 0.03,0.15 0.08,0 0.17,0 0.25,0 0.04,0 0.09,0 0.13,0 0.02,0 0.03,0 0.05,-0.01 0.01,-0.01 0.02,-0.02 0.03,-0.04 0,-0.02 0,-0.47 0,-0.5 0,-0.11 0,-0.09 -0.1,-0.16 -0.05,-0.03 -0.1,-0.06 -0.16,-0.09 -0.02,-0.01 -0.05,-0.03 -0.08,-0.05l-0.15 -0.09c-0.1,-0.06 -0.09,-0.05 -0.18,0 -0.02,0.02 -0.05,0.03 -0.08,0.05 -0.02,0.01 -0.05,0.03 -0.08,0.04l-0.23 0.14c-0.1,0.06 -0.1,0.05 -0.1,0.16 0,0.04 0,0.47 0,0.5 0.01,0.03 0.03,0.05 0.08,0.05l0.38 0z"/>
     <path fill="#CCCCCC" d="M1.02 1.35l0.17 -0.1c0,-0.07 0,-0.14 0,-0.21 0,-0.08 0.02,-0.12 0.05,-0.18 0.04,-0.08 0.14,-0.15 0.28,-0.16 0.18,0 0.33,0.15 0.33,0.33 0,0.07 0,0.15 0,0.22l0.03 0.02c0,-0.03 0,-0.06 0,-0.09 0,-0.02 0,-0.04 0,-0.05 0.01,0 0.02,-0.01 0.04,0 0.02,0.01 0.01,0.05 0.01,0.07 0,0.04 0,0.07 0,0.1 0.02,0.01 0.06,0.04 0.08,0.05 0.01,-0.03 0,-0.28 0,-0.33 0,-0.1 -0.03,-0.18 -0.07,-0.25 -0.15,-0.24 -0.48,-0.31 -0.72,-0.13 -0.01,0.01 -0.02,0.01 -0.03,0.02 -0.02,0.02 -0.07,0.08 -0.09,0.11 -0.05,0.07 -0.07,0.15 -0.08,0.25 0,0.11 0,0.22 0,0.33zm0.28 -0.72c-0.09,0.03 -0.15,0.11 -0.19,0.19 -0.01,0.01 -0.02,0.04 -0.02,0.05 -0.01,0.01 0.01,0.03 0.03,0.02 0.01,0 0.05,-0.1 0.09,-0.14 0.01,0 0.01,-0.01 0.01,-0.01 0.04,-0.04 0.11,-0.08 0.11,-0.09 0.01,-0.02 -0.01,-0.03 -0.03,-0.02zm0.6 0.38c-0.02,0.01 -0.02,0.02 -0.02,0.05 0,0.01 0.01,0.03 0.03,0.02 0.03,0 0.03,-0.08 -0.01,-0.07z"/>
    </g>
    <path fill="black" fill-opacity="0.121569" d="M1.52 2.78c1.06,-0.68 1.12,-1.11 1.12,-2.12 -0.15,-0.02 -0.27,-0.15 -0.27,-0.31 0,-0.01 0,-0.02 0,-0.02 -0.32,-0.06 -0.64,-0.08 -0.96,-0.08 0.25,0.01 0.5,0.03 0.74,0.08 0,0 0,0.01 0,0.02 0,0.16 0.12,0.29 0.27,0.31 0,0.97 -0.06,1.41 -1.01,2.05 0.03,0.03 0.07,0.05 0.11,0.07z"/>
   </g>
   <rect fill="none" width="3.04" height="3.04"/>
  </g>
 </g>
</svg>
