<?xml version="1.0" encoding="UTF-8"?>
<!DOCTYPE svg PUBLIC "-//W3C//DTD SVG 1.0//EN" "http://www.w3.org/TR/2001/REC-SVG-20010904/DTD/svg10.dtd">
<!-- Creator: CorelDRAW -->
<svg xmlns="http://www.w3.org/2000/svg" xml:space="preserve" width="200px" height="200px" version="1.0" shape-rendering="geometricPrecision" text-rendering="geometricPrecision" image-rendering="optimizeQuality" fill-rule="evenodd" clip-rule="evenodd"
viewBox="0 0 2.86 2.86"
 xmlns:xlink="http://www.w3.org/1999/xlink"
 xmlns:xodm="http://www.corel.com/coreldraw/odm/2003">
 <g id="Layer_x0020_1">
  <metadata id="CorelCorpID_0Corel-Layer"/>
  <g id="_2303909403856">
   <path fill="#C8C4C8" d="M0.47 2.26c0,0.06 0.15,0.24 0.22,0.29 0.21,0.19 0.52,0.25 0.78,0.17 0.08,-0.03 0.25,-0.1 0.32,-0.18 0.08,0.04 0.11,0.07 0.21,0.07 0.21,-0.01 0.36,-0.17 0.33,-0.41 0.05,-0.04 0.09,-0.05 0.17,-0.15 0.14,-0.2 0.11,-0.51 -0.04,-0.63l0 0.03c-0.01,0.24 -0.1,0.42 -0.29,0.56 -0.1,0.07 -0.17,0.08 -0.27,0.12 -0.1,0.05 -0.15,0.12 -0.24,0.19 -0.25,0.2 -0.6,0.26 -0.91,0.12 -0.09,-0.04 -0.16,-0.08 -0.23,-0.14 -0.07,-0.06 -0.04,-0.05 -0.05,-0.04z"/>
   <path fill="#C8C4C8" d="M1.3 1.75c-0.14,-0.03 -0.3,0.05 -0.33,0.22 -0.08,0.36 0.47,0.49 0.55,0.11 0.03,-0.13 -0.05,-0.29 -0.22,-0.33z"/>
   <path fill="#C8C4C8" d="M1.91 1.63c-0.15,-0.01 -0.16,0.21 -0.01,0.23 0.13,0.01 0.17,-0.22 0.01,-0.23z"/>
   <path fill="#E0E0E0" d="M1.22 1.05c-0.34,0.01 -0.65,0.21 -0.78,0.54 -0.17,0.44 0.04,0.93 0.48,1.1 0.31,0.13 0.65,0.06 0.88,-0.15 0.02,0.02 0.05,0.04 0.09,0.05 0.17,0.07 0.36,-0.01 0.43,-0.18 0.03,-0.08 0.03,-0.15 0.01,-0.22 0.1,-0.05 0.19,-0.14 0.23,-0.26 0.1,-0.25 -0.02,-0.54 -0.28,-0.64 -0.02,-0.01 -0.05,-0.02 -0.07,-0.02 0.08,-0.26 -0.04,-0.54 -0.3,-0.64 -0.26,-0.11 -0.56,0.02 -0.66,0.28 -0.02,0.05 -0.03,0.1 -0.03,0.14z"/>
   <path fill="#E0E0E0" d="M1.43 0.23c-0.07,-0.03 -0.15,0.01 -0.18,0.08 -0.03,0.08 0,0.16 0.08,0.19 0.07,0.03 0.15,-0.01 0.18,-0.08 0.03,-0.08 -0.01,-0.16 -0.08,-0.19z"/>
   <path fill="black" fill-opacity="0.160784" d="M1.35 1.76c-0.15,-0.05 -0.31,0.02 -0.37,0.16 -0.06,0.15 0.01,0.31 0.16,0.37 0.14,0.06 0.31,-0.01 0.37,-0.16 0.05,-0.14 -0.02,-0.31 -0.16,-0.37z"/>
   <path fill="black" fill-opacity="0.160784" d="M1.95 1.64c-0.06,-0.02 -0.13,0 -0.15,0.06 -0.02,0.06 0,0.12 0.06,0.15 0.06,0.02 0.13,-0.01 0.15,-0.07 0.02,-0.05 -0.01,-0.12 -0.06,-0.14z"/>
   <path fill="black" fill-opacity="0.160784" d="M1.24 0.37c0,0.06 0.03,0.11 0.09,0.13 0.07,0.03 0.15,-0.01 0.18,-0.08 0.02,-0.06 0.01,-0.12 -0.04,-0.16 0,0.02 0,0.04 -0.01,0.06 -0.03,0.07 -0.11,0.1 -0.18,0.08 -0.02,-0.01 -0.03,-0.02 -0.04,-0.03z"/>
   <path fill="black" fill-opacity="0.160784" d="M0.45 2.24c0.09,0.2 0.25,0.37 0.47,0.45 0.31,0.13 0.65,0.06 0.88,-0.15 0.02,0.02 0.05,0.04 0.09,0.05 0.17,0.07 0.36,-0.01 0.43,-0.18 0.03,-0.08 0.03,-0.15 0.01,-0.22 0.1,-0.05 0.19,-0.14 0.23,-0.26 0.08,-0.2 0.02,-0.42 -0.14,-0.56 0.03,0.11 0.03,0.22 -0.01,0.33 -0.05,0.11 -0.13,0.2 -0.23,0.25 -0.34,0.16 -0.28,0.1 -0.54,0.35 -0.22,0.22 -0.66,0.24 -0.87,0.16 -0.22,-0.09 -0.23,-0.13 -0.32,-0.22z"/>
   <path fill="#FD8C02" d="M0.57 1.3c-0.03,-0.06 -0.06,-0.1 -0.06,-0.19 0,-0.07 0.03,-0.13 0.06,-0.18 0.02,-0.05 0.07,-0.11 0.1,-0.14 0.01,-0.01 0.01,-0.01 0.02,-0.02 0.02,-0.02 0.03,-0.04 0.06,-0.06 0.01,-0.01 0.03,-0.03 0.05,-0.04l0 0c0,-0.02 0,-0.09 0,-0.11 0,-0.04 0,-0.08 0,-0.12l0 0c-0.03,-0.03 -0.08,-0.09 -0.1,-0.14 0,-0.01 -0.01,-0.04 -0.02,-0.05l-0.05 0.04c-0.02,0.02 -0.04,0.04 -0.05,0.05l-0.05 0.06c-0.08,0.09 -0.14,0.2 -0.17,0.33 -0.04,0.17 -0.02,0.36 0.1,0.48 0.02,0.02 0.08,0.08 0.11,0.09z"/>
   <path fill="#FC6517" d="M0.8 0.44c0,0.04 0,0.08 0,0.12 0,0.02 0,0.09 0,0.11 0.03,0.01 0.13,0.11 0.15,0.14 0.01,0.01 0.01,0.01 0.02,0.02 0.09,0.12 0.17,0.27 0.09,0.43 -0.01,0.01 -0.01,0.02 -0.02,0.04l-0.03 0.03c0.02,-0.01 0.04,-0.02 0.05,-0.03 0.01,-0.01 0.02,-0.01 0.03,-0.02 0.2,-0.15 0.21,-0.45 0.08,-0.66 -0.03,-0.06 -0.04,-0.07 -0.07,-0.1 -0.02,-0.02 -0.08,-0.09 -0.09,-0.09 -0.01,0.01 -0.04,0.08 -0.08,0.12 -0.01,0 -0.02,-0.01 -0.03,-0.02 -0.01,-0.01 -0.02,-0.02 -0.04,-0.03 -0.01,-0.01 -0.02,-0.02 -0.03,-0.03 -0.01,-0.01 -0.02,-0.02 -0.03,-0.03z"/>
   <path fill="#FC6517" d="M0.8 1.45l0 -0.07 -0.02 -0.01c-0.02,0.01 -0.1,-0.01 -0.12,-0.02 -0.02,-0.01 -0.08,-0.04 -0.09,-0.05 -0.03,-0.01 -0.09,-0.07 -0.11,-0.09 -0.12,-0.12 -0.14,-0.31 -0.1,-0.48 0.03,-0.13 0.09,-0.24 0.17,-0.33l0.05 -0.06c0.01,-0.01 0.03,-0.03 0.05,-0.05l0.05 -0.04c0.01,0.01 0.02,0.04 0.02,0.05 0.02,0.05 0.07,0.11 0.1,0.14l0 -0.13 -0.02 -0.04c-0.01,-0.01 -0.02,-0.04 -0.02,-0.05 -0.01,-0.02 -0.02,-0.09 -0.02,-0.11 -0.01,0 -0.02,0.01 -0.03,0.01l-0.06 0.05c-0.01,0.01 -0.03,0.02 -0.04,0.03 -0.03,0.03 -0.06,0.06 -0.09,0.09 -0.01,0.01 -0.01,0.01 -0.02,0.02l-0.1 0.13c-0.03,0.04 -0.05,0.09 -0.07,0.14 -0.07,0.14 -0.09,0.35 -0.04,0.5 0.02,0.06 0.07,0.14 0.11,0.18 0.02,0.02 0.03,0.04 0.06,0.06 0.09,0.08 0.22,0.13 0.34,0.13z"/>
   <path fill="#FE433F" d="M0.8 0.31l0 0.13 0 0c0.01,0.01 0.02,0.02 0.03,0.03 0.01,0.01 0.02,0.02 0.03,0.03 0.02,0.01 0.03,0.02 0.04,0.03 0.01,0.01 0.02,0.02 0.03,0.02 0.04,-0.04 0.07,-0.11 0.08,-0.12 0.01,0 0.07,0.07 0.09,0.09 0.03,0.03 0.04,0.04 0.07,0.1 0.13,0.21 0.12,0.51 -0.08,0.66 -0.01,0.01 -0.02,0.01 -0.03,0.02 -0.01,0.01 -0.03,0.02 -0.05,0.03 -0.03,0.01 -0.05,0.02 -0.08,0.03 -0.04,0.01 -0.08,0.02 -0.13,0.02l0 0.07c0.12,0 0.21,-0.02 0.3,-0.08 0.01,-0.01 0.02,-0.01 0.02,-0.01 0.05,-0.03 0.09,-0.08 0.12,-0.12 0.01,-0.02 0.04,-0.06 0.05,-0.08 0.03,-0.08 0.04,-0.12 0.05,-0.21 0,-0.08 -0.01,-0.17 -0.03,-0.23 -0.03,-0.07 -0.06,-0.12 -0.09,-0.18 -0.03,-0.04 -0.08,-0.1 -0.12,-0.14 -0.01,-0.01 -0.13,-0.11 -0.15,-0.11l-0.01 0.08c-0.01,0.02 -0.01,0.04 -0.03,0.07 -0.02,-0.02 -0.07,-0.08 -0.09,-0.11 -0.01,-0.01 -0.01,-0.01 -0.02,-0.02z"/>
   <path fill="#FDAD02" d="M0.8 0.96c0.02,0.02 0.05,0.04 0.08,0.07 0.05,0.06 0.1,0.15 0.1,0.22 -0.01,0.06 -0.03,0.08 -0.05,0.11 0.03,-0.01 0.05,-0.02 0.08,-0.03l0.03 -0.03c0.01,-0.02 0.01,-0.03 0.02,-0.04 0.08,-0.16 0,-0.31 -0.09,-0.43 -0.01,-0.01 -0.01,-0.01 -0.02,-0.02 -0.02,-0.03 -0.12,-0.13 -0.15,-0.14l0 0c0,0.04 0,0.28 0,0.29z"/>
   <path fill="#FDCA02" d="M0.57 1.3c0.01,0.01 0.07,0.04 0.09,0.05 -0.02,-0.04 -0.04,-0.06 -0.04,-0.12 0.01,-0.1 0.07,-0.17 0.14,-0.24 0.01,-0.01 0.03,-0.02 0.04,-0.03l0 0c0,-0.01 0,-0.25 0,-0.29 -0.02,0.01 -0.04,0.03 -0.05,0.04 -0.03,0.02 -0.04,0.04 -0.06,0.06 -0.01,0.01 -0.01,0.01 -0.02,0.02 -0.03,0.03 -0.08,0.09 -0.1,0.14 -0.03,0.05 -0.06,0.11 -0.06,0.18 0,0.09 0.03,0.13 0.06,0.19z"/>
   <path fill="#EFE2DC" d="M0.78 1.37l0.02 0.01c0.05,0 0.09,-0.01 0.13,-0.02 0.02,-0.03 0.04,-0.05 0.05,-0.11 0,-0.07 -0.05,-0.16 -0.1,-0.22 -0.03,-0.03 -0.06,-0.05 -0.08,-0.07l0 0 0 0.41c-0.01,0 -0.01,0 -0.02,0z"/>
   <path fill="#FFFAF4" d="M0.66 1.35c0.02,0.01 0.1,0.03 0.12,0.02 0.01,0 0.01,0 0.02,0l0 -0.41c-0.01,0.01 -0.03,0.02 -0.04,0.03 -0.07,0.07 -0.13,0.14 -0.14,0.24 0,0.06 0.02,0.08 0.04,0.12z"/>
   <rect fill="none" width="2.86" height="2.86"/>
  </g>
 </g>
</svg>
