<?xml version="1.0" encoding="UTF-8"?>
<!DOCTYPE svg PUBLIC "-//W3C//DTD SVG 1.1//EN" "http://www.w3.org/Graphics/SVG/1.1/DTD/svg11.dtd">
<!-- Creator: CorelDRAW -->
<svg xmlns="http://www.w3.org/2000/svg" xml:space="preserve" width="200px" height="200px" version="1.1" shape-rendering="geometricPrecision" text-rendering="geometricPrecision" image-rendering="optimizeQuality" fill-rule="evenodd" clip-rule="evenodd"
viewBox="0 0 2.86 2.86"
 xmlns:xlink="http://www.w3.org/1999/xlink"
 xmlns:xodm="http://www.corel.com/coreldraw/odm/2003">
 <g id="Layer_x0020_1">
  <metadata id="CorelCorpID_0Corel-Layer"/>
  <g id="_2053428535312">
   <g>
    <path fill="#85ADDB" d="M1.27 1.87c-0.15,0.06 -0.26,0.21 -0.26,0.39 0,0.24 0.19,0.43 0.42,0.43 0.24,0 0.43,-0.19 0.43,-0.43 0,-0.18 -0.11,-0.33 -0.27,-0.39l0 -1.54c0,-0.08 -0.07,-0.15 -0.16,-0.15 -0.09,0 -0.16,0.07 -0.16,0.15l0 1.54zm-0.34 0.06c0.05,-0.07 0.1,-0.12 0.17,-0.17l0 -1.43c0,-0.09 0.03,-0.17 0.1,-0.23 0.06,-0.06 0.14,-0.1 0.23,-0.1 0.09,0 0.18,0.04 0.24,0.1l0 0c0.06,0.06 0.09,0.14 0.09,0.23l0 1.43c0.07,0.05 0.12,0.1 0.17,0.17 0.06,0.09 0.1,0.21 0.1,0.33 0,0.17 -0.06,0.32 -0.17,0.43l0 0c-0.11,0.11 -0.26,0.17 -0.43,0.17 -0.16,0 -0.32,-0.06 -0.42,-0.17l0 0 0 0c-0.11,-0.11 -0.18,-0.26 -0.18,-0.43 0,-0.12 0.04,-0.24 0.1,-0.33z"/>
   </g>
   <g>
    <path fill="#85ADDB" fill-rule="nonzero" d="M1.97 1.7c-0.02,0 -0.03,-0.01 -0.03,-0.03 0,-0.01 0.01,-0.02 0.03,-0.02l0 0.05zm0.24 0l-0.24 0 0 -0.05 0.24 0 0 0.05zm0 -0.05c0.01,0 0.02,0.01 0.02,0.02 0,0.02 -0.01,0.03 -0.02,0.03l0 -0.05z"/>
   </g>
   <g>
    <path fill="#85ADDB" fill-rule="nonzero" d="M1.97 1.51c-0.02,0 -0.03,-0.02 -0.03,-0.03 0,-0.02 0.01,-0.03 0.03,-0.03l0 0.06zm0.44 0l-0.44 0 0 -0.06 0.44 0 0 0.06zm0 -0.06c0.01,0 0.03,0.01 0.03,0.03 0,0.01 -0.02,0.03 -0.03,0.03l0 -0.06z"/>
   </g>
   <g>
    <path fill="#85ADDB" fill-rule="nonzero" d="M1.97 1.31c-0.02,0 -0.03,-0.01 -0.03,-0.03 0,-0.01 0.01,-0.02 0.03,-0.02l0 0.05zm0.24 0l-0.24 0 0 -0.05 0.24 0 0 0.05zm0 -0.05c0.01,0 0.02,0.01 0.02,0.02 0,0.02 -0.01,0.03 -0.02,0.03l0 -0.05z"/>
   </g>
   <g>
    <path fill="#85ADDB" fill-rule="nonzero" d="M1.97 0.92c-0.02,0 -0.03,-0.01 -0.03,-0.03 0,-0.01 0.01,-0.02 0.03,-0.02l0 0.05zm0.24 0l-0.24 0 0 -0.05 0.24 0 0 0.05zm0 -0.05c0.01,0 0.02,0.01 0.02,0.02 0,0.02 -0.01,0.03 -0.02,0.03l0 -0.05z"/>
   </g>
   <g>
    <path fill="#85ADDB" fill-rule="nonzero" d="M1.97 0.53c-0.02,0 -0.03,-0.01 -0.03,-0.03 0,-0.01 0.01,-0.02 0.03,-0.02l0 0.05zm0.24 0l-0.24 0 0 -0.05 0.24 0 0 0.05zm0 -0.05c0.01,0 0.02,0.01 0.02,0.02 0,0.02 -0.01,0.03 -0.02,0.03l0 -0.05z"/>
   </g>
   <g>
    <path fill="#85ADDB" fill-rule="nonzero" d="M1.97 1.11c-0.02,0 -0.03,-0.01 -0.03,-0.02 0,-0.02 0.01,-0.03 0.03,-0.03l0 0.05zm0.44 0l-0.44 0 0 -0.05 0.44 0 0 0.05zm0 -0.05c0.01,0 0.03,0.01 0.03,0.03 0,0.01 -0.02,0.02 -0.03,0.02l0 -0.05z"/>
   </g>
   <g>
    <path fill="#85ADDB" fill-rule="nonzero" d="M1.97 0.72c-0.02,0 -0.03,-0.01 -0.03,-0.02 0,-0.02 0.01,-0.03 0.03,-0.03l0 0.05zm0.44 0l-0.44 0 0 -0.05 0.44 0 0 0.05zm0 -0.05c0.01,0 0.03,0.01 0.03,0.03 0,0.01 -0.02,0.02 -0.03,0.02l0 -0.05z"/>
   </g>
   <g>
    <path fill="#85ADDB" fill-rule="nonzero" d="M1.97 0.33c-0.02,0 -0.03,-0.01 -0.03,-0.02 0,-0.02 0.01,-0.03 0.03,-0.03l0 0.05zm0.44 0l-0.44 0 0 -0.05 0.44 0 0 0.05zm0 -0.05c0.01,0 0.03,0.01 0.03,0.03 0,0.01 -0.02,0.02 -0.03,0.02l0 -0.05z"/>
   </g>
   <path fill="#FE5252" d="M1.59 0.7l-0.32 0 0 1.17c-0.15,0.06 -0.26,0.21 -0.26,0.39 0,0.24 0.19,0.43 0.42,0.43 0.24,0 0.43,-0.19 0.43,-0.43 0,-0.18 -0.11,-0.33 -0.27,-0.39l0 -1.17z"/>
   <path fill="#BA0000" fill-opacity="0.180392" d="M1.59 0.7l-0.14 0 0 1.19c0.16,0.06 0.27,0.22 0.27,0.4 0,0.18 -0.11,0.33 -0.26,0.4 0.22,-0.02 0.4,-0.2 0.4,-0.43 0,-0.18 -0.11,-0.33 -0.27,-0.39l0 -1.17z"/>
   <rect fill="none" width="2.86" height="2.86"/>
  </g>
 </g>
</svg>
