<?xml version="1.0" encoding="UTF-8"?>
<!DOCTYPE svg PUBLIC "-//W3C//DTD SVG 1.0//EN" "http://www.w3.org/TR/2001/REC-SVG-20010904/DTD/svg10.dtd">
<!-- Creator: CorelDRAW -->
<svg xmlns="http://www.w3.org/2000/svg" xml:space="preserve" width="199px" height="199px" version="1.0" shape-rendering="geometricPrecision" text-rendering="geometricPrecision" image-rendering="optimizeQuality" fill-rule="evenodd" clip-rule="evenodd"
viewBox="0 0 2.83 2.83"
 xmlns:xlink="http://www.w3.org/1999/xlink"
 xmlns:xodm="http://www.corel.com/coreldraw/odm/2003">
 <defs>
     <linearGradient id="id0" gradientUnits="userSpaceOnUse" x1="1.42" y1="1.2" x2="1.42" y2="2.3">
      <stop offset="0" stop-opacity="1" stop-color="#7CD7EE"/>
      <stop offset="1" stop-opacity="1" stop-color="#478AFF"/>
     </linearGradient>
 </defs>
 <g id="Layer_x0020_1">
  <metadata id="CorelCorpID_0Corel-Layer"/>
  <g id="_2219309883984">
   <g>
    <path fill="url(#id0)" d="M2.43 1.26c-0.73,-0.2 -1.17,0.17 -2.02,0l0 1.04 2.02 0 0 -1.04z"/>
    <g>
     <path fill="#9DB0C3" fill-rule="nonzero" d="M0.19 2.13l0 -1.67 0.22 0 0 1.67 0 0 -0.22 0zm0.36 0.14l0 0.21 0 0 -0.02 0 -0.02 0 -0.02 0 -0.02 0 -0.01 -0.01 -0.02 0 -0.02 -0.01 -0.01 -0.01 -0.02 0 -0.01 -0.01 -0.02 -0.01 -0.01 -0.01 -0.02 -0.01 -0.01 -0.01 -0.01 -0.01 -0.01 -0.01 -0.02 -0.01 -0.01 -0.02 -0.01 -0.01 -0.01 -0.01 -0.01 -0.02 -0.01 -0.01 0 -0.02 -0.01 -0.01 -0.01 -0.02 0 -0.02 -0.01 -0.01 0 -0.02 0 -0.02 -0.01 -0.02 0 -0.01 0 -0.02 0.22 0 0 0.01 0 0 0 0.01 0 0.01 0 0 0 0.01 0.01 0.01 0 0 0 0.01 0 0 0.01 0.01 0 0 0.01 0.01 0 0.01 0 0 0.01 0.01 0 0 0.01 0 0 0.01 0.01 0 0 0.01 0.01 0 0.01 0 0 0.01 0.01 0 0 0 0.01 0 0.01 0 0 0 0.01 0.01 0.01 0 0.01 0 0 0zm1.74 0.21l-1.74 0 0 -0.21 1.74 0 0 0 0 0.21zm0.13 -0.35l0.22 0 0 0 0 0.02 0 0.01 0 0.02 -0.01 0.02 0 0.02 0 0.01 -0.01 0.02 -0.01 0.02 0 0.01 -0.01 0.02 -0.01 0.01 -0.01 0.02 -0.01 0.01 -0.01 0.01 -0.01 0.02 -0.01 0.01 -0.01 0.01 -0.02 0.01 -0.01 0.01 -0.01 0.01 -0.02 0.01 -0.01 0.01 -0.02 0.01 -0.02 0 -0.01 0.01 -0.02 0.01 -0.01 0 -0.02 0.01 -0.02 0 -0.02 0 -0.01 0 -0.02 0 0 -0.21 0 0 0.01 0 0.01 -0.01 0 0 0.01 0 0.01 0 0 0 0.01 0 0.01 -0.01 0 0 0.01 0 0 -0.01 0.01 0 0 -0.01 0.01 0 0 0 0.01 -0.01 0 0 0.01 -0.01 0 -0.01 0 0 0.01 -0.01 0 0 0 -0.01 0.01 0 0 -0.01 0 -0.01 0 0 0 -0.01 0 -0.01 0 0 0 -0.01 0 0zm0.22 -1.67l0 1.67 -0.22 0 0 -1.67 0.22 0z"/>
    </g>
    <path fill="#D0D9E2" fill-rule="nonzero" d="M2.24 1.97c0.01,0 0.03,0.02 0.03,0.03 0,0.02 -0.02,0.03 -0.03,0.03l-0.26 0c-0.02,0 -0.03,-0.01 -0.03,-0.03 0,-0.01 0.01,-0.03 0.03,-0.03l0.26 0zm0 -0.21c0.01,0 0.03,0.01 0.03,0.03 0,0.01 -0.02,0.03 -0.03,0.03l-0.48 0c-0.02,0 -0.03,-0.02 -0.03,-0.03 0,-0.02 0.01,-0.03 0.03,-0.03l0.48 0zm0 -0.21c0.01,0 0.03,0.01 0.03,0.03 0,0.01 -0.02,0.03 -0.03,0.03l-0.26 0c-0.02,0 -0.03,-0.02 -0.03,-0.03 0,-0.02 0.01,-0.03 0.03,-0.03l0.26 0zm0 -0.42c0.01,0 0.03,0.01 0.03,0.02 0,0.02 -0.02,0.03 -0.03,0.03l-0.26 0c-0.02,0 -0.03,-0.01 -0.03,-0.03 0,-0.01 0.01,-0.02 0.03,-0.02l0.26 0zm0 -0.43c0.01,0 0.03,0.01 0.03,0.03 0,0.02 -0.02,0.03 -0.03,0.03l-0.26 0c-0.02,0 -0.03,-0.01 -0.03,-0.03 0,-0.02 0.01,-0.03 0.03,-0.03l0.26 0zm0 0.64c0.01,0 0.03,0.01 0.03,0.03 0,0.01 -0.02,0.02 -0.03,0.02l-0.48 0c-0.02,0 -0.03,-0.01 -0.03,-0.02 0,-0.02 0.01,-0.03 0.03,-0.03l0.48 0zm0 -0.43c0.01,0 0.03,0.02 0.03,0.03 0,0.02 -0.02,0.03 -0.03,0.03l-0.48 0c-0.02,0 -0.03,-0.01 -0.03,-0.03 0,-0.01 0.01,-0.03 0.03,-0.03l0.48 0zm0 -0.42c0.01,0 0.03,0.01 0.03,0.03 0,0.01 -0.02,0.03 -0.03,0.03l-0.48 0c-0.02,0 -0.03,-0.02 -0.03,-0.03 0,-0.02 0.01,-0.03 0.03,-0.03l0.48 0z"/>
   </g>
   <rect fill="none" width="2.83" height="2.83"/>
  </g>
 </g>
</svg>
