<?xml version="1.0" encoding="UTF-8"?>
<!DOCTYPE svg PUBLIC "-//W3C//DTD SVG 1.0//EN" "http://www.w3.org/TR/2001/REC-SVG-20010904/DTD/svg10.dtd">
<!-- Creator: CorelDRAW -->
<svg xmlns="http://www.w3.org/2000/svg" xml:space="preserve" width="1000px" height="1000px" version="1.0" shape-rendering="geometricPrecision" text-rendering="geometricPrecision" image-rendering="optimizeQuality" fill-rule="evenodd" clip-rule="evenodd"
viewBox="0 0 751.13 751.13"
 xmlns:xlink="http://www.w3.org/1999/xlink"
 xmlns:xodm="http://www.corel.com/coreldraw/odm/2003">
 <g id="Layer_x0020_1">
  <metadata id="CorelCorpID_0Corel-Layer"/>
  <rect fill="none" width="751.13" height="751.13"/>
  <path fill="#DDBC69" fill-rule="nonzero" d="M164 95.33c-2.9,0 -5.51,1.16 -7.39,3.03l0.02 0.02c-1.89,1.89 -3.05,4.5 -3.05,7.37 0,2.88 1.16,5.49 3.05,7.38 1.88,1.88 4.49,3.05 7.37,3.05 2.9,0 5.51,-1.16 7.39,-3.03 1.87,-1.88 3.03,-4.5 3.03,-7.4 0,-2.87 -1.16,-5.48 -3.05,-7.37l0.02 -0.02c-1.88,-1.87 -4.49,-3.03 -7.39,-3.03zm460.24 87.87c-10.98,0 -19.88,8.9 -19.88,19.89 0,1.09 0.09,2.16 0.26,3.21l-32.63 32.63 16.41 16.4 32.63 -32.62c1.04,0.17 2.12,0.26 3.21,0.26 10.99,0 19.89,-8.9 19.89,-19.88 0,-10.99 -8.9,-19.89 -19.89,-19.89zm-260.97 415.75c-5.01,3.61 -8.28,9.5 -8.28,16.15 0,10.98 8.9,19.88 19.89,19.88 10.98,0 19.88,-8.9 19.88,-19.88 0,-6.65 -3.26,-12.54 -8.28,-16.15l0 -41.05 -23.21 0 0 41.05zm-176.38 41.27c-10.98,0 -19.89,8.9 -19.89,19.88 0,10.98 8.91,19.89 19.89,19.89 10.98,0 19.88,-8.91 19.88,-19.89 0,-1.09 -0.09,-2.17 -0.26,-3.21l48.68 -48.68 0 -50.31 -23.21 0 0 40.7 -41.88 41.88c-1.05,-0.17 -2.12,-0.26 -3.21,-0.26zm377.49 10.98c-2.9,0 -5.51,1.15 -7.39,3.03l0.02 0.02c-1.88,1.88 -3.05,4.49 -3.05,7.37 0,2.88 1.17,5.48 3.05,7.37 1.89,1.89 4.49,3.05 7.37,3.05 2.9,0 5.51,-1.16 7.4,-3.03 1.87,-1.88 3.03,-4.49 3.03,-7.39 0,-2.88 -1.17,-5.49 -3.06,-7.37l0.03 -0.02c-1.89,-1.88 -4.5,-3.03 -7.4,-3.03zm-14.11 -20.1c4.3,-2 9.08,-3.11 14.11,-3.11 9.26,0 17.65,3.76 23.74,9.85l0.04 0c6.09,6.08 9.86,14.49 9.86,23.78 0,9.25 -3.77,17.65 -9.86,23.73l-0.04 0.05c-6.09,6.08 -14.48,9.85 -23.74,9.85 -9.28,0 -17.69,-3.77 -23.78,-9.85 -6.09,-6.09 -9.85,-14.5 -9.85,-23.78 0,-5.05 1.11,-9.83 3.1,-14.12l-39.28 -39.29 0 -50.31 23.21 0 0 40.7 32.49 32.5zm140.72 -202.05c-2.9,0 -5.51,1.16 -7.4,3.03l0.03 0.02c-1.89,1.89 -3.05,4.49 -3.05,7.37 0,2.88 1.16,5.49 3.05,7.38 1.88,1.88 4.49,3.05 7.37,3.05 2.9,0 5.51,-1.16 7.39,-3.03 1.87,-1.88 3.03,-4.5 3.03,-7.4 0,-2.88 -1.16,-5.48 -3.05,-7.37l0.02 -0.02c-1.88,-1.87 -4.49,-3.03 -7.39,-3.03zm-23.74 -13.36c6.09,-6.08 14.48,-9.85 23.74,-9.85 9.26,0 17.65,3.77 23.73,9.85l0.05 0c6.09,6.09 9.85,14.5 9.85,23.78 0,9.26 -3.76,17.65 -9.85,23.74l-0.05 0.05c-6.08,6.08 -14.47,9.85 -23.73,9.85 -9.29,0 -17.7,-3.77 -23.78,-9.85 -3.42,-3.42 -6.1,-7.56 -7.8,-12.18l-86.69 0 0 -23.21 86.69 0c1.7,-4.62 4.38,-8.76 7.8,-12.18l0.04 0zm-607.11 13.36c-2.9,0 -5.51,1.16 -7.39,3.03l0.02 0.02c-1.89,1.89 -3.05,4.49 -3.05,7.37 0,2.88 1.16,5.49 3.05,7.38 1.88,1.88 4.49,3.05 7.37,3.05 2.9,0 5.51,-1.16 7.39,-3.03 1.87,-1.88 3.03,-4.5 3.03,-7.4 0,-2.88 -1.16,-5.48 -3.05,-7.37l0.02 -0.02c-1.88,-1.87 -4.49,-3.03 -7.39,-3.03zm-23.74 -13.36c6.09,-6.08 14.48,-9.85 23.74,-9.85 9.25,0 17.65,3.77 23.74,9.85l0.04 0c3.41,3.42 6.1,7.56 7.8,12.18l86.69 0 0 23.21 -86.71 0c-1.7,4.6 -4.38,8.72 -7.78,12.13l-0.04 0.05c-6.09,6.08 -14.49,9.85 -23.74,9.85 -9.29,0 -17.7,-3.77 -23.78,-9.85 -6.09,-6.09 -9.85,-14.5 -9.85,-23.79 0,-9.28 3.76,-17.69 9.85,-23.78l0.04 0zm51.4 196.19c-2.9,0 -5.51,1.16 -7.4,3.03l0.03 0.02c-1.89,1.89 -3.06,4.49 -3.06,7.37 0,2.88 1.17,5.49 3.06,7.38 1.88,1.88 4.49,3.05 7.37,3.05 2.9,0 5.51,-1.16 7.39,-3.03 1.87,-1.89 3.03,-4.5 3.03,-7.4 0,-2.88 -1.17,-5.48 -3.05,-7.37l0.02 -0.02c-1.88,-1.87 -4.49,-3.03 -7.39,-3.03zm-23.74 -13.36c3.41,-3.4 7.54,-6.08 12.13,-7.78l0 -45.06 51.05 -51.04 51.17 0 0 23.21 -41.56 0 -37.45 37.44 0 35.45c4.6,1.7 8.73,4.38 12.13,7.78l0.05 0c6.08,6.09 9.85,14.5 9.85,23.78 0,9.26 -3.77,17.65 -9.85,23.74l-0.05 0.04c-6.08,6.09 -14.48,9.86 -23.73,9.86 -9.29,0 -17.7,-3.77 -23.78,-9.86 -6.09,-6.08 -9.86,-14.49 -9.86,-23.78 0,-9.28 3.77,-17.69 9.86,-23.78l0.04 0zm245.17 51.94c-2.9,0 -5.51,1.16 -7.39,3.03l0.02 0.02c-1.89,1.88 -3.05,4.49 -3.05,7.37 0,2.88 1.16,5.49 3.05,7.37 1.88,1.89 4.49,3.06 7.37,3.06 2.9,0 5.51,-1.16 7.39,-3.03 1.87,-1.89 3.03,-4.5 3.03,-7.4 0,-2.88 -1.16,-5.49 -3.05,-7.37l0.02 -0.02c-1.88,-1.87 -4.49,-3.03 -7.39,-3.03zm-23.74 -13.36c3.41,-3.4 7.54,-6.08 12.14,-7.78l0 -71.42 23.2 0 0 71.42c4.6,1.7 8.73,4.38 12.14,7.78l0.04 0c6.09,6.09 9.85,14.5 9.85,23.78 0,9.26 -3.76,17.65 -9.85,23.74l-0.04 0.04c-6.09,6.09 -14.48,9.85 -23.74,9.85 -9.29,0 -17.69,-3.76 -23.78,-9.85 -6.09,-6.08 -9.85,-14.49 -9.85,-23.78 0,-9.28 3.76,-17.69 9.85,-23.78l0.04 0zm155.03 13.36c-2.89,0 -5.51,1.16 -7.39,3.03l0.02 0.02c-1.88,1.88 -3.05,4.49 -3.05,7.37 0,2.88 1.17,5.49 3.05,7.37 1.89,1.89 4.49,3.06 7.37,3.06 2.9,0 5.52,-1.16 7.4,-3.03 1.87,-1.89 3.03,-4.5 3.03,-7.4 0,-2.88 -1.17,-5.49 -3.05,-7.37l0.02 -0.02c-1.88,-1.87 -4.5,-3.03 -7.4,-3.03zm-23.73 -13.36c3.4,-3.4 7.53,-6.08 12.13,-7.78l0 -71.42 23.21 0 0 71.42c4.6,1.7 8.72,4.38 12.13,7.78l0.05 0c6.08,6.09 9.85,14.5 9.85,23.78 0,9.26 -3.77,17.65 -9.85,23.74l-0.05 0.04c-6.09,6.09 -14.48,9.85 -23.74,9.85 -9.28,0 -17.69,-3.76 -23.78,-9.85 -6.08,-6.08 -9.85,-14.49 -9.85,-23.78 0,-9.28 3.77,-17.69 9.85,-23.78l0.05 0zm246.54 -25.22c-2.9,0 -5.51,1.16 -7.39,3.03l0.02 0.02c-1.89,1.89 -3.05,4.49 -3.05,7.37 0,2.88 1.16,5.49 3.05,7.38 1.88,1.88 4.49,3.05 7.37,3.05 2.9,0 5.51,-1.16 7.4,-3.03 1.87,-1.89 3.02,-4.5 3.02,-7.4 0,-2.88 -1.16,-5.48 -3.05,-7.37l0.03 -0.02c-1.89,-1.87 -4.5,-3.03 -7.4,-3.03zm-23.74 -13.36c3.41,-3.4 7.54,-6.08 12.13,-7.78l0 -35.45 -37.44 -37.44 -41.56 0 0 -23.21 51.17 0 51.04 51.04 0 45.06c4.6,1.7 8.73,4.38 12.14,7.78l0.04 0c6.09,6.09 9.85,14.5 9.85,23.78 0,9.26 -3.76,17.65 -9.85,23.74l-0.04 0.04c-6.09,6.09 -14.49,9.86 -23.74,9.86 -9.29,0 -17.7,-3.77 -23.78,-9.86 -6.09,-6.08 -9.85,-14.49 -9.85,-23.78 0,-9.28 3.76,-17.69 9.85,-23.78l0.04 0zm71.08 -354.79c-2.9,0 -5.51,1.15 -7.4,3.02l0.03 0.03c-1.89,1.88 -3.05,4.49 -3.05,7.37 0,2.88 1.16,5.48 3.05,7.37 1.88,1.88 4.49,3.05 7.37,3.05 2.9,0 5.51,-1.16 7.39,-3.03 1.87,-1.88 3.03,-4.49 3.03,-7.39 0,-2.88 -1.17,-5.49 -3.05,-7.37l0.02 -0.03c-1.88,-1.87 -4.49,-3.02 -7.39,-3.02zm-23.74 -13.36c6.09,-6.09 14.48,-9.85 23.74,-9.85 9.25,0 17.65,3.76 23.73,9.85l0.05 0c6.08,6.08 9.85,14.49 9.85,23.78 0,9.25 -3.77,17.65 -9.85,23.74l-0.05 0.04c-3.4,3.4 -7.53,6.08 -12.13,7.78l0 37.5 -57.7 57.7 -8.2 3.4 -83.65 0 0 -23.21 78.84 0 47.5 -47.5 0 -27.88c-4.62,-1.7 -8.76,-4.38 -12.17,-7.79 -6.09,-6.09 -9.85,-14.5 -9.85,-23.78 0,-9.29 3.76,-17.7 9.85,-23.78l0.04 0zm-646.47 13.36c-2.9,0 -5.51,1.15 -7.39,3.02l0.02 0.03c-1.89,1.88 -3.05,4.49 -3.05,7.37 0,2.88 1.16,5.48 3.05,7.37 1.88,1.88 4.49,3.05 7.37,3.05 2.9,0 5.51,-1.16 7.4,-3.03 1.87,-1.88 3.02,-4.49 3.02,-7.39 0,-2.88 -1.16,-5.49 -3.05,-7.37l0.03 -0.03c-1.89,-1.87 -4.5,-3.02 -7.4,-3.02zm-23.74 -13.36c6.09,-6.09 14.48,-9.85 23.74,-9.85 9.26,0 17.65,3.76 23.74,9.85l0.04 0c6.09,6.08 9.85,14.49 9.85,23.78 0,9.25 -3.76,17.65 -9.85,23.74l-0.04 0.04c-3.41,3.4 -7.54,6.08 -12.13,7.78l0 27.89 47.5 47.5 78.84 0 0 23.21 -88.45 0 -61.1 -61.1 0 -37.49c-4.62,-1.69 -8.77,-4.38 -12.18,-7.79 -6.09,-6.09 -9.85,-14.5 -9.85,-23.78 0,-9.29 3.76,-17.7 9.85,-23.78l0.04 0zm180.48 -8.61l-44.81 -44.81 0 -39.62c-4.61,-1.7 -8.76,-4.38 -12.17,-7.79 -6.09,-6.09 -9.85,-14.5 -9.85,-23.79 0,-9.28 3.76,-17.69 9.85,-23.78l0.04 0c6.09,-6.08 14.48,-9.85 23.74,-9.85 9.25,0 17.65,3.77 23.74,9.85l0.04 0c6.09,6.09 9.85,14.5 9.85,23.78 0,9.26 -3.76,17.65 -9.85,23.74l-0.04 0.05c-3.41,3.4 -7.54,6.08 -12.14,7.78l0 30.02 38.01 38.01 -16.41 16.41zm375.76 -142.67c-2.9,0 -5.51,1.15 -7.39,3.03l0.02 0.02c-1.89,1.88 -3.05,4.49 -3.05,7.37 0,2.88 1.16,5.49 3.05,7.37 1.88,1.89 4.49,3.05 7.37,3.05 2.9,0 5.51,-1.16 7.39,-3.03 1.88,-1.88 3.03,-4.49 3.03,-7.39 0,-2.88 -1.16,-5.49 -3.05,-7.37l0.02 -0.02c-1.88,-1.88 -4.49,-3.03 -7.39,-3.03zm-23.74 -13.36c6.09,-6.09 14.49,-9.85 23.74,-9.85 9.26,0 17.65,3.76 23.74,9.85l0.04 0c6.09,6.08 9.85,14.49 9.85,23.78 0,9.25 -3.76,17.65 -9.85,23.74l-0.04 0.04c-3.41,3.41 -7.54,6.08 -12.13,7.78l0 39.63 -49.98 48.79 -16.41 -16.41 43.18 -41.99 0 -30.01c-4.62,-1.69 -8.77,-4.38 -12.18,-7.79 -6.09,-6.09 -9.85,-14.49 -9.85,-23.78 0,-9.29 3.76,-17.7 9.85,-23.78l0.04 0z"/>
 </g>
</svg>
