<?xml version="1.0" encoding="UTF-8"?>
<!DOCTYPE svg PUBLIC "-//W3C//DTD SVG 1.0//EN" "http://www.w3.org/TR/2001/REC-SVG-20010904/DTD/svg10.dtd">
<!-- Creator: CorelDRAW -->
<svg xmlns="http://www.w3.org/2000/svg" xml:space="preserve" width="1000px" height="1000px" version="1.0" shape-rendering="geometricPrecision" text-rendering="geometricPrecision" image-rendering="optimizeQuality" fill-rule="evenodd" clip-rule="evenodd"
viewBox="0 0 751.13 751.13"
 xmlns:xlink="http://www.w3.org/1999/xlink"
 xmlns:xodm="http://www.corel.com/coreldraw/odm/2003">
 <g id="Layer_x0020_1">
  <metadata id="CorelCorpID_0Corel-Layer"/>
  <rect fill="none" width="751.13" height="751.13"/>
  <path fill="#37AEC9" d="M395.9 89.43l245.1 199.32c4.95,4.02 8.33,9.27 9.95,15.04 1.62,5.79 1.48,12.03 -0.65,18 -2.13,6.01 -5.97,10.98 -10.89,14.46 -4.93,3.47 -10.86,5.42 -17.19,5.42l-47.01 0 0 157.52c0,16.82 -6.85,32.08 -17.9,43.13 -11.05,11.05 -26.31,17.9 -43.13,17.9l-275.54 0c-16.82,0 -32.08,-6.85 -43.13,-17.9 -11.05,-11.05 -17.9,-26.31 -17.9,-43.13l0 -157.52 -47 0c-6.34,0 -12.27,-1.95 -17.2,-5.42 -4.92,-3.48 -8.76,-8.45 -10.89,-14.46 -2.12,-5.97 -2.27,-12.21 -0.65,-18 1.62,-5.77 5,-11.02 9.95,-15.04l245.1 -199.32c5.75,-4.68 12.62,-7.01 19.49,-7.01 6.87,0 13.74,2.34 19.49,7.01z"/>
  <g id="_2153148958944">
   <path fill="#DBFFF7" d="M281.25 493.14c-15.59,0 -28.29,-12.82 -28.29,-28.39l0 -73.55c0,-15.57 12.7,-28.39 28.29,-28.39l30.12 0c15.6,0 28.3,12.82 28.3,28.39l0 73.55c0,15.57 -12.7,28.39 -28.3,28.39l-30.12 0z"/>
   <path fill="#93FFEB" d="M281.25 246.86l30.12 0c15.6,0 28.3,12.82 28.3,28.39l0 31.18c0,15.57 -12.7,28.39 -28.3,28.39l-30.12 0c-15.59,0 -28.29,-12.82 -28.29,-28.39l0 -31.18c0,-15.57 12.7,-28.39 28.29,-28.39z"/>
   <path fill="#93FFEB" d="M470.94 493.14l-74.02 0c-15.59,0 -28.29,-12.82 -28.29,-28.39l0 -20.48c0,-15.57 12.7,-28.39 28.29,-28.39l74.02 0c15.59,0 28.29,12.82 28.29,28.39l0 20.48c0,15.57 -12.7,28.39 -28.29,28.39z"/>
   <path fill="#D6F6F4" d="M401.71 246.86l64.44 0c18.21,0 33.08,14.87 33.08,33.08l0 74.17c0,18.21 -14.87,33.08 -33.08,33.08l-64.44 0c-18.21,0 -33.08,-14.87 -33.08,-33.08l0 -74.17c0,-18.21 14.87,-33.08 33.08,-33.08z"/>
  </g>
 </g>
</svg>
