<?xml version="1.0" encoding="UTF-8"?>
<!DOCTYPE svg PUBLIC "-//W3C//DTD SVG 1.0//EN" "http://www.w3.org/TR/2001/REC-SVG-20010904/DTD/svg10.dtd">
<!-- Creator: CorelDRAW -->
<svg xmlns="http://www.w3.org/2000/svg" xml:space="preserve" width="1000px" height="1000px" version="1.0" shape-rendering="geometricPrecision" text-rendering="geometricPrecision" image-rendering="optimizeQuality" fill-rule="evenodd" clip-rule="evenodd"
viewBox="0 0 54.97 54.97"
 xmlns:xlink="http://www.w3.org/1999/xlink"
 xmlns:xodm="http://www.corel.com/coreldraw/odm/2003">
 <g id="Layer_x0020_1">
  <metadata id="CorelCorpID_0Corel-Layer"/>
  <g id="_2712394856656">
   <path fill="black" d="M47.47 42.12l1.6 0 0 2.14 -1.6 0 0 -2.14zm-20.7 0l18.91 0 0 2.14 -18.91 0 0 -2.14zm-3.39 0l1.61 0 0 2.14 -1.61 0 0 -2.14zm-18.73 1.07c0,-0.87 0.56,-1.43 1.43,-1.43l8.02 0c1.53,0 1.43,1.4 1.43,2.5l-10.88 0 0 -1.07zm16.59 -3.57l0 -0.89 29.97 0c0,0.64 0.07,1.78 -0.89,1.78l-28.19 0c-0.41,0 -0.89,-0.48 -0.89,-0.89zm0 -13.74c0,-2.96 3.68,-3.56 5,-1.43 0.9,1.44 -0.16,6.14 0.53,9.1 1.87,0.44 15.2,0.18 18.2,0.18 1.04,0 0.71,-1.67 0.71,-2.67 0,-3.54 -0.75,-7.85 2.86,-7.85 1.65,0 2.67,1.4 2.67,2.49l0 11.24 -29.97 0 0 -11.06zm7.14 5.18c0,-0.58 0.65,-0.9 1.25,-0.9l13.2 0c1.48,0 1.25,1.08 1.25,1.97l-15.7 0 0 -1.07zm-2.14 -15.17l19.98 0c1.97,0 1.43,2.75 1.43,5.71 -1.28,0.11 -2.6,1.27 -3.09,2.26 -0.68,1.36 -0.48,2.96 -0.48,4.88 -0.76,-0.43 -13.26,-0.18 -15.17,-0.18 -0.68,0 -0.06,-0.06 -0.53,0.18 0,-2.07 0.19,-3.42 -0.53,-4.83 -0.6,-1.19 -1.6,-1.97 -3.04,-2.31 0,-1.19 0,-2.38 -0.01,-3.58 -0.01,-1.29 0.18,-2.13 1.44,-2.13zm-8.57 -1.43c1.41,0 2.58,1.12 2.86,2.32l-6.07 0c0.63,-1.18 1.18,-2.32 3.21,-2.32zm-14.63 28.19l0 1.61c-2.13,0 -3.03,-0.31 -3.03,0.89 0,0.42 0.3,0.71 0.71,0.71l53.53 0c0.96,0 0.96,-1.6 0,-1.6l-3.57 0 0 -2.14c0.97,-0.23 2.14,-0.99 2.14,-2.14l0 -14.46c0,-1.91 -1.77,-3.77 -3.57,-3.92 0,-1.31 0.16,-4.53 -0.14,-5.39 -0.51,-1.4 -1.87,-2.1 -3.43,-2.1l-18.91 0c-4.59,0 -3.74,4.59 -3.74,7.49 -2.21,0.51 -3.57,2.26 -3.57,4.99l0 12.31c0,3.44 2.14,2.51 2.14,3.57l0 1.79 -4.46 0c0,-4.77 -2.04,-4.11 -6.25,-4.11l0 -26.4c0,-2.57 3.55,-4.97 5.71,-0.89 -0.68,0.32 -1.9,0.59 -2.71,1.57 -0.61,0.74 -2.44,4.14 0.04,4.14l7.31 0c2.55,0 0.42,-5.42 -3.03,-5.71 -0.08,-3.7 -5.99,-5.33 -8.21,-1.78 -0.94,1.51 -0.71,2.49 -0.71,4.81l0.02 23.21c-0.01,1.31 0.21,1.03 -3.24,1.04 -1.89,0.01 -3.03,1.41 -3.03,2.51z"/>
   <path fill="black" d="M31.05 21.06c-0.48,0 -0.49,-0.08 -0.89,-0.17 -0.57,-2.46 1.29,-1.65 1.47,-1.47 0.56,0.56 0.19,1.64 -0.58,1.64zm-0.53 1.61l0.89 0c2.57,0 3.3,-5.17 -0.53,-5.17 -1.38,0 -2.48,1.08 -2.61,2.37 -0.14,1.3 0.92,2.8 2.25,2.8z"/>
   <path fill="black" d="M40.51 20.17c0,-1.49 1.96,-1.24 1.96,0 0,1.17 -1.96,1.17 -1.96,0zm-1.61 -0.18c0,3.91 5.18,3.12 5.18,0.54 0,-4.33 -5.18,-3.63 -5.18,-0.54z"/>
  </g>
  <rect fill="none" width="54.97" height="54.97"/>
 </g>
</svg>
